TexturaLibera-Bold.sfdir
StartChar: exclam
Encoding: 33 33 1
Width: 300
Flags: MW
LayerCount: 4
Fore
SplineSet
115 70 m 25
 185 0 l 1049
125 550 m 1
 125 550 139 520 140 500 c 24
 148 387 150 210 150 210 c 1
 150 210 153 387 160 500 c 24
 163 539 175 600 175 600 c 9
 125 550 l 1
EndSplineSet
EndChar
StartChar: numbersign
Encoding: 35 35 3
Width: 700
Flags: MW
LayerCount: 4
Fore
SplineSet
250 -150 m 25
 650 700 l 1049
50 -150 m 25
 450 700 l 1049
50 200 m 25
 650 200 l 1049
50 400 m 25
 650 400 l 1049
EndSplineSet
EndChar
StartChar: dollar
Encoding: 36 36 4
Width: 600
Flags: W
HStem: -214 21G<245 285> -14 128<82 234.263> 486 128<365.737 518> 644 20G<565 605>
VStem: 36 128<398 465> 236 128<-115 -64 108 216 384 492 664 665> 436 128<135 202>
CounterMasks: 1 0e
LayerCount: 2
Back
SplineSet
300 700 m 25
 300 -150 l 1049
550 600 m 17
 550 600 510 550 475 550 c 24
 366 550 200 600 200 600 c 9
 100 500 l 1
 100 340 l 1
 500 260 l 1
 500 100 l 5
 400 0 l 17
 400 0 234 50 125 50 c 24
 90 50 50 0 50 0 c 1025
EndSplineSet
Fore
SplineSet
585 664 m 1
 614 635 l 1
 614 635 609 628 600 620 c 2
 501 521 l 2
 486 506 462 486 440 486 c 0
 417 486 390 488 364 492 c 1
 364 358 l 1
 535 324 l 1
 564 295 l 1
 564 135 l 1
 365 -64 l 1
 365 -64 365 -64 364 -64 c 2
 364 -115 l 1
 265 -214 l 1
 236 -185 l 1
 236 -32 l 1
 188 -22 134 -14 90 -14 c 0
 74 -14 56 -25 43 -36 c 2
 15 -64 l 1
 -14 -35 l 2
 -14 -35 -9 -30 -1 -21 c 2
 -0 -20 l 2
 99 79 l 2
 114 94 138 114 160 114 c 0
 183 114 210 112 236 108 c 1
 236 242 l 1
 65 276 l 1
 36 305 l 1
 36 465 l 1
 235 664 l 1
 235 664 235 664 236 664 c 2
 236 665 l 1
 335 764 l 1
 364 735 l 1
 364 632 l 1
 412 622 466 614 510 614 c 0
 526 614 543 624 557 636 c 2
 585 664 l 1
236 517 m 1
 194 527 165 536 165 536 c 2
 164 535 l 1
 164 398 l 1
 236 384 l 1
 236 517 l 1
364 83 m 1
 406 73 435 64 435 64 c 2
 436 65 l 1
 436 202 l 1
 364 216 l 1
 364 83 l 1
EndSplineSet
EndChar
StartChar: ampersand
Encoding: 38 38 6
Width: 500
Flags: W
HStem: 644 20G<215 275>
VStem: 36 128<100 215 449 465> 236 128<85 286 414 501>
LayerCount: 2
Back
SplineSet
200 350 m 29
 400 350 l 1053
450 100 m 1
 350 0 l 1
 300 50 l 1
 300 550 l 9
 200 600 l 1
 100 500 l 17
 100 400 l 5
 200 350 l 5
 100 250 l 29
 99 50 l 25
 200 0 l 25
 300 100 l 1041
EndSplineSet
Fore
SplineSet
240 11 m 1
 165 -64 l 1
 64 -14 l 1
 35 15 l 1
 36 215 l 1
 126 305 l 1
 65 336 l 1
 36 365 l 1
 36 465 l 1
 235 664 l 1
 335 614 l 1
 364 585 l 1
 364 414 l 1
 435 414 l 1
 464 385 l 1
 365 286 l 1
 364 286 l 1
 364 85 l 1
 385 64 l 1
 485 164 l 1
 514 135 l 1
 315 -64 l 1
 240 11 l 1
236 286 m 1
 165 286 l 1
 164 285 l 1
 163 100 l 1
 236 63 l 1
 236 286 l 1
236 414 m 1
 236 501 l 1
 165 536 l 1
 164 535 l 1
 164 449 l 1
 235 414 l 1
 236 414 l 1
EndSplineSet
EndChar
StartChar: parenleft
Encoding: 40 40 8
Width: 250
Flags: W
HStem: -214 21G<157 185>
VStem: -14 128<128.403 424.386>
LayerCount: 2
Back
SplineSet
200 700 m 21
 200 700 50 575 50 275 c 4
 50 -25 200 -150 200 -150 c 1037
EndSplineSet
Fore
SplineSet
264 735 m 1
 246 717 l 2
 206 673 114 545 114 310 c 0
 114 74 207 -53 246 -97 c 2
 264 -115 l 1
 165 -214 l 2
 165 -214 162 -211 157 -206 c 2
 128 -177 l 2
 96 -145 -14 -17 -14 240 c 0
 -14 497 96 625 128 657 c 2
 227 756 l 2
 235 764 l 1
 264 735 l 1
EndSplineSet
EndChar
StartChar: parenright
Encoding: 41 41 9
Width: 250
Flags: W
HStem: -214 21G<-5 23>
VStem: 136 128<129.788 421.597>
LayerCount: 2
Back
SplineSet
50 700 m 17
 50 700 200 575 200 275 c 0
 200 -25 50 -150 50 -150 c 1033
EndSplineSet
Fore
SplineSet
-14 665 m 1
 85 764 l 1
 85 764 88 761 93 756 c 2
 122 727 l 2
 154 695 264 567 264 310 c 0
 264 53 153 -76 122 -107 c 2
 23 -206 l 2
 15 -214 l 1
 -14 -185 l 1
 4 -167 l 2
 44 -123 136 4 136 240 c 0
 136 476 44 603 4 647 c 2
 -14 665 l 1
EndSplineSet
EndChar
StartChar: asterisk
Encoding: 42 42 10
Width: 500
Flags: W
HStem: 544 20G<115 174.231 395.328 455> 644 20G<265 305>
LayerCount: 2
Back
SplineSet
100 350 m 25
 400 500 l 1049
250 600 m 25
 250 250 l 1049
100 500 m 25
 400 350 l 1049
EndSplineSet
Fore
SplineSet
36 465 m 1
 135 564 l 1
 186 538 l 1
 186 565 l 1
 285 664 l 1
 314 635 l 1
 314 503 l 1
 435 564 l 1
 464 535 l 1
 374 445 l 1
 435 414 l 1
 464 385 l 1
 365 286 l 1
 314 312 l 1
 314 285 l 1
 215 186 l 1
 186 215 l 1
 186 347 l 1
 65 286 l 1
 36 315 l 1
 126 405 l 1
 65 436 l 1
 36 465 l 1
EndSplineSet
EndChar
StartChar: comma
Encoding: 44 44 12
Width: 300
Flags: W
VStem: 21 233
LayerCount: 2
Back
SplineSet
120 70 m 25
 190 0 l 1
 190 -70 l 25
 85 -175 l 1049
EndSplineSet
Fore
SplineSet
56 35 m 1
 155 134 l 1
 254 35 l 1
 254 -35 l 1
 50 -239 l 1
 21 -210 l 1
 126 -105 l 1
 126 -35 l 1
 56 35 l 1
EndSplineSet
EndChar
StartChar: hyphen
Encoding: 45 45 13
Width: 300
Flags: W
HStem: 136 153
VStem: 36 228
LayerCount: 2
Back
SplineSet
100 200 m 29
 200 225 l 1053
EndSplineSet
Fore
SplineSet
36 165 m 1
 135 264 l 1
 235 289 l 1
 264 260 l 1
 165 161 l 1
 65 136 l 1
 36 165 l 1
EndSplineSet
EndChar
StartChar: zero
Encoding: 48 48 16
Width: 400
Flags: MW
LayerCount: 4
Fore
SplineSet
200 400 m 1
 100 300 l 1
 100 50 l 25
 200 0 l 1
 300 100 l 1
 300 350 l 25
 200 400 l 1
EndSplineSet
Substitution2: "Subscript forms-1" zero.inferior
Substitution2: "Superscript forms-1" zero.superior
EndChar
StartChar: three
Encoding: 51 51 19
Width: 400
Flags: W
HStem: -214 128<107 193> 444 20G<165 265> 444 20G<165 265>
VStem: 236 128<-102 94.6433>
LayerCount: 2
Back
SplineSet
100 350 m 1
 150 400 l 1
 200 400 l 1
 275 350 l 1
 275 250 l 1
 175 150 l 1049
75 -200 m 25
 75 -200 115 -150 150 -150 c 27
 194 -150 250 -200 250 -200 c 25
 300 -150 l 1
 300 100 l 9
 225 175 l 1053
EndSplineSet
Fore
SplineSet
40 -264 m 1xd0
 11 -235 l 1
 11 -235 16 -228 25 -220 c 2
 124 -121 l 2
 139 -106 163 -86 185 -86 c 0
 201 -86 220 -94 236 -102 c 1
 236 65 l 2
 236 89 203 98 190 111 c 2
 177 124 l 1
 140 86 l 1
 111 115 l 1
 211 215 l 1
 211 305 l 1
 165 336 l 1
 115 336 l 1
 65 286 l 1
 36 315 l 1
 185 464 l 1
 235 464 l 1
 310 414 l 1
 339 385 l 1
 339 285 l 1
 276 223 l 1
 364 135 l 1
 364 -115 l 1
 215 -264 l 1
 215 -264 159 -214 115 -214 c 0
 99 -214 82 -224 68 -236 c 2
 40 -264 l 1xd0
EndSplineSet
Substitution2: "Subscript forms-1" three.inferior
Substitution2: "Superscript forms-1" three.superior
EndChar
StartChar: four
Encoding: 52 52 20
Width: 400
Flags: W
HStem: -214 21G<245.5 285> 444 20G<215 243 291 330> 444 20G<215 243 291 330>
VStem: 36 128<81 165> 211 128<-90 -57 88 312>
LayerCount: 2
Back
SplineSet
250 -100 m 25
 300 -150 l 1049
275 -125 m 1
 275 400 l 1
 275 400 257 375 240 375 c 27
 222 375 200 400 200 400 c 1
 100 200 l 1
 100 0 l 1
 100 0 114 25 200 25 c 3
 336 25 399 0 400 0 c 1025
EndSplineSet
Fore
SplineSet
202 311 m 2x98
 164 235 l 1
 164 81 l 1
 175 84 191 87 211 88 c 1
 211 312 l 2
 209 311 207 311 205 311 c 0
 204 311 203 311 202 311 c 2x98
339 83 m 1
 346 82 353 82 359 81 c 0
 410 74 434 64 435 64 c 2
 464 35 l 1
 365 -64 l 2
 365 -64 356 -61 339 -57 c 1
 339 -90 l 1
 364 -115 l 1
 265 -214 l 1
 226 -174 l 1
 211 -160 l 1
 186 -135 l 1
 211 -110 l 1
 211 -40 l 1
 197 -39 181 -39 165 -39 c 0
 106 -39 81 -50 71 -58 c 2
 65 -64 l 1
 36 -35 l 1
 36 165 l 1
 136 365 l 1
 235 464 l 1
 243 456 l 2
 251 449 264 439 275 439 c 0
 280 439 285 441 291 445 c 2
 310 464 l 1xd8
 339 435 l 1
 339 83 l 1
EndSplineSet
Substitution2: "Subscript forms-1" four.inferior
Substitution2: "Superscript forms-1" four.superior
EndChar
StartChar: five
Encoding: 53 53 21
Width: 400
Flags: W
HStem: -214 128<82 183.226> 286 128<187.858 270> 444 20G<115 185 326 355> 444 20G<115 185 326 355>
VStem: 36 128<203 290> 236 128<-65 40>
LayerCount: 2
Back
SplineSet
300 400 m 17
 300 400 253 350 225 350 c 0
 181 350 100 400 100 400 c 1
 100 125 l 1
 200 175 l 1
 300 75 l 1
 300 -100 l 17
 200 -200 l 1
 200 -200 160 -150 125 -150 c 24
 90 -150 50 -200 50 -200 c 1025
EndSplineSet
Fore
SplineSet
335 464 m 1xec
 364 435 l 1
 364 435 363 434 360 431 c 2
 261 332 l 2
 249 320 213 286 190 286 c 0
 182 286 173 288 164 290 c 1
 164 203 l 1
 235 239 l 1
 364 110 l 1
 364 -65 l 1
 165 -264 l 1
 137 -236 l 2
 123 -225 106 -214 90 -214 c 0
 74 -214 56 -225 43 -236 c 2
 15 -264 l 1
 -14 -235 l 2
 -14 -235 -9 -230 -1 -221 c 2
 -0 -220 l 2
 99 -121 l 2
 114 -106 138 -86 160 -86 c 0
 182 -86 206 -106 221 -121 c 0
 226 -126 231 -130 236 -135 c 1
 236 40 l 1
 165 111 l 1
 65 61 l 1
 36 90 l 1
 36 365 l 1
 135 464 l 1
 135 464 216 414 260 414 c 0
 280 414 310 440 326 455 c 2
 335 464 l 1xec
EndSplineSet
Substitution2: "Subscript forms-1" five.inferior
Substitution2: "Superscript forms-1" five.superior
EndChar
StartChar: eight
Encoding: 56 56 24
Width: 400
Flags: W
HStem: 644 20G<215 255>
VStem: 36 128<98.1606 190 424 465> 236 128<135 226 460 501.839>
LayerCount: 2
Back
SplineSet
200 600 m 25
 100 500 l 25
 100 375 l 29
 200 325 l 29
 300 425 l 29
 300 500 l 25
 200 600 l 25
200 325 m 29
 100 225 l 29
 100 100 l 25
 200 0 l 25
 300 100 l 25
 300 275 l 29
 200 325 l 29
EndSplineSet
Fore
SplineSet
165 536 m 1
 164 535 l 1
 164 424 l 1
 235 389 l 1
 236 390 l 1
 236 465 l 2
 236 503 186 515 165 536 c 1
36 465 m 1
 235 664 l 1
 364 535 l 1
 364 460 l 1
 274 370 l 1
 335 339 l 1
 364 310 l 1
 364 135 l 1
 165 -64 l 1
 36 65 l 1
 36 190 l 1
 126 280 l 1
 65 311 l 1
 36 340 l 1
 36 465 l 1
165 261 m 1
 164 260 l 1
 164 135 l 2
 164 97 214 85 235 64 c 1
 236 65 l 1
 236 226 l 1
 165 261 l 1
EndSplineSet
Substitution2: "Subscript forms-1" eight.inferior
Substitution2: "Superscript forms-1" eight.superior
EndChar
StartChar: nine
Encoding: 57 57 25
Width: 400
Flags: MW
LayerCount: 4
Fore
SplineSet
300 100 m 1
 200 0 l 1
 100 100 l 25
 100 300 l 25
 200 400 l 25
 300 300 l 1
 300 -150 l 9
 250 -200 l 25
 250 -200 194 -150 150 -150 c 27
 115 -150 75 -200 75 -200 c 1025
EndSplineSet
Substitution2: "Subscript forms-1" nine.inferior
Substitution2: "Superscript forms-1" nine.superior
EndChar
StartChar: colon
Encoding: 58 58 26
Width: 300
Flags: MW
LayerCount: 4
Fore
SplineSet
115 360 m 25
 185 290 l 1049
115 70 m 25
 185 0 l 1049
EndSplineSet
EndChar
StartChar: question
Encoding: 63 63 31
Width: 400
Flags: W
HStem: 644 20G<190 260>
VStem: 136 128<245 315> 236 128<435 498>
LayerCount: 2
Back
SplineSet
100 450 m 25
 100 525 l 25
 175 600 l 25
 300 550 l 25
 300 400 l 25
 200 350 l 25
 200 210 l 1049
165 70 m 25
 235 0 l 1049
EndSplineSet
Fore
SplineSet
101 35 m 1x80
 200 134 l 1
 299 35 l 1
 200 -64 l 1
 101 35 l 1x80
65 386 m 1
 36 415 l 1
 36 490 l 1
 210 664 l 1
 335 614 l 1
 364 585 l 1
 364 435 l 1xa0
 265 336 l 1
 264 336 l 1
 264 245 l 1
 165 146 l 1
 136 175 l 1
 136 315 l 1xc0
 235 414 l 2
 236 414 235 414 236 414 c 2
 236 498 l 1xa0
 164 526 l 1
 164 485 l 1
 65 386 l 1
EndSplineSet
EndChar
StartChar: at
Encoding: 64 64 32
Width: 800
Flags: W
HStem: -214 128<333.095 483.212> 469 20G<415 455 515 555> 536 128<368.263 512.448>
VStem: 36 128<122.091 319.297> 236 128<105.357 290> 436 128<115 328> 636 128<269.801 400.77>
LayerCount: 2
Back
SplineSet
650 -50 m 1
 650 -50 550 -150 400 -150 c 11
 213 -150 100 38 100 225 c 27
 100 425 250 600 450 600 c 31
 595 600 700 470 700 325 c 27
 700 216 575 75 575 75 c 26
 525 25 l 1
 500 50 l 1
 500 425 l 1
 500 425 478 385 450 385 c 0
 422 385 400 425 400 425 c 9
 300 325 l 1
 300 100 l 17
 375 25 l 1
 500 150 l 1049
EndSplineSet
Fore
SplineSet
436 328 m 1
 430 324 422 321 415 321 c 0
 403 321 392 328 383 337 c 2
 364 356 l 1
 364 135 l 2
 364 111 397 102 410 89 c 1
 436 115 l 1
 436 328 l 1
436 57 m 1
 340 -39 l 1
 236 65 l 1
 236 290 l 1
 435 489 l 1
 464 460 l 1
 464 460 466 458 468 454 c 0
 473 451 479 449 485 449 c 0
 489 449 493 450 498 452 c 2
 535 489 l 1
 564 460 l 1
 564 110 l 1
 597 160 636 230 636 290 c 0
 636 361 611 429 568 479 c 1
 527 514 474 536 415 536 c 0
 346 536 284 515 231 480 c 1
 189 418 164 341 164 260 c 0
 164 156 199 52 262 -20 c 1
 308 -60 367 -86 435 -86 c 0
 585 -86 685 14 685 14 c 1
 714 -15 l 1
 615 -114 l 1
 615 -114 515 -214 365 -214 c 0
 290 -214 226 -184 177 -135 c 2
 148 -106 l 2
 148 -105 l 0
 76 -33 36 79 36 190 c 0
 36 296 78 395 148 465 c 2
 247 564 l 2
 308 625 391 664 485 664 c 0
 551 664 610 637 653 594 c 2
 681 565 l 1
 682 564 l 2
 733 513 764 439 764 360 c 0
 764 251 639 110 639 110 c 1
 490 -39 l 1
 436 15 l 1
 436 57 l 1
EndSplineSet
EndChar
StartChar: A
Encoding: 65 65 33
Width: 700
Flags: W
HStem: 511 21G<170 208> 536 128<233 319.5>
VStem: 286 128<407.689 520>
AnchorPoint: "blwmark" 400 0 basechar 0
AnchorPoint: "abvmark" 450 700 basechar 0
LayerCount: 2
Back
SplineSet
535 530 m 29
 465 600 l 29
 395 530 l 1053
200 300 m 1
 200 300 230 350 300 350 c 3
 427 350 500 250 501 250 c 1025
225 575 m 1
 225 575 235 600 275 600 c 11
 324 600 350 549 350 500 c 3
 350 263 176 75 176 75 c 1025
50 0 m 17
 50 0 81 50 150 50 c 3
 248 50 275 0 275 0 c 1025
500 565 m 5
 550 50 l 1
 600 0 l 9
 650 50 l 1049
EndSplineSet
Fore
SplineSet
535 629 m 1
 564 600 l 1
 599 565 l 1
 570 536 l 1
 614 85 l 2
 615 75 629 70 635 64 c 1
 685 114 l 1
 714 85 l 1
 565 -64 l 1
 486 15 l 1
 469 189 l 1
 466 186 l 2
 437 215 l 2
 437 215 435 217 432 220 c 0
 412 237 384 258 347 271 c 1
 298 172 240 110 240 110 c 2
 238 108 l 1
 271 100 290 86 300 76 c 2
 329 47 l 2
 336 40 339 35 339 35 c 1
 240 -64 l 1
 217 -41 l 1
 198 -28 166 -14 115 -14 c 0
 83 -14 59 -25 42 -37 c 2
 15 -64 l 1
 -14 -35 l 1
 -14 -35 -10 -28 -2 -20 c 2
 97 79 l 2
 110 92 133 109 168 113 c 1
 197 156 231 216 255 286 c 1
 228 284 208 274 193 264 c 2
 165 236 l 1
 136 265 l 1
 136 265 140 272 149 280 c 2
 248 379 l 2
 256 387 267 396 282 403 c 1
 285 423 286 444 286 465 c 0
 286 487 281 511 270 529 c 1
 261 534 251 536 240 536 c 0
 226 536 216 533 208 529 c 2
 190 511 l 1
 161 540 l 1
 161 540 163 545 168 550 c 2
 267 649 l 2
 274 656 288 664 310 664 c 0
 329 664 344 657 356 645 c 2
 385 616 l 2
 396 605 404 590 409 573 c 1
 500 664 l 1
 535 629 l 1
397 406 m 1
 416 401 434 393 450 385 c 1
 436 530 l 1
 430 536 l 1
 414 520 l 1
 413 480 406 442 397 406 c 1
EndSplineSet
EndChar
StartChar: C
Encoding: 67 67 35
Width: 750
Flags: MW
AnchorPoint: "blwmark" 400 0 basechar 0
AnchorPoint: "abvmark" 450 700 basechar 0
LayerCount: 4
Fore
SplineSet
425 500 m 1
 425 100 l 1025
300 600 m 1
 300 600 125 480 125 300 c 3
 125 134 220 0 400 0 c 3
 519 0 651 150 652 150 c 1025
300 492 m 1
 300 492 395 600 455 600 c 3
 519 600 492 550 550 550 c 3
 598 550 625 600 626 600 c 1025
EndSplineSet
Layer: 2
SplineSet
300 550 m 5
 300 100 l 1029
EndSplineSet
EndChar
StartChar: G
Encoding: 71 71 39
Width: 750
Flags: W
HStem: -64 128<418 475.316> 300 128<531 618.5> 486 128<509 592> 644 20G<311.364 355 469 501 641 681>
VStem: 61 128<206.161 371.668> 280 40<108 442 543 551> 361 128<135 293.804 346 465> 586 128<152.625 293.872>
AnchorPoint: "blwmark" 400 0 basechar 0
AnchorPoint: "abvmark" 450 700 basechar 0
LayerCount: 2
Back
SplineSet
475 300 m 17
 475 300 522 364 575 364 c 3
 631 364 650 306 650 200 c 3
 650 75 519 0 400 0 c 3
 220 0 125 134 125 300 c 3
 125 480 300 600 300 600 c 1025
300 550 m 1
 300 100 l 1025
425 500 m 1
 425 100 l 1025
300 492 m 1
 300 492 395 600 455 600 c 3
 519 600 492 550 550 550 c 3
 598 550 625 600 626 600 c 1025
EndSplineSet
Fore
SplineSet
265 428 m 1
 236 457 l 1
 236 457 244 466 258 480 c 2
 280 502 l 1
 280 551 l 1
 265 536 l 1
 265 536 263 535 261 533 c 0
 223 483 189 415 189 335 c 0
 189 252 212 178 258 124 c 0
 265 118 273 113 280 108 c 1
 280 442 l 1
 265 428 l 1
431 535 m 2
 428 535 424 536 420 536 c 0
 390 536 352 509 320 482 c 1
 320 86 l 1
 333 81 347 75 361 72 c 1
 361 465 l 1
 431 535 l 2
489 491 m 1
 489 346 l 1
 529 386 l 2
 548 405 578 428 610 428 c 0
 627 428 641 423 652 412 c 2
 681 383 l 2
 705 359 714 308 714 235 c 0
 714 185 693 143 661 111 c 2
 562 12 l 2
 513 -37 437 -64 365 -64 c 0
 283 -64 219 -37 173 9 c 2
 144 38 l 2
 89 93 61 174 61 265 c 0
 61 377 129 466 180 517 c 2
 279 616 l 2
 280 616 l 2
 280 620 l 1
 283 620 l 1
 312 648 335 664 335 664 c 1
 364 635 l 1
 320 592 l 1
 320 543 l 1
 357 579 l 2
 358 580 l 0
 390 612 448 664 490 664 c 0
 512 664 523 659 531 651 c 2
 560 622 l 2
 560 621 l 2
 561 620 563 618 564 617 c 0
 570 615 576 614 585 614 c 0
 599 614 611 619 621 624 c 2
 661 664 l 2
 690 635 l 2
 688 633 682 622 671 611 c 2
 572 512 l 2
 559 499 540 486 515 486 c 0
 503 486 495 488 489 491 c 1
489 282 m 1
 489 135 l 1
 418 64 l 1
 423 64 429 64 435 64 c 0
 482 64 530 75 572 97 c 1
 581 117 586 140 586 165 c 0
 586 223 581 267 566 295 c 1
 559 298 550 300 540 300 c 0
 522 300 504 292 489 282 c 1
EndSplineSet
EndChar
StartChar: H
Encoding: 72 72 40
Width: 700
Flags: W
HStem: -64 21G<-5 35 220 260 545 585> -14 128<113.505 179.559> 486 21G<-5 35> 536 128<82.5 177>
VStem: 180 40<114 513> 261 128<101 235 293 515> 486 128<64.2805 290>
AnchorPoint: "blwmark" 400 0 basechar 0
AnchorPoint: "abvmark" 400 700 basechar 0
LayerCount: 2
Back
SplineSet
50 550 m 5
 50 550 84 600 124 600 c 7
 160 600 178 575 200 575 c 7
 228 575 250 600 251 600 c 1029
200 550 m 5
 200 75 l 1029
375 250 m 5
 500 375 l 5
 550 325 l 5
 550 50 l 5
 600 0 l 13
 650 50 l 1053
375 600 m 5
 325 550 l 5
 325 50 l 5
 275 0 l 5
 275 0 248 50 150 50 c 7
 81 50 50 0 50 0 c 1037
EndSplineSet
Fore
SplineSet
410 664 m 1
 439 635 l 1
 389 585 l 1
 389 293 l 1
 535 439 l 1
 614 360 l 1
 614 85 l 2
 614 75 629 70 635 64 c 1
 685 114 l 1
 714 85 l 1
 565 -64 l 1
 486 15 l 1
 486 290 l 1
 465 311 l 1
 389 235 l 1
 389 85 l 1
 240 -64 l 1
 217 -41 l 1
 198 -28 166 -14 115 -14 c 0
 83 -14 58 -26 42 -37 c 2
 15 -64 l 1
 -14 -35 l 2
 -14 -35 -10 -29 -2 -21 c 2
 -2 -20 l 2
 97 79 l 2
 111 93 139 112 180 114 c 1
 180 513 l 1
 175 512 170 511 165 511 c 0
 143 511 125 536 89 536 c 0
 76 536 63 530 52 523 c 2
 15 486 l 1
 -14 515 l 1
 -14 515 -7 525 4 536 c 2
 103 635 l 2
 117 649 137 664 159 664 c 0
 195 664 213 639 235 639 c 0
 263 639 285 664 286 664 c 2
 315 635 l 1
 220 541 l 1
 220 112 l 1
 236 110 250 106 261 101 c 1
 261 515 l 1
 410 664 l 1
EndSplineSet
EndChar
StartChar: I
Encoding: 73 73 41
Width: 450
Flags: W
HStem: -64 21G<-5 35 220 260> -14 128<113.505 179.559> 486 21G<-5 35> 536 128<82.5 177>
VStem: 180 40<114 513> 261 128<101 515>
AnchorPoint: "blwmark" 250 0 basechar 0
AnchorPoint: "abvmark" 250 700 basechar 0
LayerCount: 2
Back
SplineSet
50 550 m 1
 50 550 84 600 124 600 c 3
 160 600 178 575 200 575 c 3
 228 575 250 600 251 600 c 1025
200 550 m 1
 200 75 l 1025
375 600 m 1
 325 550 l 1
 325 50 l 1
 275 0 l 17
 275 0 248 50 150 50 c 3
 81 50 50 0 50 0 c 1033
EndSplineSet
Fore
SplineSet
410 664 m 1
 439 635 l 1
 389 585 l 1
 389 85 l 1
 240 -64 l 1
 217 -41 l 1
 198 -28 166 -14 115 -14 c 0
 83 -14 58 -26 42 -37 c 2
 15 -64 l 1
 -14 -35 l 2
 -14 -35 -10 -29 -2 -21 c 2
 -2 -20 l 2
 97 79 l 2
 111 93 139 112 180 114 c 1
 180 513 l 1
 175 512 170 511 165 511 c 0
 143 511 125 536 89 536 c 0
 76 536 63 530 52 523 c 2
 15 486 l 1
 -14 515 l 1
 -14 515 -7 525 4 536 c 2
 103 635 l 2
 117 649 137 664 159 664 c 0
 195 664 213 639 235 639 c 0
 263 639 285 664 286 664 c 2
 315 635 l 1
 220 541 l 1
 220 112 l 1
 236 110 250 106 261 101 c 1
 261 515 l 1
 410 664 l 1
EndSplineSet
EndChar
StartChar: K
Encoding: 75 75 43
Width: 700
Flags: W
HStem: -64 21G<-5 35 220 260> -14 128<113.505 179.559> 486 1G<-5 35 610 650> 536 128<82.5 177>
VStem: 180 40<114 513> 261 128<101 235 293 515> 461 128<435 495> 486 128<56.9658 190>
AnchorPoint: "blwmark" 400 0 basechar 0
AnchorPoint: "abvmark" 450 700 basechar 0
LayerCount: 2
Back
SplineSet
50 550 m 1
 50 550 84 600 124 600 c 3
 160 600 178 575 200 575 c 3
 228 575 250 600 251 600 c 1025
200 550 m 1
 200 75 l 1025
375 250 m 1
 525 400 l 1
 525 530 l 1
 595 600 l 9
 665 530 l 1049
450 325 m 1
 550 225 l 1
 550 50 l 5
 620 -20 l 13
 690 50 l 1053
375 600 m 1
 325 550 l 1
 325 50 l 1
 275 0 l 1
 275 0 248 50 150 50 c 3
 81 50 50 0 50 0 c 1033
EndSplineSet
Fore
SplineSet
410 664 m 1xfd
 439 635 l 1
 389 585 l 1
 389 293 l 1
 461 365 l 1
 461 495 l 1
 630 664 l 1
 729 565 l 1
 630 466 l 1
 589 507 l 1
 589 435 l 1xfe
 514 360 l 1
 614 260 l 1
 614 85 l 2
 614 63 643 56 655 44 c 1
 725 114 l 1
 754 85 l 1
 585 -84 l 1
 486 15 l 1
 486 190 l 1
 415 261 l 1
 389 235 l 1
 389 85 l 1
 240 -64 l 1
 217 -41 l 1
 198 -28 166 -14 115 -14 c 0
 83 -14 58 -26 42 -37 c 2
 15 -64 l 1
 -14 -35 l 2
 -14 -35 -10 -29 -2 -21 c 2
 -2 -20 l 2
 97 79 l 2
 111 93 139 112 180 114 c 1
 180 513 l 1
 175 512 170 511 165 511 c 0
 143 511 125 536 89 536 c 0
 76 536 63 530 52 523 c 2
 15 486 l 1
 -14 515 l 1
 -14 515 -7 525 4 536 c 2
 103 635 l 2
 117 649 137 664 159 664 c 0
 195 664 213 639 235 639 c 0
 263 639 285 664 286 664 c 2
 315 635 l 1
 220 541 l 1
 220 112 l 1
 236 110 250 106 261 101 c 1
 261 515 l 1
 410 664 l 1xfd
EndSplineSet
EndChar
StartChar: M
Encoding: 77 77 45
Width: 900
Flags: W
HStem: -64 21G<-5 35 220 260 495 535 720 760> -14 126<110.546 179.559> 486 21G<-5 35> 536 128<82.5 177>
VStem: 180 40<114 513> 261 128<101 487> 436 128<85 469.525> 661 128<88 484.342>
AnchorPoint: "blwmark" 450 0 basechar 0
AnchorPoint: "abvmark" 500 700 basechar 0
LayerCount: 2
Back
SplineSet
825 50 m 29
 775 0 l 21
 725 50 l 5
 725 475 l 5
 600 600 l 5
 500 500 l 1029
50 550 m 5
 50 550 84 600 124 600 c 7
 160 600 178 575 200 575 c 7
 228 575 250 600 251 600 c 1029
200 550 m 1
 200 75 l 1025
600 50 m 29
 550 0 l 21
 500 50 l 5
 500 475 l 5
 375 600 l 5
 325 550 l 5
 325 50 l 5
 275 0 l 5
 275 0 248 50 150 50 c 7
 81 50 50 0 50 0 c 1037
EndSplineSet
Fore
SplineSet
15 486 m 1
 -14 515 l 1
 -14 515 -7 525 4 536 c 2
 103 635 l 2
 117 649 137 664 159 664 c 0
 195 664 213 639 235 639 c 0
 263 639 285 664 286 664 c 2
 315 635 l 1
 220 541 l 1
 220 112 l 1
 236 110 250 106 261 101 c 1
 261 515 l 1
 410 664 l 1
 523 551 l 1
 635 664 l 1
 789 510 l 1
 789 85 l 1
 810 64 l 1
 860 114 l 1
 889 85 l 1
 740 -64 l 1
 661 15 l 1
 661 82 l 1
 515 -64 l 1
 436 15 l 1
 436 440 l 2
 436 465 403 473 389 487 c 1
 389 85 l 1
 240 -64 l 1
 217 -41 l 1
 198 -28 166 -14 115 -14 c 0
 83 -14 58 -26 42 -37 c 2
 15 -64 l 1
 -14 -35 l 2
 -14 -35 -10 -29 -2 -21 c 2
 -2 -20 l 2
 97 79 l 2
 111 93 139 112 180 114 c 1
 180 513 l 1
 175 512 170 511 165 511 c 0
 143 511 125 536 89 536 c 0
 76 536 63 530 52 523 c 2
 15 486 l 1
551 523 m 1
 564 510 l 1
 564 85 l 1
 585 64 l 1
 635 114 l 1
 661 88 l 1
 661 440 l 2
 661 492 593 508 565 536 c 1
 551 523 l 1
EndSplineSet
EndChar
StartChar: N
Encoding: 78 78 46
Width: 750
Flags: W
HStem: -64 21G<-5 35 220 260 545 585> -14 128<113.506 179.559> 486 21G<-5 35> 536 128<82.5 177>
VStem: 180 40<114 513> 261 128<101 501> 486 128<64.2805 432>
AnchorPoint: "blwmark" 400 0 basechar 0
AnchorPoint: "abvmark" 400 700 basechar 0
LayerCount: 2
Back
SplineSet
50 550 m 5
 50 550 84 600 124 600 c 7
 160 600 178 575 200 575 c 7
 228 575 250 600 251 600 c 1029
200 550 m 5
 200 75 l 1029
50 0 m 21
 50 0 81 50 150 50 c 7
 248 50 275 0 275 0 c 5
 325 50 l 5
 325 550 l 5
 375 600 l 5
 550 475 l 5
 550 50 l 5
 600 0 l 13
 650 50 l 1053
EndSplineSet
Fore
SplineSet
15 -64 m 1
 -14 -35 l 1
 -14 -35 -10 -28 -2 -20 c 2
 97 79 l 2
 111 93 139 112 180 114 c 1
 180 513 l 1
 175 512 170 511 165 511 c 0
 143 511 125 536 89 536 c 0
 76 536 63 530 52 523 c 2
 15 486 l 1
 -14 515 l 1
 -14 515 -7 525 4 536 c 2
 103 635 l 2
 117 649 137 664 159 664 c 0
 195 664 213 639 235 639 c 0
 263 639 285 664 286 664 c 2
 315 635 l 1
 220 541 l 1
 220 112 l 1
 236 110 250 105 261 101 c 1
 261 515 l 1
 410 664 l 1
 585 539 l 1
 614 510 l 1
 614 85 l 2
 614 75 629 70 635 64 c 1
 685 114 l 1
 714 85 l 1
 565 -64 l 1
 486 15 l 1
 486 432 l 1
 389 501 l 1
 389 85 l 1
 240 -64 l 1
 217 -41 l 1
 198 -28 166 -14 115 -14 c 0
 83 -14 59 -25 42 -37 c 2
 15 -64 l 1
EndSplineSet
EndChar
StartChar: S
Encoding: 83 83 51
Width: 700
Flags: MW
AnchorPoint: "blwmark" 350 0 basechar 0
AnchorPoint: "abvmark" 350 700 basechar 0
LayerCount: 4
Fore
SplineSet
550 525 m 25
 123 100 l 1049
430 149 m 5
 80 270 l 13
 150 375 l 1049
600 600 m 1
 600 600 514 550 450 550 c 3
 379 550 200 600 200 600 c 1
 100 500 l 1
 100 440 l 1
 600 260 l 1
 600 100 l 1
 500 0 l 1
 500 0 270 50 200 50 c 3
 127 50 50 0 50 0 c 1025
EndSplineSet
EndChar
StartChar: T
Encoding: 84 84 52
Width: 700
Flags: W
HStem: -64 21G<282 362> 536 128<199 303>
VStem: 61 128<162.255 295.792> 254 42<99 426> 336 128<135 415>
AnchorPoint: "blwmark" 350 0 basechar 0
AnchorPoint: "abvmark" 400 700 basechar 0
LayerCount: 2
Back
SplineSet
275 450 m 1
 275 100 l 1049
400 450 m 1
 400 100 l 1049
250 450 m 1
 250 450 125 356 125 250 c 3
 125 84 214 0 350 0 c 3
 469 0 601 150 602 150 c 1049
100 500 m 17
 100 500 180 600 250 600 c 27
 330 600 348 500 428 500 c 19
 505 500 575 600 576 600 c 1033
EndSplineSet
Fore
SplineSet
65 436 m 1
 36 465 l 1
 36 465 47 478 64 495 c 2
 163 594 l 2
 192 623 241 664 285 664 c 0
 321 664 344 644 366 622 c 2
 391 598 l 2
 411 579 432 564 463 564 c 0
 491 564 517 577 540 593 c 1
 611 664 l 2
 640 635 l 1
 637 632 624 615 605 595 c 2
 506 496 l 2
 494 484 480 472 464 461 c 1
 464 135 l 1
 393 64 l 1
 473 69 559 139 604 181 c 2
 637 214 l 1
 666 185 l 1
 664 183 l 2
 662 180 657 176 649 168 c 2
 649 167 l 1
 550 68 l 2
 510 28 409 -64 315 -64 c 0
 249 -64 195 -44 156 -5 c 2
 127 24 l 2
 85 66 61 129 61 215 c 0
 61 282 110 344 147 381 c 2
 246 480 l 2
 249 483 251 486 254 488 c 2
 254 520 l 1
 266 520 l 1
 252 530 235 536 215 536 c 0
 183 536 150 516 122 493 c 2
 65 436 l 1
309 480 m 1
 296 467 l 1
 296 79 l 1
 309 74 322 70 336 68 c 1
 336 415 l 1
 362 441 l 1
 342 448 328 462 313 477 c 2
 312 478 l 1
 309 480 l 1
254 426 m 1
 241 412 l 1
 213 376 189 332 189 285 c 0
 189 209 208 150 241 109 c 0
 245 105 249 102 254 99 c 1
 254 426 l 1
EndSplineSet
EndChar
StartChar: U
Encoding: 85 85 53
Width: 700
Flags: W
HStem: -64 21G<580 620> 486 21G<-5 35> 536 128<82.5 190.134>
VStem: 61 128<162.255 358.745> 254 42<99 513> 336 128<135 511> 536 128<111.172 183 187 555>
AnchorPoint: "blwmark" 350 0 basechar 0
AnchorPoint: "abvmark" 450 700 basechar 0
LayerCount: 2
Back
SplineSet
400 550 m 1
 400 100 l 1025
565 70 m 25
 635 0 l 25
 705 70 l 1049
565 625 m 25
 635 555 l 1049
600 590 m 9
 600 35 l 1049
250 550 m 1
 250 550 125 466 125 250 c 3
 125 84 214 0 350 0 c 3
 469 0 601 150 602 150 c 1049
50 550 m 1
 50 550 84 600 124 600 c 3
 204 600 228 575 400 575 c 3
 428 575 450 600 451 600 c 1025
275 525 m 1
 275 50 l 1025
EndSplineSet
Fore
SplineSet
15 486 m 1
 -14 515 l 1
 -14 515 -7 525 4 536 c 2
 103 635 l 2
 117 649 137 664 159 664 c 0
 239 664 263 639 435 639 c 0
 463 639 485 664 486 664 c 2
 515 635 l 1
 464 584 l 1
 464 135 l 1
 393 64 l 1
 442 67 494 95 536 125 c 1
 536 555 l 1
 501 590 l 1
 600 689 l 1
 635 654 l 1
 664 625 l 1
 699 590 l 1
 664 555 l 1
 664 187 l 1
 666 185 l 1
 664 183 l 2
 664 70 l 1
 670 64 l 1
 740 134 l 1
 769 105 l 1
 600 -64 l 1
 565 -29 l 1
 536 -0 l 1
 507 29 l 1
 457 -13 384 -64 315 -64 c 0
 249 -64 195 -44 156 -5 c 2
 127 24 l 2
 85 66 61 129 61 215 c 0
 61 371 127 459 163 495 c 2
 192 524 l 1
 155 530 129 536 89 536 c 0
 76 536 63 530 52 523 c 2
 15 486 l 1
296 513 m 1
 296 79 l 1
 309 74 322 70 336 68 c 1
 336 511 l 1
 321 511 308 512 296 513 c 1
254 515 m 2
 253 515 252 516 251 516 c 0
 220 468 189 393 189 285 c 0
 189 209 208 150 241 109 c 0
 245 105 249 102 254 99 c 1
 254 515 l 2
EndSplineSet
EndChar
StartChar: V
Encoding: 86 86 54
Width: 700
Flags: W
HStem: -64 21G<320 360> 486 21G<-5 35> 536 128<82.5 177>
VStem: 180 40<214 513> 261 128<285 515> 436 128<432 516> 511 128<236 367.015>
AnchorPoint: "blwmark" 375 0 basechar 0
AnchorPoint: "abvmark" 450 700 basechar 0
LayerCount: 2
Back
SplineSet
50 550 m 5
 50 550 84 600 124 600 c 7
 160 600 178 575 200 575 c 7
 228 575 250 600 251 600 c 1029
200 550 m 5
 200 175 l 1029
325 250 m 5
 325 550 l 5
 375 600 l 1029
100 100 m 21
 100 100 138 150 175 150 c 7
 374 150 375 0 375 0 c 5
 575 201 l 5
 575 415 l 5
 575 415 500 419 500 475 c 7
 500 530 600 600 600 600 c 1029
EndSplineSet
Fore
SplineSet
65 36 m 1xfa
 36 65 l 1
 36 65 42 73 51 82 c 2
 150 181 l 2
 151 182 l 0
 159 190 169 198 180 204 c 1
 180 513 l 1
 175 512 170 511 165 511 c 0
 143 511 125 536 89 536 c 0
 76 536 63 530 52 523 c 2
 15 486 l 1
 -14 515 l 1
 -14 515 -7 525 4 536 c 2
 103 635 l 2
 117 649 137 664 159 664 c 0
 195 664 213 639 235 639 c 0
 263 639 285 664 286 664 c 2
 315 635 l 1
 220 541 l 1
 220 214 l 1
 237 214 253 211 267 209 c 1
 261 215 l 1
 261 515 l 1
 410 664 l 1
 439 635 l 1
 389 585 l 1
 389 285 l 1
 304 200 l 1
 331 190 352 176 367 161 c 2
 396 132 l 2
 412 116 422 99 428 83 c 1
 511 166 l 1
 511 357 l 1xfa
 500 361 488 366 479 375 c 2
 450 404 l 2
 441 413 436 424 436 440 c 0
 436 466 459 496 483 520 c 2
 582 619 l 2
 608 645 635 664 635 664 c 1
 664 635 l 1
 576 547 l 2
 569 535 564 522 564 510 c 0xfc
 564 503 566 495 568 490 c 0
 588 480 610 479 610 479 c 1
 639 450 l 1
 639 236 l 1
 439 35 l 1
 340 -64 l 1
 311 -35 l 1
 311 -35 311 -30 310 -21 c 0
 307 -5 300 22 281 47 c 1
 252 69 207 86 140 86 c 0
 125 86 111 79 97 68 c 2
 65 36 l 1xfa
EndSplineSet
EndChar
StartChar: W
Encoding: 87 87 55
Width: 1000
Flags: W
HStem: -64 21G<320 360 620 660> 486 21G<-5 35> 536 128<82.5 177>
VStem: 180 40<214 513> 261 128<285 515> 511 128<236 530> 736 128<432 516> 811 128<236 366.673>
AnchorPoint: "blwmark" 550 0 basechar 0
AnchorPoint: "abvmark" 575 700 basechar 0
LayerCount: 2
Back
SplineSet
540 600 m 29
 610 530 l 1053
50 550 m 1
 50 550 84 600 124 600 c 3
 160 600 178 575 200 575 c 3
 228 575 250 600 251 600 c 1025
200 550 m 1
 200 175 l 1025
325 250 m 1
 325 550 l 1
 375 600 l 1025
100 100 m 17
 100 100 138 150 175 150 c 3
 374 150 375 0 375 0 c 1
 575 201 l 1
 575 565 l 1029
900 600 m 1
 900 600 800 530 800 475 c 3
 800 419 875 415 875 415 c 1
 875 201 l 1
 675 0 l 1
 575 201 l 1049
EndSplineSet
Fore
SplineSet
964 635 m 1xfe
 876 547 l 2
 868 534 864 522 864 510 c 0xfe
 864 503 866 495 868 490 c 0
 889 480 910 479 910 479 c 2
 939 450 l 1
 939 236 l 1
 739 35 l 1
 640 -64 l 1
 611 -35 l 1
 530 127 l 1
 439 35 l 1
 340 -64 l 1
 311 -35 l 1
 311 -35 311 -30 310 -21 c 0
 307 -5 300 22 281 47 c 1
 252 69 207 86 140 86 c 0
 125 86 111 79 97 68 c 2
 65 36 l 1
 36 65 l 1
 36 65 42 73 51 82 c 2
 150 181 l 2
 151 182 l 0
 159 190 169 198 180 204 c 1
 180 513 l 1
 175 512 170 511 165 511 c 0
 143 511 125 536 89 536 c 0
 76 536 63 530 52 523 c 2
 15 486 l 1
 -14 515 l 1
 -14 515 -7 525 4 536 c 2
 103 635 l 2
 117 649 137 664 159 664 c 0
 195 664 213 639 235 639 c 0
 263 639 285 664 286 664 c 2
 315 635 l 1
 220 541 l 1
 220 214 l 1
 237 214 253 211 267 209 c 1
 261 215 l 1
 261 515 l 1
 410 664 l 1
 439 635 l 1
 389 585 l 1
 389 285 l 1
 304 200 l 1
 331 190 352 176 367 161 c 2
 396 132 l 2
 412 116 422 99 428 83 c 1
 511 166 l 1
 511 530 l 1
 476 565 l 1
 575 664 l 1
 610 629 l 1
 639 600 l 1
 674 565 l 1
 639 530 l 1
 639 236 l 1
 720 74 l 1
 811 166 l 1
 811 357 l 1xfd
 801 360 789 365 780 374 c 0
 780 375 l 2
 779 375 l 1
 750 404 l 2
 741 413 736 424 736 440 c 0
 736 466 758 495 782 519 c 0
 783 520 l 2
 882 619 l 2
 908 645 935 664 935 664 c 1
 964 635 l 1xfe
EndSplineSet
EndChar
StartChar: Z
Encoding: 90 90 58
Width: 700
Flags: MW
AnchorPoint: "blwmark" 300 0 basechar 0
AnchorPoint: "abvmark" 350 700 basechar 0
LayerCount: 4
Fore
SplineSet
150 275 m 29
 150 275 206 325 250 325 c 31
 329 325 371 300 450 300 c 31
 494 300 550 350 550 350 c 1053
625 100 m 1
 525 0 l 1
 525 0 448 50 200 50 c 3
 127 50 50 0 50 0 c 1
 600 600 l 1
 600 600 514 550 450 550 c 3
 240 550 100 600 100 600 c 1025
EndSplineSet
EndChar
StartChar: bracketleft
Encoding: 91 91 59
Width: 300
Flags: W
HStem: -214 21G<45 235>
VStem: 36 128<-86 636>
LayerCount: 2
Back
SplineSet
250 700 m 25
 100 700 l 25
 100 -150 l 25
 250 -150 l 1033
EndSplineSet
Fore
SplineSet
314 735 m 1
 215 636 l 1
 164 636 l 1
 164 -86 l 1
 285 -86 l 1
 314 -115 l 1
 215 -214 l 1
 65 -214 l 1
 36 -185 l 1
 36 665 l 1
 135 764 l 1
 285 764 l 1
 314 735 l 1
EndSplineSet
EndChar
StartChar: bracketright
Encoding: 93 93 61
Width: 300
Flags: W
HStem: -214 21G<-5 185>
VStem: 136 128<-86 636>
LayerCount: 2
Back
SplineSet
50 700 m 25
 200 700 l 29
 200 -150 l 29
 50 -150 l 1033
EndSplineSet
Fore
SplineSet
-14 665 m 1
 85 764 l 1
 235 764 l 1
 264 735 l 1
 264 -115 l 1
 165 -214 l 1
 15 -214 l 1
 -14 -185 l 1
 85 -86 l 1
 136 -86 l 1
 136 636 l 1
 15 636 l 1
 -14 665 l 1
EndSplineSet
EndChar
StartChar: underscore
Encoding: 95 95 63
Width: 700
Flags: W
HStem: -214 128<135 565>
LayerCount: 2
Back
SplineSet
100 -150 m 25
 600 -150 l 1053
EndSplineSet
Fore
SplineSet
36 -185 m 1
 135 -86 l 1
 635 -86 l 1
 664 -115 l 1
 565 -214 l 1
 65 -214 l 1
 36 -185 l 1
EndSplineSet
EndChar
StartChar: grave
Encoding: 96 96 64
Width: 400
Flags: W
HStem: 486 278
VStem: 61 278
LayerCount: 2
Back
SplineSet
125 700 m 17
 125 600 275 550 275 550 c 1049
EndSplineSet
Fore
SplineSet
160 764 m 1
 189 735 l 1
 189 709 200 685 215 666 c 1
 258 631 310 614 310 614 c 1
 339 585 l 1
 240 486 l 1
 240 486 173 509 129 553 c 2
 100 582 l 2
 78 604 61 632 61 665 c 1
 160 764 l 1
EndSplineSet
EndChar
StartChar: a
Encoding: 97 97 65
Width: 400
Flags: W
HStem: 444 20G<190 310> 444 20G<190 310>
VStem: 236 128<90 161 297 317>
AnchorPoint: "blwmark" 200 0 basechar 0
AnchorPoint: "abvmark" 225 500 basechar 0
LayerCount: 2
Back
SplineSet
125 250 m 17
 100 325 l 1
 175 400 l 1
 300 375 l 1
 300 25 l 1
 325 0 l 1
 375 50 l 1049
300 125 m 25
 175 0 l 1
 100 75 l 1
 100 175 l 1
 175 250 l 1
 175 250 193.964297096 225 250 225 c 3
 269.004218286 225 300 225 300 225 c 1033
EndSplineSet
Fore
SplineSet
187 291 m 1x20
 210 314 l 1
 214 310 l 2
 218 306 225 301 236 297 c 1
 236 317 l 1
 174 329 l 1
 187 291 l 1x20
236 32 m 1
 140 -64 l 1
 36 40 l 1
 36 140 l 1
 86 190 l 1
 61 215 l 1
 36 290 l 1
 210 464 l 1xa0
 335 439 l 1
 364 410 l 1
 364 260 l 1
 364 160 l 1
 364 68 l 1
 410 114 l 1
 439 85 l 1
 290 -64 l 1
 236 -10 l 1
 236 32 l 1
236 161 m 1
 215 161 l 2
 192 161 176 165 164 170 c 1
 164 110 l 1
 210 64 l 1
 236 90 l 1
 236 161 l 1
EndSplineSet
Substitution2: "Stylistic alternates-1" ascript
EndChar
StartChar: b
Encoding: 98 98 66
Width: 400
Flags: MW
AnchorPoint: "blwmark" 200 0 basechar 0
AnchorPoint: "abvmark" 200 700 basechar 0
LayerCount: 4
Fore
SplineSet
65 625 m 29
 135 555 l 1053
100 590 m 13
 100 100 l 25
 200 0 l 25
 300 100 l 25
 300 300 l 25
 200 400 l 1
 100 300 l 1049
EndSplineSet
EndChar
StartChar: c
Encoding: 99 99 67
Width: 350
Flags: MW
AnchorPoint: "blwmark" 200 0 basechar 0
AnchorPoint: "abvmark" 200 500 basechar 0
LayerCount: 4
Fore
SplineSet
300 300 m 9
 200 400 l 25
 100 300 l 25
 100 100 l 25
 200 0 l 25
 300 100 l 1041
EndSplineSet
EndChar
StartChar: e
Encoding: 101 101 69
Width: 350
Flags: W
HStem: 444 20G<215 255> 444 20G<215 255>
VStem: 36 128<193 265>
AnchorPoint: "blwmark" 200 0 basechar 0
AnchorPoint: "abvmark" 200 500 basechar 0
LayerCount: 2
Back
SplineSet
300 100 m 13
 200 0 l 29
 100 100 l 29
 100 300 l 29
 200 400 l 29
 300 300 l 5
 100 100 l 1053
EndSplineSet
Fore
SplineSet
164 193 m 1x20
 236 265 l 1
 165 336 l 1
 164 335 l 1
 164 193 l 1x20
164 135 m 1
 235 64 l 1
 335 164 l 1
 364 135 l 1
 165 -64 l 1
 36 65 l 1
 36 265 l 1
 235 464 l 1xa0
 364 335 l 1
 164 135 l 1
EndSplineSet
EndChar
StartChar: g
Encoding: 103 103 71
Width: 400
Flags: MW
AnchorPoint: "abvmark" 225 500 basechar 0
LayerCount: 4
Fore
SplineSet
50 -200 m 17
 50 -200 87 -150 125 -150 c 8
 156 -150 193 -200 225 -200 c 24
 253 -200 300 -150 300 -150 c 9
 300 400 l 1
 300 400 278 360 250 360 c 24
 222 360 200 400 200 400 c 1
 100 300 l 25
 100 100 l 25
 200 0 l 25
 300 100 l 1041
EndSplineSet
EndChar
StartChar: j
Encoding: 106 106 74
Width: 200
Flags: W
HStem: 444 20G<80 120> 444 20G<80 120> 466 21G<35 75>
VStem: 36 128<-65 330>
LayerCount: 2
Back
SplineSet
90 670 m 25
 160 600 l 25
 90 530 l 1049
135 330 m 25
 65 400 l 25
 -5 330 l 1049
100 365 m 1
 100 -100 l 9
 30 -170 l 1049
EndSplineSet
Fore
SplineSet
135 429 m 1xb0
 164 400 l 1
 199 365 l 1
 164 330 l 1
 164 -65 l 1
 -5 -234 l 1
 -34 -205 l 1
 36 -135 l 1
 36 330 l 1
 30 336 l 1
 -40 266 l 1
 -69 295 l 1
 100 464 l 1
 135 429 l 1xb0
26 635 m 1
 125 734 l 1
 224 635 l 1
 55 466 l 1
 26 495 l 1
 96 565 l 1
 26 635 l 1
EndSplineSet
Substitution2: "Dotless forms-1" dotlessj
EndChar
StartChar: l
Encoding: 108 108 76
Width: 200
Flags: W
HStem: 679 20G<80 120>
VStem: 36 128<70 565>
AnchorPoint: "blwmark" 100 0 basechar 0
AnchorPoint: "abvmark" 100 700 basechar 0
LayerCount: 2
Back
SplineSet
65 70 m 25
 135 0 l 25
 205 70 l 1049
65 635 m 25
 135 565 l 1049
100 600 m 9
 100 35 l 1049
EndSplineSet
Fore
SplineSet
135 664 m 1
 164 635 l 1
 199 600 l 1
 164 565 l 1
 164 70 l 1
 170 64 l 1
 240 134 l 1
 269 105 l 1
 100 -64 l 1
 65 -29 l 1
 36 -0 l 1
 1 35 l 1
 36 70 l 1
 36 565 l 1
 1 600 l 1
 100 699 l 1
 135 664 l 1
EndSplineSet
EndChar
StartChar: m
Encoding: 109 109 77
Width: 600
Flags: MW
AnchorPoint: "blwmark" 300 0 basechar 0
AnchorPoint: "abvmark" 300 500 basechar 0
LayerCount: 4
Fore
SplineSet
465 70 m 25
 535 0 l 1049
500 35 m 1
 500 325 l 25
 425 400 l 1
 300 275 l 1049
265 70 m 25
 335 0 l 1049
300 35 m 1
 300 325 l 25
 225 400 l 1
 100 275 l 1049
65 70 m 25
 135 0 l 1049
135 330 m 29
 65 400 l 1053
100 365 m 13
 100 35 l 1025
EndSplineSet
Substitution2: "Stylistic alternates-1" m.alt
EndChar
StartChar: o
Encoding: 111 111 79
Width: 400
Flags: W
HStem: 444 20G<215 255> 444 20G<215 255>
VStem: 36 128<98.1606 265> 236 128<135 301.839>
AnchorPoint: "blwmark" 200 0 basechar 0
AnchorPoint: "abvmark" 200 500 basechar 0
LayerCount: 2
Back
SplineSet
200 400 m 29
 100 300 l 29
 100 100 l 29
 200 0 l 29
 300 100 l 29
 300 300 l 29
 200 400 l 29
EndSplineSet
Fore
SplineSet
165 336 m 1x30
 164 335 l 1
 164 135 l 2
 164 97 214 85 235 64 c 1
 236 65 l 1
 236 265 l 2
 236 303 186 315 165 336 c 1x30
36 265 m 1
 235 464 l 1xb0
 364 335 l 1
 364 135 l 1
 165 -64 l 1
 36 65 l 1
 36 265 l 1
EndSplineSet
EndChar
StartChar: p
Encoding: 112 112 80
Width: 400
Flags: MW
AnchorPoint: "abvmark" 200 500 basechar 0
LayerCount: 4
Fore
SplineSet
50 0 m 1
 50 0 96 50 125 50 c 0
 154 50 200 0 200 0 c 9
 300 100 l 1
 300 300 l 25
 200 400 l 1
 100 300 l 1049
65 400 m 29
 135 330 l 1053
100 365 m 5
 100 -150 l 1025
EndSplineSet
EndChar
StartChar: r
Encoding: 114 114 82
Width: 300
Flags: W
HStem: 444 20G<80 120 215.294 255> 444 20G<80 120 215.294 255>
VStem: 36 128<70 330>
AnchorPoint: "blwmark" 150 0 basechar 0
AnchorPoint: "abvmark" 150 500 basechar 0
LayerCount: 2
Back
SplineSet
250 350 m 25
 200 400 l 25
 100 300 l 1049
65 70 m 25
 135 0 l 1049
65 400 m 25
 135 330 l 1049
100 365 m 9
 100 35 l 1025
EndSplineSet
Fore
SplineSet
135 429 m 1xa0
 164 400 l 1
 168 396 l 1
 235 464 l 1
 314 385 l 1
 215 286 l 1
 167 334 l 1
 164 330 l 1
 164 70 l 1
 199 35 l 1
 100 -64 l 1
 65 -29 l 1
 36 -0 l 1
 1 35 l 1
 36 70 l 1
 36 265 l 1
 36 330 l 1
 1 365 l 1
 100 464 l 1
 135 429 l 1xa0
EndSplineSet
EndChar
StartChar: u
Encoding: 117 117 85
Width: 400
Flags: MW
AnchorPoint: "blwmark" 200 0 basechar 0
AnchorPoint: "abvmark" 200 500 basechar 0
LayerCount: 4
Fore
SplineSet
135 330 m 25
 65 400 l 1049
375 50 m 25
 325 0 l 1
 300 25 l 17
 300 365 l 1025
335 330 m 25
 265 400 l 1049
100 365 m 25
 100 75 l 1
 175 0 l 25
 300 125 l 1049
EndSplineSet
EndChar
StartChar: w
Encoding: 119 119 87
Width: 600
Flags: MW
AnchorPoint: "blwmark" 300 0 basechar 0
LayerCount: 4
Fore
SplineSet
335 330 m 25
 265 400 l 1049
300 365 m 25
 300 100 l 1
 400 0 l 25
 500 100 l 1
 500 375 l 25
 480 413 450 423 450 472 c 8
 450 509 505 550 505 550 c 1033
135 330 m 25
 65 400 l 1049
100 365 m 25
 100 100 l 1
 200 0 l 25
 300 100 l 1025
EndSplineSet
Substitution2: "Dotless forms-1" w.alt
EndChar
StartChar: x
Encoding: 120 120 88
Width: 400
Flags: W
HStem: 444 20G<115 155 315 355> 444 20G<115 155 315 355>
AnchorPoint: "blwmark" 200 0 basechar 0
AnchorPoint: "abvmark" 200 500 basechar 0
LayerCount: 2
Back
SplineSet
75 175 m 25
 75 175 122 225 150 225 c 24
 194 225 206 175 250 175 c 24
 278 175 325 225 326 225 c 1049
200 300 m 9
 300 400 l 25
 350 350 l 1049
200 100 m 9
 300 0 l 1
 350 50 l 1049
50 350 m 25
 100 400 l 25
 200 300 l 25
 200 100 l 25
 100 0 l 25
 50 50 l 1049
EndSplineSet
Fore
SplineSet
15 286 m 1x80
 -14 315 l 1
 135 464 l 1
 235 364 l 1
 335 464 l 1
 414 385 l 1
 315 286 l 1
 265 336 l 1
 264 335 l 1
 264 243 l 1
 270 240 277 239 285 239 c 0
 313 239 360 289 361 289 c 2
 390 260 l 1
 291 161 l 2
 291 161 279 149 264 137 c 1
 264 135 l 1
 335 64 l 1
 385 114 l 1
 414 85 l 1
 265 -64 l 1
 165 36 l 1
 65 -64 l 1
 -14 15 l 1
 85 114 l 1
 135 64 l 1
 136 65 l 1
 136 157 l 1
 130 160 123 161 115 161 c 0
 95 161 65 135 49 120 c 2
 40 111 l 1
 11 140 l 1
 11 140 12 141 15 144 c 2
 114 243 l 2
 119 248 127 255 136 263 c 1
 136 265 l 1
 65 336 l 1
 15 286 l 1x80
EndSplineSet
EndChar
StartChar: y
Encoding: 121 121 89
Width: 400
Flags: W
HStem: -214 128<82.5 177.5> 444 20G<80 120 280 320> 444 20G<80 120 280 320>
VStem: 36 128<135 330> 236 128<-130 7 65 330>
AnchorPoint: "abvmark" 200 500 basechar 0
LayerCount: 2
Back
SplineSet
135 330 m 25
 65 400 l 1049
335 330 m 29
 265 400 l 1053
50 -200 m 17
 50 -200 87 -150 125 -150 c 8
 169 -150 181 -200 225 -200 c 24
 260 -200 300 -150 300 -150 c 1
 300 365 l 1029
300 100 m 9
 200 0 l 25
 100 100 l 1
 100 365 l 1049
EndSplineSet
Fore
SplineSet
15 -264 m 1xd8
 -14 -235 l 1
 -14 -235 -8 -227 2 -217 c 2
 101 -118 l 2
 102 -117 l 0
 117 -102 138 -86 160 -86 c 0
 195 -86 210 -117 236 -130 c 1
 236 7 l 1
 165 -64 l 1
 36 65 l 1
 36 330 l 1
 1 365 l 1
 100 464 l 1
 135 429 l 1
 164 400 l 1
 199 365 l 1
 164 330 l 1
 164 135 l 1
 235 64 l 1
 236 65 l 1
 236 330 l 1
 201 365 l 1
 300 464 l 1
 335 429 l 1
 364 400 l 1
 399 365 l 1
 364 330 l 1
 364 135 l 1
 364 -115 l 2
 364 -115 359 -120 351 -129 c 2
 350 -130 l 2
 251 -229 l 2
 236 -244 212 -264 190 -264 c 0
 146 -264 134 -214 90 -214 c 0
 75 -214 61 -221 48 -231 c 2
 15 -264 l 1xd8
EndSplineSet
EndChar
StartChar: z
Encoding: 122 122 90
Width: 350
Flags: MW
AnchorPoint: "abvmark" 150 500 basechar 0
LayerCount: 4
Fore
SplineSet
50 400 m 17
 50 400 81 350 125 350 c 0
 153 350 200 400 200 400 c 1
 250 350 l 1
 100 200 l 1
 250 100 l 1
 250 -150 l 1
 250 -150 203 -200 175 -200 c 0
 143 -200 106 -150 75 -150 c 16
 37 -150 0 -200 0 -200 c 1025
EndSplineSet
EndChar
StartChar: braceleft
Encoding: 123 123 91
Width: 300
Flags: W
HStem: -214 21G<175 235>
VStem: 86 128<-51 151 385 565>
LayerCount: 2
Back
SplineSet
250 700 m 25
 150 600 l 1
 150 350 l 29
 50 250 l 29
 150 200 l 29
 150 -100 l 1
 250 -150 l 1049
EndSplineSet
Fore
SplineSet
285 764 m 1
 314 735 l 1
 214 635 l 1
 214 385 l 1
 124 295 l 1
 185 264 l 1
 214 235 l 1
 214 -51 l 1
 285 -86 l 1
 314 -115 l 1
 215 -214 l 1
 115 -164 l 1
 86 -135 l 1
 86 151 l 1
 15 186 l 1
 -14 215 l 1
 86 315 l 1
 86 565 l 1
 285 764 l 1
EndSplineSet
EndChar
StartChar: bar
Encoding: 124 124 92
Width: 250
Flags: W
HStem: -214 21G<70 110>
VStem: 61 128<-115 665>
LayerCount: 2
Back
SplineSet
125 -150 m 25
 125 700 l 1053
EndSplineSet
Fore
SplineSet
90 -214 m 1
 61 -185 l 1
 61 665 l 1
 160 764 l 1
 189 735 l 1
 189 -115 l 1
 90 -214 l 1
EndSplineSet
EndChar
StartChar: sterling
Encoding: 163 163 203
Width: 550
Flags: W
HStem: 236 128<264.913 368> 511 153<264.934 361.81>
VStem: 136 128<135 238 376.612 531.965>
LayerCount: 2
Back
SplineSet
401 600 m 1
 400 600 378 575 350 575 c 3
 328 575 310 600 274 600 c 3
 234 600 200 550 200 550 c 1
 200 100 l 1025
500 101 m 1
 400 0 l 17
 400 0 349 50 150 50 c 3
 81 50 50 0 50 0 c 1033
100 275 m 17
 100 275 140 325 175 325 c 27
 234 325 266 300 325 300 c 27
 360 300 400 350 400 350 c 1033
EndSplineSet
Fore
SplineSet
65 211 m 1
 36 240 l 1
 36 240 41 247 50 255 c 2
 136 341 l 1
 136 515 l 2
 136 515 142 524 153 535 c 2
 154 536 l 2
 253 635 l 2
 267 649 287 664 309 664 c 0
 345 664 363 639 385 639 c 0
 413 639 435 664 436 664 c 2
 465 635 l 1
 366 536 l 2
 365 536 343 511 315 511 c 0
 299 511 284 525 264 532 c 1
 264 382 l 1
 295 375 322 364 360 364 c 0
 376 364 394 375 407 386 c 2
 435 414 l 1
 464 385 l 2
 464 385 459 380 451 371 c 2
 450 370 l 2
 351 271 l 2
 336 256 312 236 290 236 c 0
 281 236 272 237 264 238 c 1
 264 135 l 1
 242 113 l 1
 385 105 429 69 434 64 c 1
 436 66 l 1
 535 165 l 1
 564 136 l 1
 464 35 l 1
 365 -64 l 1
 365 -64 314 -14 115 -14 c 0
 83 -14 58 -26 42 -37 c 2
 15 -64 l 1
 -14 -35 l 2
 -14 -35 -10 -29 -2 -21 c 2
 -2 -20 l 2
 97 79 l 2
 105 87 118 98 136 105 c 1
 136 261 l 1
 121 260 106 250 93 239 c 2
 65 211 l 1
EndSplineSet
EndChar
StartChar: currency
Encoding: 164 164 207
Width: 500
Flags: MW
LayerCount: 4
Fore
SplineSet
450 0 m 29
 350 125 l 1053
50 0 m 29
 150 125 l 1053
450 600 m 29
 350 475 l 1053
50 600 m 29
 150 475 l 1053
225 500 m 29
 100 375 l 29
 100 200 l 29
 275 100 l 29
 400 225 l 29
 400 400 l 29
 225 500 l 29
EndSplineSet
EndChar
StartChar: brokenbar
Encoding: 166 166 205
Width: 250
Flags: W
HStem: -214 21G<70 110>
VStem: 61 128<-115 165 385 665>
LayerCount: 2
Back
SplineSet
125 -150 m 17
 125 200 l 1025
125 350 m 1
 125 700 l 1033
EndSplineSet
Fore
SplineSet
90 286 m 1
 61 315 l 1
 61 665 l 1
 160 764 l 1
 189 735 l 1
 189 385 l 1
 90 286 l 1
90 -214 m 1
 61 -185 l 1
 61 165 l 1
 160 264 l 1
 189 235 l 1
 189 -115 l 1
 90 -214 l 1
EndSplineSet
EndChar
StartChar: dieresis
Encoding: 168 168 101
Width: 400
Flags: W
HStem: 476 198
LayerCount: 2
Back
SplineSet
265 610 m 29
 335 540 l 1053
65 610 m 25
 135 540 l 1049
EndSplineSet
Fore
SplineSet
1 575 m 1
 100 674 l 1
 199 575 l 1
 100 476 l 1
 1 575 l 1
201 575 m 1
 300 674 l 1
 399 575 l 1
 300 476 l 1
 201 575 l 1
EndSplineSet
EndChar
StartChar: ordfeminine
Encoding: 170 170 210
Width: 400
Flags: W
HStem: 136 128<85 112 168 262> 594 20G<190 214> 594 20G<190 214>
VStem: 236 128<390 461 597 617>
LayerCount: 2
Back
SplineSet
50 200 m 25
 350 200 l 1049
125 550 m 17
 100 625 l 1
 175 700 l 1
 300 675 l 1
 300 325 l 1
 325 300 l 1
 375 350 l 1049
300 425 m 25
 175 300 l 1
 100 375 l 1
 100 475 l 1
 175 550 l 1
 175 550 193.963867188 525 250 525 c 3
 269.00390625 525 300 525 300 525 c 1033
EndSplineSet
Fore
SplineSet
-14 165 m 1x90
 85 264 l 1
 112 264 l 1
 36 340 l 1
 36 440 l 1
 86 490 l 1
 61 515 l 1
 36 590 l 1
 210 764 l 1
 335 739 l 1
 364 710 l 1
 364 560 l 1
 364 460 l 1
 364 368 l 1
 410 414 l 1
 439 385 l 1
 318 264 l 1
 385 264 l 1
 414 235 l 1
 315 136 l 1
 15 136 l 1
 -14 165 l 1x90
187 591 m 1
 210 614 l 1xd0
 214 610 l 2
 218 606 225 601 236 597 c 1
 236 617 l 1
 174 629 l 1
 187 591 l 1
236 332 m 1
 168 264 l 1
 262 264 l 1
 236 290 l 1
 236 332 l 1
236 461 m 1
 215 461 l 2
 192 461 176 465 164 470 c 1
 164 410 l 1
 210 364 l 1
 236 390 l 1
 236 461 l 1
EndSplineSet
EndChar
StartChar: guillemotleft
Encoding: 171 171 215
Width: 550
Flags: W
LayerCount: 2
Back
SplineSet
475 325 m 21
 475 325 453.459960938 295.372070312 425 275 c 4
 330 207 300 200 300 200 c 5
 300 200 364 174 450 100 c 4
 471.075195312 81.8662109375 500 50 500 50 c 1037
225 325 m 17
 225 325 203.459960938 295.372070312 175 275 c 0
 80 207 50 200 50 200 c 1
 50 200 114 174 200 100 c 0
 221.074883505 81.8657979147 250 50 250 50 c 1033
EndSplineSet
Fore
SplineSet
260 389 m 1
 289 360 l 1
 289 360 280 347 265 332 c 2
 166 233 l 1
 165 232 165 233 164 232 c 0
 162 230 158 226 156 224 c 1
 179 209 206 189 235 164 c 0
 242 158 250 150 257 143 c 2
 286 114 l 1
 287 114 l 0
 302 99 314 85 314 85 c 1
 215 -14 l 1
 186 15 l 2
 186 15 182 20 174 28 c 0
 171 30 168 34 165 36 c 0
 79 110 15 136 15 136 c 1
 -14 165 l 1
 85 264 l 1
 85 264 115 271 210 339 c 1
 260 389 l 1
510 389 m 1
 539 360 l 1
 539 360 530 347 515 332 c 2
 416 233 l 1
 415 232 415 233 414 232 c 0
 412 230 408 226 406 224 c 1
 429 209 456 189 485 164 c 0
 492 158 500 150 507 143 c 2
 536 114 l 1
 537 114 l 2
 552 99 564 85 564 85 c 1
 465 -14 l 1
 436 15 l 2
 436 15 432 20 424 28 c 0
 421 30 418 34 415 36 c 0
 329 110 265 136 265 136 c 1
 236 165 l 1
 335 264 l 1
 335 264 365 271 460 339 c 1
 510 389 l 1
EndSplineSet
EndChar
StartChar: macron
Encoding: 175 175 227
Width: 400
Flags: MW
LayerCount: 4
Fore
SplineSet
75 550 m 1
 325 550 l 1053
EndSplineSet
EndChar
StartChar: degree
Encoding: 176 176 229
Width: 500
Flags: MW
LayerCount: 4
Fore
SplineSet
100 600 m 0
 100 660 165 725 225 725 c 0
 325 725 400 650 400 550 c 4
 400 490 335 425 275 425 c 0
 175 425 100 500 100 600 c 0
EndSplineSet
EndChar
StartChar: plusminus
Encoding: 177 177 213
Width: 600
Flags: W
HStem: -39 128<135 465> 311 128<135 236 364 465> 619 20G<315 355>
VStem: 236 128<210 311 439 540>
LayerCount: 2
Back
SplineSet
100 25 m 29
 500 25 l 1053
300 575 m 25
 300 175 l 1049
100 375 m 25
 500 375 l 1049
EndSplineSet
Fore
SplineSet
36 340 m 1
 135 439 l 1
 236 439 l 1
 236 540 l 1
 335 639 l 1
 364 610 l 1
 364 439 l 1
 535 439 l 1
 564 410 l 1
 465 311 l 1
 364 311 l 1
 364 210 l 1
 265 111 l 1
 236 140 l 1
 236 311 l 1
 65 311 l 1
 36 340 l 1
36 -10 m 1
 135 89 l 1
 535 89 l 1
 564 60 l 1
 465 -39 l 1
 65 -39 l 1
 36 -10 l 1
EndSplineSet
EndChar
StartChar: acute
Encoding: 180 180 99
Width: 400
Flags: MW
LayerCount: 4
Fore
SplineSet
275 700 m 21
 275 600 150 525 150 525 c 1053
EndSplineSet
EndChar
StartChar: micro
Encoding: 181 181 209
Width: 400
Flags: MW
LayerCount: 4
Fore
SplineSet
100 365 m 1
 100 -150 l 1025
135 330 m 9
 65 400 l 1041
375 50 m 9
 325 0 l 1
 300 25 l 17
 300 365 l 1025
335 330 m 9
 265 400 l 1041
50 0 m 1
 50 0 59.9692380484 25 125 25 c 3
 186 25 200 0 200 0 c 9
 300 100 l 1025
EndSplineSet
EndChar
StartChar: cedilla
Encoding: 184 184 102
Width: 400
Flags: W
HStem: -239 128<88.117 186.314>
LayerCount: 2
Back
SplineSet
200 0 m 25
 175 -25 l 5
 300 -75 l 1
 200 -200 l 1
 200 -200 174 -175 125 -175 c 3
 65 -175 50 -200 50 -200 c 1025
EndSplineSet
Fore
SplineSet
235 64 m 1
 264 35 l 1
 251 22 l 1
 335 -11 l 1
 364 -40 l 1
 264 -165 l 1
 165 -264 l 1
 165 -264 139 -239 90 -239 c 0
 52 -239 32 -249 23 -256 c 2
 15 -264 l 1
 -14 -235 l 1
 -14 -235 -13 -233 -11 -231 c 2
 88 -132 l 2
 95 -125 115 -111 160 -111 c 0
 189 -111 210 -120 222 -127 c 1
 225 -123 l 1
 140 -89 l 1
 111 -60 l 1
 235 64 l 1
EndSplineSet
EndChar
StartChar: guillemotright
Encoding: 187 187 216
Width: 550
Flags: W
LayerCount: 2
Back
SplineSet
325 325 m 21
 325 325 346.540039062 295.372070312 375 275 c 4
 470 207 500 200 500 200 c 5
 500 200 436 174 350 100 c 4
 328.924804688 81.8662109375 300 50 300 50 c 1037
75 325 m 17
 75 325 96.5400390625 295.372070312 125 275 c 0
 220 207 250 200 250 200 c 1
 250 200 186 174 100 100 c 0
 78.9248046875 81.8662109375 50 50 50 50 c 1033
EndSplineSet
Fore
SplineSet
110 389 m 1
 139 360 l 1
 139 360 143 355 149 348 c 0
 153 345 156 342 160 339 c 0
 218 297 252 278 269 270 c 0
 276 267 281 266 283 265 c 1
 270 279 261 290 261 290 c 2
 360 389 l 1
 389 360 l 1
 389 360 393 355 399 348 c 0
 403 345 406 342 410 339 c 0
 468 297 502 278 519 270 c 0
 530 265 535 264 535 264 c 1
 564 235 l 1
 465 136 l 1
 465 136 401 110 315 36 c 0
 304 26 280 1 265 -14 c 1
 236 15 l 1
 236 15 248 29 263 44 c 2
 362 143 l 2
 369 151 378 158 385 164 c 0
 388 167 392 170 396 173 c 1
 381 183 362 195 340 211 c 0
 331 218 321 226 314 233 c 2
 313 234 l 1
 215 136 l 1
 215 136 151 110 65 36 c 0
 54 26 30 1 15 -14 c 1
 -14 15 l 1
 -14 15 -2 29 13 44 c 2
 112 143 l 2
 119 151 128 158 135 164 c 0
 138 167 142 170 146 173 c 1
 131 183 112 195 90 211 c 0
 81 218 71 226 64 233 c 2
 35 262 l 2
 20 277 11 290 11 290 c 1
 110 389 l 1
EndSplineSet
EndChar
StartChar: Eth
Encoding: 208 208 180
Width: 700
Flags: W
HStem: -64 21G<-5 35 358.043 485> -14 128<113.505 179.472> 486 21G<-5 35> 536 128<82.5 177>
VStem: 180 40<114 252 389 513> 261 128<185 248.234 385 509> 536 128<136 427>
AnchorPoint: "blwmark" 350 0 basechar 0
AnchorPoint: "abvmark" 400 700 basechar 0
LayerCount: 2
Back
SplineSet
50 550 m 1
 50 550 84 600 124 600 c 3
 160 600 178 575 200 575 c 3
 228 575 250 600 251 600 c 1025
200 550 m 1
 200 75 l 1025
325 150 m 1
 325 550 l 1
 375 600 l 1
 600 475 l 1
 600 101 l 1
 500 0 l 17
 500 0 349 50 150 50 c 3
 81 50 50 0 50 0 c 1033
100 275 m 21
 100 275 140 325 175 325 c 31
 254 325 296 300 375 300 c 31
 410 300 450 350 450 350 c 1037
EndSplineSet
Fore
SplineSet
65 211 m 1
 36 240 l 1
 36 240 41 247 50 255 c 2
 149 354 l 2
 157 362 168 372 180 379 c 1
 180 513 l 1
 175 512 170 511 165 511 c 0
 143 511 125 536 89 536 c 0
 76 536 63 530 52 523 c 2
 15 486 l 1
 -14 515 l 1
 -14 515 -7 525 4 536 c 2
 103 635 l 2
 117 649 137 664 159 664 c 0
 195 664 213 639 235 639 c 0
 263 639 285 664 286 664 c 2
 315 635 l 1
 220 541 l 1
 220 389 l 1
 235 389 248 387 261 385 c 1
 261 515 l 1
 410 664 l 1
 635 539 l 1
 664 510 l 1
 664 136 l 1
 564 35 l 1
 465 -64 l 1
 465 -64 364 -30 219 -18 c 0
 186 -15 151 -14 115 -14 c 0
 83 -14 58 -26 42 -37 c 2
 15 -64 l 1
 -14 -35 l 2
 -14 -35 -10 -29 -2 -21 c 2
 -2 -20 l 2
 97 79 l 2
 111 93 139 112 180 114 c 1
 180 259 l 1
 168 260 154 261 140 261 c 0
 124 261 107 251 93 239 c 2
 65 211 l 1
265 111 m 1
 261 115 l 1
 261 244 l 1
 247 247 234 249 220 252 c 1
 220 113 l 1
 235 113 251 112 265 111 c 1
311 107 m 1
 437 94 525 67 534 64 c 1
 536 66 l 1
 536 427 l 1
 389 509 l 1
 389 365 l 1
 396 365 403 364 410 364 c 0
 426 364 444 375 457 386 c 2
 485 414 l 1
 514 385 l 2
 514 385 509 380 501 371 c 2
 500 370 l 2
 401 271 l 2
 397 267 393 264 389 260 c 1
 389 185 l 1
 311 107 l 1
EndSplineSet
EndChar
StartChar: multiply
Encoding: 215 215 223
Width: 600
Flags: W
HStem: 544 20G<115 155 515 555>
LayerCount: 2
Back
SplineSet
500 500 m 25
 100 100 l 1049
100 500 m 25
 500 100 l 1049
EndSplineSet
Fore
SplineSet
36 465 m 1
 135 564 l 1
 335 364 l 1
 535 564 l 1
 564 535 l 1
 364 335 l 1
 564 135 l 1
 465 36 l 1
 265 236 l 1
 65 36 l 1
 36 65 l 1
 236 265 l 1
 36 465 l 1
EndSplineSet
EndChar
StartChar: Oslash
Encoding: 216 216 182
Width: 800
Flags: W
HStem: -64 21G<45 85 324 392> 644 20G<311.364 355 463.5 508.5 715 755>
VStem: 61 128<208.449 371.162> 280 40<108 151 249 443> 362 128<135 233 291 361 419 515> 589 128<225.552 417.836>
AnchorPoint: "abvmark" 450 700 basechar 0
LayerCount: 2
Back
SplineSet
700 600 m 25
 100 0 l 1049
300 550 m 1
 300 100 l 1025
427 550 m 1
 425 100 l 1025
300 600 m 1
 300 600 125 480 125 300 c 3
 125 134 220 0 400 0 c 3
 519 0 653 142 653 300 c 3
 653 512 561 600 450 600 c 3
 363 600 300 492 300 492 c 1029
EndSplineSet
Fore
SplineSet
735 664 m 1
 764 635 l 1
 672 543 l 1
 700 495 717 426 717 335 c 0
 717 248 677 167 621 110 c 2
 620 110 l 1
 521 11 l 2
 475 -35 419 -64 365 -64 c 0
 283 -64 220 -37 174 9 c 2
 173 9 l 2
 156 27 l 1
 65 -64 l 1
 36 -35 l 1
 128 57 l 1
 84 111 61 184 61 265 c 0
 61 376 128 464 179 516 c 0
 180 517 l 2
 279 616 l 2
 280 616 l 2
 280 620 l 1
 283 620 l 1
 312 648 335 664 335 664 c 1
 364 635 l 1
 320 592 l 1
 320 553 l 1
 379 611 l 2
 406 638 442 664 485 664 c 0
 532 664 576 648 611 613 c 2
 640 584 l 2
 643 581 645 579 647 576 c 2
 735 664 l 1
377 529 m 2
 370 527 364 524 358 521 c 2
 320 484 l 1
 320 249 l 1
 362 291 l 1
 363 515 l 1
 377 529 l 2
361 72 m 1
 362 233 l 1
 320 192 l 1
 320 86 l 1
 333 81 347 75 361 72 c 1
418 64 m 1
 423 64 429 64 435 64 c 0
 469 64 504 76 537 96 c 1
 569 145 589 204 589 265 c 0
 589 334 579 389 562 433 c 1
 490 361 l 1
 489 135 l 1
 418 64 l 1
491 520 m 1
 490 419 l 1
 544 473 l 1
 538 482 532 491 526 499 c 0
 515 508 503 514 491 520 c 1
280 551 m 1
 265 536 l 1
 265 536 263 535 261 533 c 0
 223 482 189 415 189 335 c 0
 189 270 204 210 232 161 c 1
 280 208 l 1
 280 443 l 1
 265 428 l 1
 236 457 l 2
 236 457 252 484 279 512 c 2
 280 512 l 2
 280 551 l 1
280 108 m 1
 280 151 l 1
 256 127 l 2
 257 126 257 125 258 124 c 0
 265 118 273 113 280 108 c 1
EndSplineSet
EndChar
StartChar: Thorn
Encoding: 222 222 178
Width: 700
Flags: W
HStem: -214 128<38.694 133.132> 444 20G<390 446> 444 20G<390 446> 486 21G<-5 35> 536 128<82.5 177>
VStem: 180 40<-97 5.39648 49 513> 261 128<-40 19 164 309 443 515>
AnchorPoint: "abvmark" 400 700 basechar 0
LayerCount: 2
Back
SplineSet
250 50 m 25
 250 50 306 100 350 100 c 27
 421 100 500 50 500 50 c 1
 600 150 l 1
 600 275 l 1
 375 400 l 1
 325 350 l 1025
50 550 m 1
 50 550 84 600 124 600 c 3
 160 600 178 575 200 575 c 3
 228 575 250 600 251 600 c 1025
200 550 m 1
 200 -125 l 1025
375 600 m 1
 325 550 l 1
 325 -75 l 1
 200 -200 l 1
 200 -200 173 -150 75 -150 c 3
 6 -150 -25 -200 -23 -200 c 1033
EndSplineSet
Fore
SplineSet
-27 -233 m 1xde
 -58 -264 l 1
 -87 -235 l 2
 -87 -235 -83 -228 -75 -220 c 2
 -75 -219 l 2
 24 -120 l 2
 39 -105 67 -86 110 -86 c 0
 139 -86 162 -91 180 -97 c 1
 180 513 l 1
 175 512 170 511 165 511 c 0
 143 511 125 536 89 536 c 0
 76 536 63 530 52 523 c 2
 15 486 l 1
 -14 515 l 1
 -14 515 -7 525 4 536 c 2
 103 635 l 2
 117 649 137 664 159 664 c 0
 195 664 213 639 235 639 c 0
 263 639 285 664 286 664 c 2
 315 635 l 1
 220 541 l 1
 220 49 l 1
 261 90 l 1
 261 315 l 1
 261 515 l 1
 410 664 l 1
 439 635 l 1
 389 585 l 1
 389 443 l 1
 410 464 l 1
 635 339 l 1
 664 310 l 1
 664 185 l 1
 465 -14 l 1
 465 -14 432 7 389 22 c 1
 389 -40 l 1
 165 -264 l 1
 142 -241 l 1
 123 -228 91 -214 40 -214 c 0
 11 -214 -11 -223 -27 -233 c 1xde
220 -119 m 2
 222 -120 224 -123 225 -124 c 0
 236 -135 l 1
 261 -110 l 1
 261 19 l 1
 243 9 228 -3 220 -9 c 1
 220 -119 l 2
389 309 m 1
 389 164 l 1
 459 162 535 114 535 114 c 2
 536 115 l 1
 536 227 l 1
 389 309 l 1
EndSplineSet
EndChar
StartChar: oslash
Encoding: 248 248 183
Width: 400
Flags: W
HStem: 444 20G<215 255 365 405> 444 20G<215 255 365 405>
VStem: 36 128<202 265> 236 128<135 198>
AnchorPoint: "abvmark" 200 500 basechar 0
LayerCount: 2
Back
SplineSet
350 400 m 25
 50 0 l 1053
200 400 m 25
 100 300 l 25
 100 100 l 25
 200 0 l 25
 300 100 l 25
 300 300 l 25
 200 400 l 25
EndSplineSet
Fore
SplineSet
165 336 m 1x30
 164 335 l 1
 164 202 l 1
 229 288 l 1
 214 309 181 320 165 336 c 1x30
36 265 m 1
 235 464 l 1
 310 389 l 1
 385 464 l 1xb0
 414 435 l 1
 350 349 l 1
 364 335 l 1
 364 135 l 1
 165 -64 l 1
 90 11 l 1
 15 -64 l 1
 -14 -35 l 1
 50 51 l 1
 36 65 l 1
 36 265 l 1
171 112 m 1
 186 91 219 80 235 64 c 1
 236 65 l 1
 236 198 l 1
 171 112 l 1
EndSplineSet
EndChar
StartChar: thorn
Encoding: 254 254 179
Width: 400
Flags: MW
AnchorPoint: "abvmark" 200 700 basechar 0
LayerCount: 4
Fore
SplineSet
50 0 m 1
 50 0 96 50 125 50 c 0
 154 50 200 0 200 0 c 9
 300 100 l 1
 300 300 l 25
 200 400 l 1
 100 300 l 1049
65 625 m 29
 135 555 l 1053
100 590 m 5
 100 -150 l 1025
EndSplineSet
EndChar
StartChar: dcroat
Encoding: 273 273 319
Width: 400
Flags: W
HStem: 444 20G<390 430> 444 20G<390 430>
VStem: 36 128<98.1606 160 218 265> 236 128<135 232>
AnchorPoint: "abvmark" 250 700 basechar 0
LayerCount: 2
Back
SplineSet
375 400 m 1
 50 75 l 1029
300 300 m 1
 200 400 l 25
 100 300 l 1
 100 100 l 25
 200 0 l 25
 300 100 l 1
 300 450 l 10
 300 505 244 550 200 550 c 0
 156 550 100 556 100 600 c 27
 100 628 140 650 141 650 c 1049
EndSplineSet
Fore
SplineSet
226 455 m 1xb0
 224 459 221 464 219 467 c 0
 202 479 183 486 165 486 c 0
 133 486 95 489 76 508 c 2
 47 537 l 2
 40 544 36 553 36 565 c 0
 36 577 43 588 52 597 c 2
 151 696 l 2
 162 707 175 714 176 714 c 2
 205 685 l 1
 166 646 l 2
 165 643 164 639 164 635 c 0
 164 631 164 628 165 624 c 0
 184 616 212 614 235 614 c 0
 258 614 285 602 305 582 c 2
 334 553 l 2
 352 535 364 511 364 485 c 2
 364 418 l 1
 410 464 l 1
 439 435 l 1
 364 360 l 1
 364 135 l 1
 165 -64 l 1
 52 49 l 1
 15 11 l 1
 -14 40 l 1
 36 90 l 1
 36 265 l 1
 226 455 l 1xb0
224 277 m 1
 165 336 l 1
 164 335 l 1
 164 218 l 1
 224 277 l 1
164 160 m 1
 164 135 l 2
 164 97 214 85 235 64 c 1
 236 65 l 1
 236 232 l 1
 164 160 l 1
EndSplineSet
EndChar
StartChar: lslash
Encoding: 322 322 291
Width: 200
Flags: W
HStem: 444 20G<190 230> 444 20G<190 230>
VStem: 36 128<70 232 290 360 418 555>
LayerCount: 2
Back
SplineSet
175 400 m 25
 25 250 l 1049
65 70 m 25
 135 0 l 25
 205 70 l 1049
65 625 m 25
 135 555 l 1049
100 590 m 9
 100 35 l 1049
EndSplineSet
Fore
SplineSet
135 654 m 1xa0
 164 625 l 1
 199 590 l 1
 164 555 l 1
 164 418 l 1
 210 464 l 1
 239 435 l 1
 164 360 l 1
 164 70 l 1
 170 64 l 1
 240 134 l 1
 269 105 l 1
 100 -64 l 1
 65 -29 l 1
 36 -0 l 1
 1 35 l 1
 36 70 l 1
 36 232 l 1
 -10 186 l 1
 -39 215 l 1
 36 290 l 1
 36 555 l 1
 1 590 l 1
 100 689 l 1
 135 654 l 1xa0
EndSplineSet
EndChar
StartChar: Eng
Encoding: 330 330 599
Width: 700
Flags: W
HStem: -214 128<124.086 377.532> -64 21G<-5 35 220 260> -14 128<113.506 179.559> 486 21G<-5 35> 536 128<82.5 177>
VStem: 180 40<114 513> 261 128<101 505> 511 128<-65 429>
AnchorPoint: "abvmark" 400 700 basechar 0
LayerCount: 2
Back
SplineSet
50 550 m 1
 50 550 84 600 124 600 c 3
 160 600 178 575 200 575 c 3
 228 575 250 600 251 600 c 1025
200 550 m 1
 200 75 l 1025
50 0 m 17
 50 0 81 50 150 50 c 3
 248 50 275 0 275 0 c 1
 325 50 l 1
 325 550 l 1
 375 600 l 1
 575 475 l 1
 575 -100 l 1
 475 -200 l 1
 475 -200 412 -150 250 -150 c 3
 66 -150 50 -200 50 -200 c 1033
EndSplineSet
Fore
SplineSet
15 -64 m 1
 -14 -35 l 1
 -14 -35 -10 -28 -2 -20 c 2
 97 79 l 2
 111 93 139 112 180 114 c 1
 180 513 l 1
 175 512 170 511 165 511 c 0
 143 511 125 536 89 536 c 0
 76 536 63 530 52 523 c 2
 15 486 l 1
 -14 515 l 1
 -14 515 -7 525 4 536 c 2
 103 635 l 2
 117 649 137 664 159 664 c 0
 195 664 213 639 235 639 c 0
 263 639 285 664 286 664 c 2
 315 635 l 1
 220 541 l 1
 220 112 l 1
 236 110 250 105 261 101 c 1
 261 515 l 1
 410 664 l 1
 610 539 l 1
 639 510 l 1
 639 -65 l 1
 440 -264 l 1
 440 -264 377 -214 215 -214 c 0
 105 -214 55 -232 33 -246 c 1
 15 -264 l 1
 -14 -235 l 1
 -14 -235 -13 -231 -8 -226 c 2
 91 -127 l 2
 105 -113 151 -86 285 -86 c 0
 447 -86 510 -136 510 -136 c 1
 511 -135 l 1
 511 429 l 1
 389 505 l 1
 389 85 l 1
 240 -64 l 1
 217 -41 l 1
 198 -28 166 -14 115 -14 c 0
 83 -14 59 -25 42 -37 c 2
 15 -64 l 1
EndSplineSet
EndChar
StartChar: eng
Encoding: 331 331 600
Width: 400
Flags: MW
AnchorPoint: "abvmark" 200 500 basechar 0
LayerCount: 4
Fore
SplineSet
100 275 m 25
 225 400 l 1
 300 325 l 1
 300 -150 l 1
 300 -150 253 -200 225 -200 c 0
 193 -200 156 -150 125 -150 c 16
 87 -150 50 -200 50 -200 c 1033
65 70 m 29
 135 0 l 1053
135 330 m 25
 65 400 l 1049
100 365 m 9
 100 35 l 1029
EndSplineSet
EndChar
StartChar: OE
Encoding: 338 338 116
Width: 1250
Flags: W
HStem: -64 128<393 423.481 918 948.79> 236 178<990.415 1063.85> 486 128<1009 1092> 644 20G<286.364 330 438.5 483.5 811.364 855 969 1001 1141 1181>
VStem: 36 128<206.161 371.162> 254 42<108 443> 336 128<135 515> 561 131<199.26 426.194> 780 40<108 443 543 551> 861 128<135 252 391 465>
AnchorPoint: "blwmark" 600 0 basechar 0
AnchorPoint: "abvmark" 650 700 basechar 0
LayerCount: 2
Back
SplineSet
925 300 m 25
 925 300 972 350 1000 350 c 27
 1035 350 1015 300 1050 300 c 3
 1091 300 1125 350 1126 350 c 1049
800 550 m 1
 800 100 l 1025
925 500 m 1
 925 100 l 1025
800 600 m 1
 800 600 625 480 625 300 c 3
 625 134 720 0 900 0 c 3
 1019 0 1151 150 1152 150 c 1025
800 492 m 1
 800 492 895 600 955 600 c 3
 1019 600 992 550 1050 550 c 3
 1098 550 1125 600 1126 600 c 1025
275 550 m 1
 275 100 l 1025
402 550 m 1
 400 100 l 1025
275 600 m 1
 275 600 100 480 100 300 c 3
 100 134 195 0 375 0 c 3
 494 0 628 142 628 300 c 3
 628 512 536 600 425 600 c 3
 338 600 275 492 275 492 c 1025
EndSplineSet
Fore
SplineSet
765 428 m 1
 736 457 l 1
 736 457 744 466 758 480 c 2
 780 502 l 1
 780 551 l 1
 765 536 l 1
 765 536 763 535 761 533 c 0
 728 489 699 435 691 370 c 0
 692 359 692 347 692 335 c 0
 692 324 691 314 690 303 c 0
 695 233 718 171 758 124 c 0
 765 118 773 113 780 108 c 1
 780 443 l 1
 765 428 l 1
352 529 m 2
 345 527 339 524 333 521 c 2
 296 484 l 1
 296 86 l 1
 309 81 322 75 336 72 c 1
 338 515 l 1
 352 529 l 2
393 64 m 1
 398 64 404 64 410 64 c 0
 444 64 479 76 512 96 c 1
 538 137 556 183 562 233 c 0
 561 243 561 254 561 265 c 0
 561 277 562 288 563 299 c 0
 558 390 535 456 501 499 c 0
 490 508 478 514 466 520 c 1
 464 135 l 1
 393 64 l 1
254 551 m 1
 240 536 l 1
 240 536 238 535 236 533 c 0
 198 482 164 415 164 335 c 0
 164 252 187 178 233 124 c 0
 240 118 247 113 254 108 c 1
 254 443 l 1
 240 428 l 1
 211 457 l 2
 211 457 227 484 254 512 c 2
 254 551 l 1
254 616 m 2
 254 620 l 1
 258 620 l 1
 287 648 310 664 310 664 c 1
 339 635 l 1
 296 592 l 1
 296 553 l 1
 354 611 l 2
 381 638 417 664 460 664 c 0
 507 664 551 648 586 613 c 2
 615 584 l 2
 636 563 653 536 666 502 c 1
 670 507 675 512 679 516 c 0
 680 517 l 2
 779 616 l 2
 780 616 l 2
 780 620 l 1
 783 620 l 1
 812 648 835 664 835 664 c 1
 864 635 l 1
 820 592 l 1
 820 543 l 1
 857 579 l 2
 858 580 l 0
 890 612 948 664 990 664 c 0
 1012 664 1023 659 1031 651 c 2
 1060 622 l 2
 1060 621 l 2
 1061 620 1063 618 1064 617 c 0
 1070 615 1076 614 1085 614 c 0
 1099 614 1111 619 1121 624 c 2
 1161 664 l 2
 1190 635 l 2
 1188 633 1182 622 1171 611 c 2
 1072 512 l 2
 1059 499 1040 486 1015 486 c 0
 1003 486 995 488 989 491 c 1
 989 391 l 1
 1004 403 1022 414 1035 414 c 0
 1042 414 1047 411 1051 408 c 2
 1080 379 l 2
 1084 375 1087 369 1088 364 c 1
 1103 365 1116 372 1127 380 c 2
 1161 414 l 2
 1190 385 l 2
 1187 382 1182 375 1173 366 c 2
 1074 267 l 2
 1060 253 1039 236 1015 236 c 0
 1008 236 1003 239 999 242 c 2
 989 252 l 1
 989 135 l 1
 918 64 l 1
 923 64 929 64 935 64 c 0
 1018 64 1107 137 1154 181 c 2
 1187 214 l 1
 1216 185 l 1
 1214 183 l 2
 1212 180 1207 176 1199 168 c 2
 1199 167 l 1
 1100 68 l 2
 1060 28 959 -64 865 -64 c 0
 783 -64 720 -37 674 9 c 2
 673 9 l 2
 644 38 l 2
 624 58 607 82 594 109 c 1
 496 11 l 2
 450 -35 394 -64 340 -64 c 0
 258 -64 195 -37 149 9 c 2
 148 9 l 2
 119 38 l 2
 64 93 36 174 36 265 c 0
 36 376 103 464 154 516 c 0
 155 517 l 2
 254 616 l 2
931 535 m 2
 928 535 924 536 920 536 c 0
 890 536 852 509 820 482 c 1
 820 86 l 1
 833 81 847 75 861 72 c 1
 861 265 l 1
 861 465 l 1
 931 535 l 2
EndSplineSet
EndChar
StartChar: oe
Encoding: 339 339 115
Width: 550
Flags: MW
AnchorPoint: "blwmark" 300 0 basechar 0
AnchorPoint: "abvmark" 300 500 basechar 0
LayerCount: 4
Fore
SplineSet
500 100 m 9
 400 0 l 25
 300 100 l 25
 300 300 l 25
 400 400 l 25
 500 300 l 1
 300 100 l 1049
200 400 m 25
 100 300 l 25
 100 100 l 25
 200 0 l 25
 300 100 l 25
 300 300 l 25
 200 400 l 25
EndSplineSet
EndChar
StartChar: longs
Encoding: 383 383 95
Width: 300
Flags: W
HStem: -214 128<-92.5 -3.5> 536 21G<253.5 279>
VStem: 61 128<-115 515>
AnchorPoint: "abvmark" 175 750 basechar 0
LayerCount: 2
Back
SplineSet
-125 -200 m 21
 -125 -200 -88 -150 -50 -150 c 12
 -19 -150 18 -200 50 -200 c 28
 78 -200 125 -150 125 -150 c 5
 125 550 l 5
 225 650 l 21
 225 650 256 600 300 600 c 28
 328 600 375 650 376 650 c 1037
EndSplineSet
Fore
SplineSet
-160 -264 m 1
 -189 -235 l 1
 -189 -235 -183 -227 -173 -217 c 2
 -74 -118 l 2
 -73 -117 l 0
 -58 -102 -37 -86 -15 -86 c 0
 8 -86 36 -116 61 -129 c 1
 61 515 l 1
 260 714 l 1
 289 685 l 1
 289 685 290 683 293 679 c 0
 305 671 319 664 335 664 c 0
 363 664 410 714 411 714 c 2
 440 685 l 1
 341 586 l 2
 340 586 293 536 265 536 c 0
 242 536 222 550 209 563 c 0
 208 564 l 2
 189 583 l 1
 189 -115 l 2
 189 -115 188 -116 185 -119 c 2
 86 -218 l 2
 74 -230 38 -264 15 -264 c 0
 -17 -264 -54 -214 -85 -214 c 0
 -100 -214 -114 -221 -127 -231 c 2
 -160 -264 l 1
EndSplineSet
EndChar
StartChar: ascript
Encoding: 593 593 348
Width: 400
Flags: MW
AnchorPoint: "blwmark" 200 0 basechar 0
AnchorPoint: "abvmark" 225 500 basechar 0
LayerCount: 4
Fore
SplineSet
375 50 m 29
 325 0 l 5
 300 25 l 5
 300 400 l 5
 300 400 278 360 250 360 c 4
 222 360 200 400 200 400 c 13
 100 300 l 5
 100 75 l 21
 175 0 l 5
 300 125 l 1053
EndSplineSet
EndChar
StartChar: caron
Encoding: 711 711 245
Width: 400
Flags: W
HStem: 461 303
VStem: 36 328
LayerCount: 2
Back
SplineSet
100 700 m 25
 100 700 200 625 200 525 c 1
 200 675 300 700 300 700 c 1025
EndSplineSet
Fore
SplineSet
264 563 m 0
 264 561 264 562 264 560 c 2
 165 461 l 1
 136 490 l 2
 136 492 136 491 136 493 c 0
 136 516 131 535 123 554 c 0
 111 583 93 608 76 627 c 0
 69 633 65 636 65 636 c 1
 36 665 l 1
 135 764 l 1
 135 764 146 756 161 741 c 2
 190 712 l 2
 200 702 213 688 224 672 c 1
 285 733 l 2
 310 758 335 764 335 764 c 2
 364 735 l 1
 280 651 l 1
 271 629 264 601 264 563 c 0
EndSplineSet
EndChar
StartChar: verticallinemod
Encoding: 712 712 887
Width: 400
Flags: W
HStem: 461 303
VStem: 136 128<560 665>
LayerCount: 2
Back
SplineSet
200 700 m 9
 200 525 l 1025
EndSplineSet
Fore
SplineSet
235 764 m 1
 264 735 l 1
 264 560 l 1
 165 461 l 1
 136 490 l 1
 136 665 l 1
 235 764 l 1
EndSplineSet
EndChar
StartChar: breve
Encoding: 728 728 265
Width: 400
Flags: W
HStem: 461 128<175.909 266.5> 644 20G<115 155 340 380>
LayerCount: 2
Back
SplineSet
100 600 m 17
 100 600 114.77749776 525 225 525 c 3
 270 525 325 600 325 600 c 1033
EndSplineSet
Fore
SplineSet
135 664 m 1
 164 635 l 1
 164 635 166 624 175 611 c 1
 194 599 221 589 260 589 c 0
 273 589 288 596 301 605 c 2
 360 664 l 1
 389 635 l 2
 389 635 378 619 360 601 c 2
 359 601 l 2
 260 502 l 2
 240 482 214 461 190 461 c 0
 138 461 107 478 89 496 c 0
 88 496 l 2
 59 525 l 2
 40 545 36 565 36 565 c 1
 135 664 l 1
EndSplineSet
EndChar
StartChar: ring
Encoding: 730 730 184
Width: 400
Flags: W
HStem: 472 306<140.6 259.037>
VStem: 47 306<565.963 684.037>
LayerCount: 2
Back
SplineSet
100 650 m 4
 100 710 115 725 175 725 c 4
 250 725 300 675 300 600 c 4
 300 540 285 525 225 525 c 4
 150 525 100 575 100 650 c 4
EndSplineSet
Fore
SplineSet
47 618 m 0
 47 648 51 667 62 678 c 2
 147 763 l 2
 158 774 177 778 207 778 c 0
 244 778 275 766 297 744 c 2
 319 722 l 1
 341 700 353 669 353 632 c 0
 353 602 349 583 338 572 c 2
 253 487 l 2
 242 476 223 472 193 472 c 0
 155 472 125 484 103 506 c 2
 81 528 l 1
 59 550 47 581 47 618 c 0
153 672 m 1
 155 645 164 622 178 603 c 1
 196 589 220 580 247 578 c 1
 245 605 236 628 222 647 c 1
 204 661 180 670 153 672 c 1
EndSplineSet
EndChar
StartChar: ogonek
Encoding: 731 731 283
Width: 400
Flags: MW
LayerCount: 4
Fore
SplineSet
200 0 m 25
 125 -75 l 1
 125 -150 l 9
 225 -200 l 25
 275 -150 l 1053
EndSplineSet
EndChar
StartChar: hungarumlaut
Encoding: 733 733 267
Width: 400
Flags: MW
LayerCount: 4
Fore
SplineSet
350 700 m 17
 350 600 225 525 225 525 c 1049
200 700 m 17
 200 600 75 525 75 525 c 1049
EndSplineSet
EndChar
StartChar: hookcmb
Encoding: 777 777 381
Width: 0
Flags: W
HStem: 436 328 511 21G<-330 -290>
VStem: -364 328
AnchorPoint: "abvmark" -200 500 mark 0
LayerCount: 2
Back
SplineSet
-225 454 m 1xa0
 -246 475 l 1
 -146 575 l 1
 -146 633 l 1
 -250 654 l 1
 -250 654 -253 651 -254 650 c 2
 -229 600 l 1
 -300 529 l 1
 -321 550 l 1x60
 -346 600 l 1
 -200 746 l 1
 -75 721 l 1
 -54 700 l 1
 -54 625 l 1
 -225 454 l 1xa0
EndSplineSet
Fore
SplineSet
-235 436 m 1xa0
 -264 465 l 1
 -164 565 l 1
 -164 617 l 1
 -220 628 l 1
 -211 610 l 1
 -310 511 l 1x60
 -339 540 l 1
 -364 590 l 1
 -190 764 l 1
 -65 739 l 1
 -36 710 l 1
 -36 635 l 1
 -235 436 l 1xa0
EndSplineSet
EndChar
StartChar: dotbelowcmb
Encoding: 803 803 357
Width: 0
VWidth: 400
Flags: W
HStem: -224 198
VStem: -299 198
AnchorPoint: "blwmark" -200 0 mark 0
LayerCount: 2
Back
SplineSet
-271 -125 m 1
 -200 -54 l 1
 -129 -125 l 1
 -200 -196 l 1
 -271 -125 l 1
EndSplineSet
Fore
SplineSet
-299 -125 m 1
 -200 -26 l 1
 -101 -125 l 1
 -200 -224 l 1
 -299 -125 l 1
EndSplineSet
EndChar
StartChar: breveinvertedbelowcmb
Encoding: 815 815 537
Width: 0
VWidth: 400
Flags: W
HStem: -189 128<-241.5 -150.909>
AnchorPoint: "blwmark" -200 0 mark 0
LayerCount: 2
Back
SplineSet
-75 -200 m 17
 -75 -200 -89.77734375 -125 -200 -125 c 3
 -245 -125 -300 -200 -300 -200 c 1033
EndSplineSet
Fore
SplineSet
-110 -264 m 1
 -139 -235 l 1
 -139 -235 -141 -224 -150 -211 c 1
 -169 -199 -196 -189 -235 -189 c 0
 -248 -189 -263 -196 -276 -205 c 2
 -335 -264 l 1
 -364 -235 l 2
 -364 -235 -353 -219 -335 -201 c 2
 -334 -201 l 2
 -235 -102 l 2
 -215 -82 -189 -61 -165 -61 c 0
 -113 -61 -82 -78 -64 -96 c 0
 -63 -96 l 2
 -34 -125 l 2
 -15 -145 -11 -165 -11 -165 c 1
 -110 -264 l 1
EndSplineSet
EndChar
StartChar: tridotright
Encoding: 4347 4347 895
Width: 500
Flags: W
HStem: -64 21G<130 170>
LayerCount: 2
Back
SplineSet
365 210 m 25
 435 140 l 1049
115 350 m 25
 185 280 l 1049
115 70 m 25
 185 0 l 1049
EndSplineSet
Fore
SplineSet
51 35 m 1
 150 134 l 1
 249 35 l 1
 150 -64 l 1
 51 35 l 1
51 315 m 1
 150 414 l 1
 249 315 l 1
 150 216 l 1
 51 315 l 1
301 175 m 1
 400 274 l 1
 499 175 l 1
 400 76 l 1
 301 175 l 1
EndSplineSet
EndChar
StartChar: Germandbls
Encoding: 7838 7838 136
Width: 700
Flags: W
HStem: -189 128<277.571 414.805> -64 21G<-5 35 220 260> -14 128<113.506 179.559> 486 21G<-5 35> 536 128<82.5 177>
VStem: 180 40<114 513> 261 128<101 509> 536 128<-90 176 410 427>
AnchorPoint: "abvmark" 400 700 basechar 0
LayerCount: 2
Back
SplineSet
50 0 m 21
 50 0 81 50 150 50 c 7
 248 50 275 0 275 0 c 5
 325 50 l 5
 325 550 l 5
 375 600 l 5
 600 475 l 5
 600 375 l 5
 500 275 l 13
 600 225 l 29
 600 -125 l 29
 525 -200 l 5
 499 -160 416.752929688 -125 350 -125 c 7
 221.902380975 -125 175 -200 175 -200 c 1029
50 550 m 5
 50 550 84 600 124 600 c 7
 160 600 178 575 200 575 c 7
 228 575 250 600 251 600 c 1029
200 550 m 1
 200 75 l 1025
EndSplineSet
Fore
SplineSet
15 486 m 1x7f
 -14 515 l 1
 -14 515 -7 525 4 536 c 2
 103 635 l 2
 117 649 137 664 159 664 c 0
 195 664 213 639 235 639 c 0
 263 639 285 664 286 664 c 2
 315 635 l 1
 220 541 l 1
 220 112 l 1
 236 110 250 105 261 101 c 1
 261 515 l 1
 410 664 l 1
 635 539 l 1
 664 510 l 1
 664 410 l 1
 574 320 l 1
 635 289 l 1
 664 260 l 1
 664 -90 l 1
 490 -264 l 1
 462 -236 l 1
 424 -209 366 -189 315 -189 c 0
 245 -189 200 -211 173 -231 c 1
 140 -264 l 1
 111 -235 l 1
 111 -235 115 -228 125 -218 c 2
 224 -119 l 2
 246 -97 296 -61 385 -61 c 0xbf
 437 -61 499 -82 536 -111 c 1
 536 176 l 1
 465 211 l 1
 436 240 l 1
 536 340 l 1
 536 427 l 1
 389 509 l 1
 389 85 l 1
 240 -64 l 1
 217 -41 l 1
 198 -28 166 -14 115 -14 c 0
 83 -14 59 -25 42 -37 c 2
 15 -64 l 1
 -14 -35 l 1
 -14 -35 -10 -28 -2 -20 c 2
 97 79 l 2
 111 93 139 112 180 114 c 1
 180 513 l 1
 175 512 170 511 165 511 c 0
 143 511 125 536 89 536 c 0
 76 536 63 530 52 523 c 2
 15 486 l 1x7f
EndSplineSet
EndChar
StartChar: horizontalbar
Encoding: 8213 8213 909
Width: 700
Flags: W
HStem: 136 128<85 615>
LayerCount: 2
Back
SplineSet
50 200 m 25
 650 200 l 1049
EndSplineSet
Fore
SplineSet
-14 165 m 1
 85 264 l 1
 685 264 l 1
 714 235 l 1
 615 136 l 1
 15 136 l 1
 -14 165 l 1
EndSplineSet
EndChar
StartChar: quoteleft
Encoding: 8216 8216 254
Width: 300
Flags: MW
LayerCount: 4
Fore
SplineSet
180 405 m 29
 110 475 l 5
 110 545 l 29
 215 650 l 1053
EndSplineSet
EndChar
StartChar: quoteright
Encoding: 8217 8217 255
Width: 300
Flags: MW
LayerCount: 4
Fore
SplineSet
120 620 m 29
 190 550 l 5
 190 480 l 29
 85 375 l 1053
EndSplineSet
EndChar
StartChar: quotesinglbase
Encoding: 8218 8218 256
Width: 300
VWidth: 450
Flags: MW
LayerCount: 4
Fore
SplineSet
120 70 m 29
 190 0 l 5
 190 -70 l 29
 85 -175 l 1053
EndSplineSet
EndChar
StartChar: quotereversed
Encoding: 8219 8219 928
Width: 300
Flags: W
VStem: 46 233
LayerCount: 2
Back
SplineSet
180 620 m 29
 110 550 l 5
 110 480 l 29
 215 375 l 1053
EndSplineSet
Fore
SplineSet
145 684 m 1
 244 585 l 1
 174 515 l 1
 174 445 l 2
 174 445 179 440 180 439 c 2
 279 340 l 1
 250 311 l 1
 46 515 l 1
 46 585 l 1
 145 684 l 1
EndSplineSet
EndChar
StartChar: quotedblright
Encoding: 8221 8221 252
Width: 500
Flags: MW
LayerCount: 4
Fore
SplineSet
320 620 m 25
 390 550 l 1
 390 480 l 25
 285 375 l 1049
120 620 m 25
 190 550 l 1
 190 480 l 25
 85 375 l 1049
EndSplineSet
EndChar
StartChar: quotedblbase
Encoding: 8222 8222 253
Width: 500
VWidth: 450
Flags: MW
LayerCount: 4
Fore
SplineSet
320 70 m 29
 390 0 l 5
 390 -70 l 29
 285 -175 l 1053
120 70 m 25
 190 0 l 1
 190 -70 l 25
 85 -175 l 1049
EndSplineSet
EndChar
StartChar: daggerdbl
Encoding: 8225 8225 263
Width: 400
Flags: W
HStem: -64 21G<45 130 295 335> 444 20G<65 105 270 355> 444 20G<65 105 270 355> 644 20G<240 280>
VStem: 134 133<97 303>
LayerCount: 2
Back
SplineSet
50 50 m 25
 100 0 l 25
 300 50 l 25
 350 0 l 1049
50 400 m 25
 100 350 l 25
 300 400 l 25
 350 350 l 1049
175 550 m 1
 175 550 189 520 190 500 c 24
 198 383 200 200 200 200 c 1
 200 200 203 383 210 500 c 24
 212 539 225 600 225 600 c 9
 175 550 l 1
225 -150 m 1
 225 -150 211 -120 210 -100 c 24
 202 17 200 200 200 200 c 1
 200 200 197 17 190 -100 c 24
 188 -139 175 -200 175 -200 c 9
 225 -150 l 1
EndSplineSet
Fore
SplineSet
289 -115 m 1xd8
 140 -264 l 1
 111 -235 l 1
 111 -235 124 -174 126 -135 c 0
 128 -108 129 -79 130 -48 c 1
 65 -64 l 1
 -14 15 l 1
 85 114 l 1
 134 65 l 1
 136 122 136 165 136 165 c 2
 136 165 135 228 133 303 c 1
 65 286 l 1
 -14 365 l 1
 85 464 l 1
 129 420 l 1
 128 436 127 451 126 465 c 0
 125 485 111 515 111 515 c 1
 260 664 l 1
 289 635 l 1
 289 635 276 574 274 535 c 0
 272 508 271 479 270 448 c 1
 335 464 l 1
 414 385 l 1
 315 286 l 1
 266 335 l 1
 264 278 264 235 264 235 c 2
 264 235 265 172 267 97 c 1
 335 114 l 1
 414 35 l 1
 315 -64 l 1
 271 -20 l 1
 272 -36 273 -51 274 -65 c 0
 275 -85 289 -115 289 -115 c 1xd8
EndSplineSet
EndChar
StartChar: bullet
Encoding: 8226 8226 259
Width: 300
Flags: MW
LayerCount: 4
Fore
SplineSet
115 370 m 29
 220 265 l 29
 185 230 l 29
 80 335 l 29
 115 370 l 29
EndSplineSet
EndChar
StartChar: minute
Encoding: 8242 8242 926
Width: 300
Flags: W
HStem: 461 303
VStem: 36 228
LayerCount: 2
Back
SplineSet
200 700 m 17
 200 600 100 525 100 525 c 1041
EndSplineSet
Fore
SplineSet
235 764 m 1
 264 735 l 1
 264 668 220 613 190 583 c 2
 91 484 l 2
 76 469 65 461 65 461 c 1
 36 490 l 1
 86 540 l 1
 111 571 136 615 136 665 c 1
 235 764 l 1
EndSplineSet
EndChar
StartChar: fraction
Encoding: 8260 8260 217
Width: 700
Flags: W
HStem: -64 21G<45 85>
LayerCount: 2
Back
SplineSet
100 0 m 29
 600 700 l 1053
EndSplineSet
Fore
SplineSet
65 -64 m 1
 36 -35 l 1
 536 665 l 1
 635 764 l 1
 664 735 l 1
 164 35 l 1
 65 -64 l 1
EndSplineSet
EndChar
StartChar: bracketquillright
Encoding: 8262 8262 917
Width: 300
Flags: W
HStem: -214 21G<-5 185>
VStem: 136 128<-86 236 364 636>
LayerCount: 2
Back
SplineSet
50 300 m 25
 200 300 l 1049
50 700 m 25
 200 700 l 25
 200 -150 l 25
 50 -150 l 1033
EndSplineSet
Fore
SplineSet
-14 665 m 1
 85 764 l 1
 235 764 l 1
 264 735 l 1
 264 335 l 1
 264 -115 l 1
 165 -214 l 1
 15 -214 l 1
 -14 -185 l 1
 85 -86 l 1
 136 -86 l 1
 136 236 l 1
 15 236 l 1
 -14 265 l 1
 85 364 l 1
 136 364 l 1
 136 636 l 1
 15 636 l 1
 -14 665 l 1
EndSplineSet
EndChar
StartChar: paragraphrev
Encoding: 8267 8267 951
Width: 700
Flags: W
HStem: 486 21G<-5 35> 511 153<110.303 178.894 410 443.031> 536 128<92.7956 172.953> 536 103<414.19 483.765>
VStem: 180 40<-86 513> 261 128<-40 39 192 511> 512 128<218.156 518.032>
LayerCount: 2
Back
SplineSet
50 550 m 5
 50 550 82 600 124 600 c 7
 160 600 178 575 200 575 c 7
 228 575 250 600 251 600 c 1029
200 550 m 1
 200 -125 l 1025
400 -200 m 5
 400 -200 273 -150 175 -150 c 7
 106 -150 75 -200 75 -200 c 1029
376 150 m 21
 376 150 385.930664062 100 451 100 c 7
 536 100 576 177.895507812 576 350 c 7
 576 469 570 600 502 600 c 7
 466 600 448 575 426 575 c 7
 398 575 376 600 375 600 c 5
 325 550 l 5
 325 -75 l 1029
EndSplineSet
Fore
SplineSet
389 39 m 1xae
 389 -40 l 1
 327 -102 l 1
 387 -117 435 -136 435 -136 c 1
 464 -165 l 1
 365 -264 l 1
 365 -264 238 -214 140 -214 c 0
 108 -214 83 -226 67 -237 c 2
 40 -264 l 1
 11 -235 l 2
 11 -235 15 -229 23 -221 c 2
 23 -220 l 2
 122 -121 l 2
 133 -110 153 -97 180 -90 c 1
 180 513 l 1
 175 512 170 511 165 511 c 0xce
 143 511 125 536 89 536 c 0x9e
 76 536 65 532 54 525 c 2
 15 486 l 1
 -14 515 l 1
 -14 515 -7 526 4 537 c 2
 103 636 l 2
 116 649 136 664 159 664 c 0xce
 195 664 213 639 235 639 c 0x9e
 263 639 285 664 286 664 c 2xae
 315 635 l 1
 220 541 l 1
 220 -86 l 1
 233 -86 247 -88 261 -90 c 1
 261 515 l 1
 410 664 l 2xce
 411 664 433 639 461 639 c 0x9e
 483 639 501 664 537 664 c 0
 550 664 561 659 570 650 c 2
 599 621 l 2
 636 584 640 481 640 385 c 0
 640 272 622 199 586 163 c 2
 487 64 l 2
 468 45 445 36 416 36 c 0
 406 36 397 37 389 39 c 1xae
389 192 m 1
 411 214 l 1
 440 185 l 1
 440 185 442 180 445 173 c 1
 455 168 468 164 486 164 c 0
 489 164 493 164 496 164 c 0
 507 203 512 253 512 315 c 0
 512 398 508 487 484 533 c 0
 479 535 473 536 467 536 c 0x9e
 431 536 413 511 391 511 c 0
 390 511 389 511 389 511 c 2
 389 192 l 1
EndSplineSet
EndChar
StartChar: dotcross
Encoding: 8284 8284 954
Width: 600
Flags: W
HStem: 236 128<85 236 364 515> 549 20G<110 150 315 355 450 490>
VStem: 236 128<85 236 364 515>
LayerCount: 2
Back
SplineSet
300 550 m 25
 300 50 l 1049
50 300 m 25
 550 300 l 1049
435 505 m 25
 505 435 l 1049
435 165 m 25
 505 95 l 1049
95 505 m 25
 165 435 l 1049
95 165 m 25
 165 95 l 1049
EndSplineSet
Fore
SplineSet
31 130 m 1
 130 229 l 1
 229 130 l 1
 130 31 l 1
 31 130 l 1
31 470 m 1
 130 569 l 1
 229 470 l 1
 130 371 l 1
 31 470 l 1
371 130 m 1
 470 229 l 1
 569 130 l 1
 470 31 l 1
 371 130 l 1
371 470 m 1
 470 569 l 1
 569 470 l 1
 470 371 l 1
 371 470 l 1
-14 265 m 1
 85 364 l 1
 236 364 l 1
 236 515 l 1
 335 614 l 1
 364 585 l 1
 364 364 l 1
 585 364 l 1
 614 335 l 1
 515 236 l 1
 364 236 l 1
 364 85 l 1
 265 -14 l 1
 236 15 l 1
 236 236 l 1
 15 236 l 1
 -14 265 l 1
EndSplineSet
EndChar
StartChar: Euro
Encoding: 8364 8364 264
Width: 550
Flags: W
HStem: -64 21G<275 335> 161 128<85 86 214 315> 311 128<85 86 218 365> 644 20G<365 418.333>
LayerCount: 2
Back
SplineSet
50 225 m 25
 350 225 l 1049
50 375 m 25
 400 375 l 1053
475 525 m 9
 350 600 l 25
 150 400 l 25
 150 100 l 25
 350 0 l 25
 500 150 l 1041
EndSplineSet
Fore
SplineSet
539 560 m 1
 440 461 l 1
 315 536 l 2
 315 536 238 459 218 439 c 1
 435 439 l 1
 464 410 l 1
 365 311 l 1
 214 311 l 1
 214 289 l 1
 385 289 l 1
 414 260 l 1
 315 161 l 1
 214 161 l 1
 214 149 l 1
 385 64 l 2
 385 64 432 111 436 115 c 2
 535 214 l 1
 564 185 l 1
 315 -64 l 1
 115 36 l 1
 86 65 l 1
 86 161 l 1
 15 161 l 1
 -14 190 l 1
 85 289 l 1
 86 289 l 1
 86 311 l 1
 15 311 l 1
 -14 340 l 1
 85 439 l 1
 160 439 l 1
 385 664 l 1
 510 589 l 1
 539 560 l 1
EndSplineSet
EndChar
StartChar: minus
Encoding: 8722 8722 214
Width: 600
Flags: W
HStem: 236 128<135 465>
LayerCount: 2
Back
SplineSet
100 300 m 25
 500 300 l 1049
EndSplineSet
Fore
SplineSet
36 265 m 1
 135 364 l 1
 535 364 l 1
 564 335 l 1
 465 236 l 1
 65 236 l 1
 36 265 l 1
EndSplineSet
EndChar
StartChar: logicaland
Encoding: 8743 8743 952
Width: 600
Flags: W
HStem: -64 21G<45 85 445 485> 444 20G<315 355> 444 20G<315 355>
LayerCount: 2
Back
SplineSet
100 0 m 25
 300 400 l 25
 500 0 l 1049
EndSplineSet
Fore
SplineSet
65 -64 m 1xc0
 36 -35 l 1
 236 365 l 1
 335 464 l 1
 364 435 l 1
 564 35 l 1
 465 -64 l 1
 436 -35 l 1
 282 272 l 1
 164 35 l 1
 65 -64 l 1xc0
EndSplineSet
EndChar
StartChar: therefore
Encoding: 8756 8756 896
Width: 600
Flags: W
HStem: -64 21G<130 170 430 470>
LayerCount: 2
Back
SplineSet
415 70 m 29
 485 0 l 1053
265 350 m 25
 335 280 l 1049
115 70 m 25
 185 0 l 1049
EndSplineSet
Fore
SplineSet
51 35 m 1
 150 134 l 1
 249 35 l 1
 150 -64 l 1
 51 35 l 1
201 315 m 1
 300 414 l 1
 399 315 l 1
 300 216 l 1
 201 315 l 1
351 35 m 1
 450 134 l 1
 549 35 l 1
 450 -64 l 1
 351 35 l 1
EndSplineSet
EndChar
StartChar: because
Encoding: 8757 8757 897
Width: 600
Flags: MW
LayerCount: 4
Fore
SplineSet
415 350 m 25
 485 280 l 1049
115 350 m 25
 185 280 l 1049
265 70 m 25
 335 0 l 1049
EndSplineSet
EndChar
StartChar: proportion
Encoding: 8759 8759 898
Width: 600
Flags: MW
LayerCount: 4
Fore
SplineSet
415 350 m 25
 485 280 l 1049
415 70 m 25
 485 0 l 1049
115 350 m 25
 185 280 l 1049
115 70 m 25
 185 0 l 1049
EndSplineSet
EndChar
StartChar: bracketangleright
Encoding: 9297 9297 931
Width: 400
Flags: W
HStem: -214 21G<-5 35>
LayerCount: 2
Back
SplineSet
75 675 m 21
 75 675 155.283203125 553.91796875 175 525 c 4
 220 459 350 250 350 250 c 5
 350 250 196 60 150 0 c 4
 133.083984375 -22.064453125 50 -150 50 -150 c 1037
EndSplineSet
Fore
SplineSet
110 739 m 1
 139 710 l 1
 139 710 219 589 239 560 c 0
 284 494 414 285 414 285 c 1
 414 285 260 95 214 35 c 0
 197 13 114 -115 114 -115 c 1
 15 -214 l 1
 -14 -185 l 1
 -14 -185 69 -57 86 -35 c 0
 132 25 286 215 286 215 c 1
 286 215 156 424 111 490 c 0
 91 519 11 640 11 640 c 1
 110 739 l 1
EndSplineSet
EndChar
StartChar: FleuronCenter
Encoding: 10086 10086 955
Width: 700
Flags: W
HStem: -64 21G<306.5 361.5> 494 20G<219 243> 511 128<513 590> 517 129<506.68 590> 521 132<219.733 346> 536 128<110 197.267>
VStem: 11 378<108 287>
LayerCount: 2
Back
SplineSet
400 700 m 5
 400 700 450 644 450 600 c 27
 450 521 350 425 350 425 c 1025
50 575 m 25
 75 600 l 25
 625 575 l 25
 650 600 l 1049
550 100 m 1
 550 100 459 0 350 0 c 3
 229 0 75 141 75 300 c 27
 75 376 124 450 200 450 c 27
 262 450 300 325 300 325 c 1
 300 325 338 450 400 450 c 27
 455 450 500 399 500 350 c 3
 500 277.390625 436.303710938 243.852539062 375 200 c 8
 332 169 325 128 325 75 c 19
 325 47.4769851995 375 25 375 25 c 1025
EndSplineSet
Fore
SplineSet
430 69 m 1xa2
 496 85 550 130 573 152 c 2
 585 164 l 1
 614 135 l 1
 614 135 612 132 609 129 c 2
 510 30 l 2
 489 9 408 -64 315 -64 c 0
 298 -64 281 -61 264 -56 c 0
 219 -43 174 -15 136 23 c 2
 107 52 l 2
 106 52 l 0
 51 107 11 184 11 265 c 0
 11 309 27 352 56 381 c 2
 155 480 l 2
 176 501 203 514 235 514 c 0
 251 514 266 506 279 493 c 2
 308 464 l 1
 308 463 l 0
 315 456 322 447 328 438 c 1
 346 461 366 491 377 521 c 1xca
 40 536 l 1x86
 15 511 l 1xa2
 -14 540 l 1
 110 664 l 1x86
 346 653 l 1x8a
 340 660 336 665 336 665 c 1
 435 764 l 1
 464 735 l 1
 464 735 506 688 513 646 c 1x92
 660 639 l 2xa2
 660 639 682 661 685 664 c 2x86
 714 635 l 1
 590 511 l 1xa2
 463 517 l 2x92
 461 515 460 513 459 511 c 1
 476 506 491 497 504 484 c 2
 533 455 l 2
 552 436 564 410 564 385 c 0
 564 350 549 324 526 301 c 2
 427 202 l 2
 418 193 407 184 396 176 c 1
 390 156 389 134 389 110 c 0
 389 106 390 102 391 99 c 0
 401 92 410 89 410 89 c 2
 430 69 l 1xa2
EndSplineSet
EndChar
StartChar: FleuronRight
Encoding: 10087 10087 956
Width: 800
Flags: W
HStem: -64 21G<120 160> -39 553<376.417 499.695> 544 20G<165 205 665 690>
LayerCount: 2
Back
SplineSet
50 150 m 29
 75 200 l 29
 325 300 l 1049
175 0 m 25
 150 25 l 25
 175 475 l 25
 150 500 l 1049
650 500 m 1
 650 500 750 409 750 300 c 3
 750 179 609 25 450 25 c 27
 374 25 300 74 300 150 c 27
 300 212 425 250 425 250 c 1
 425 250 300 288 300 350 c 27
 300 405 351 450 400 450 c 3
 473 450 506 386 550 325 c 8
 581 282 622 275 675 275 c 19
 703 275 725 325 725 325 c 1025
EndSplineSet
Fore
SplineSet
671 341 m 1
 651 393 616 434 598 453 c 2
 586 465 l 1
 685 564 l 1
 685 564 687 562 690 559 c 2
 719 530 l 2
 738 511 801 443 812 360 c 0
 813 352 814 343 814 335 c 0
 814 276 780 209 727 156 c 2
 628 57 l 2
 628 56 l 2
 572 1 496 -39 415 -39 c 0
 371 -39 328 -23 299 6 c 2
 270 35 l 2
 269 36 l 0
 248 57 236 83 236 115 c 0
 236 131 244 146 257 159 c 2
 317 219 l 1
 308 225 299 231 291 238 c 1
 290 236 l 1
 222 209 l 1
 214 60 l 1
 239 35 l 1
 140 -64 l 1
 86 -10 l 1
 95 158 l 1
 82 153 l 1
 15 86 l 1
 -14 115 l 1
 11 165 l 1
 101 255 l 1
 111 440 l 2
 112 453 93 458 86 465 c 1
 185 564 l 1
 239 510 l 1
 228 311 l 1
 236 314 l 2
 236 315 l 0
 236 342 248 366 266 384 c 2
 365 483 l 2
 384 502 410 514 435 514 c 0
 470 514 497 499 519 477 c 2
 548 448 l 2
 572 424 592 392 614 361 c 1
 631 350 650 344 671 341 c 1
EndSplineSet
EndChar
StartChar: bracketwhiteleft
Encoding: 10214 10214 918
Width: 400
Flags: W
HStem: -214 128<164 204 246 315> 636 128<164 204 246 315>
VStem: 36 128<-86 636> 204 42<-86 636>
LayerCount: 2
Back
SplineSet
225 650 m 25
 225 -100 l 1049
350 700 m 25
 100 700 l 25
 100 -150 l 25
 350 -150 l 1033
EndSplineSet
Fore
SplineSet
414 735 m 1
 315 636 l 1
 246 636 l 1
 246 -86 l 1
 385 -86 l 1
 414 -115 l 1
 315 -214 l 1
 65 -214 l 1
 36 -185 l 1
 36 665 l 1
 135 764 l 1
 385 764 l 1
 414 735 l 1
204 636 m 1
 164 636 l 1
 164 -86 l 1
 204 -86 l 1
 204 636 l 1
EndSplineSet
EndChar
StartChar: luslst
Encoding: 11788 11788 902
Width: 300
Flags: W
VStem: -14 328
LayerCount: 2
Back
SplineSet
50 700 m 25
 250 450 l 1049
EndSplineSet
Fore
SplineSet
85 764 m 1
 114 735 l 1
 314 485 l 1
 215 386 l 1
 186 415 l 1
 -14 665 l 1
 85 764 l 1
EndSplineSet
EndChar
StartChar: barquillright
Encoding: 11809 11809 921
Width: 300
Flags: MW
LayerCount: 4
Fore
SplineSet
50 300 m 25
 200 300 l 1049
200 700 m 25
 200 -150 l 1049
EndSplineSet
EndChar
StartChar: bracketbottomleft
Encoding: 11812 11812 924
Width: 300
Flags: W
HStem: -214 21G<45 235>
VStem: 36 128<-86 265>
LayerCount: 2
Back
SplineSet
100 300 m 1
 100 -150 l 9
 250 -150 l 1033
EndSplineSet
Fore
SplineSet
135 364 m 1
 164 335 l 1
 164 -86 l 1
 285 -86 l 1
 314 -115 l 1
 215 -214 l 1
 65 -214 l 1
 36 -185 l 1
 36 265 l 1
 135 364 l 1
EndSplineSet
EndChar
StartChar: bracketbottomright
Encoding: 11813 11813 925
Width: 300
Flags: W
HStem: -214 21G<-5 185>
VStem: 136 128<-86 265>
LayerCount: 2
Back
SplineSet
200 300 m 1
 200 -150 l 9
 50 -150 l 1033
EndSplineSet
Fore
SplineSet
235 364 m 1
 264 335 l 1
 264 -115 l 1
 165 -214 l 1
 15 -214 l 1
 -14 -185 l 1
 85 -86 l 1
 136 -86 l 1
 136 265 l 1
 235 364 l 1
EndSplineSet
EndChar
StartChar: fivedots
Encoding: 11821 11821 935
Width: 600
Flags: W
HStem: 449 20G<280 320>
LayerCount: 2
Back
SplineSet
265 210 m 25
 335 140 l 1049
460 210 m 29
 530 140 l 1053
265 15 m 25
 335 -55 l 1049
265 405 m 25
 335 335 l 1049
70 210 m 25
 140 140 l 1049
EndSplineSet
Fore
SplineSet
6 175 m 1
 105 274 l 1
 202 176 l 1
 299 272 l 1
 201 370 l 1
 300 469 l 1
 399 370 l 1
 301 272 l 1
 397 176 l 1
 495 274 l 1
 594 175 l 1
 495 76 l 1
 397 174 l 1
 301 77 l 1
 399 -20 l 1
 300 -119 l 1
 201 -20 l 1
 299 77 l 1
 202 174 l 1
 105 76 l 1
 6 175 l 1
EndSplineSet
EndChar
StartChar: a_a
Encoding: 42803 42803 336
Width: 600
Flags: W
HStem: -64 21G<120 160 320 360 470 510> 444 20G<190 310 390 510> 444 20G<190 310 390 510>
VStem: 236 128<110 161 297 317> 436 128<90 161 297 317>
AnchorPoint: "abvmark" 300 500 basechar 0
AnchorPoint: "blwmark" 300 0 basechar 0
LayerCount: 2
Back
SplineSet
300 325 m 1
 375 400 l 1
 500 375 l 1
 500 25 l 1
 525 0 l 1
 575 50 l 1049
500 125 m 25
 375 0 l 1
 300 75 l 1
 300 175 l 1
 375 250 l 1
 375 250 393.963867188 225 450 225 c 3
 469.00390625 225 500 225 500 225 c 1033
125 250 m 17
 100 325 l 1
 175 400 l 1
 300 375 l 1
 300 125 l 9
 175 0 l 1
 100 75 l 1
 100 175 l 1
 175 250 l 1
 175 250 193.964297096 225 250 225 c 3
 269.004218286 225 300 225 300 225 c 1033
EndSplineSet
Fore
SplineSet
86 190 m 1xd8
 61 215 l 1
 36 290 l 1
 210 464 l 1
 335 439 l 1
 360 414 l 1
 410 464 l 1
 535 439 l 1
 564 410 l 1
 564 260 l 1
 564 160 l 1
 564 68 l 1
 610 114 l 1
 639 85 l 1
 490 -64 l 1
 436 -10 l 1
 436 32 l 1
 340 -64 l 1
 240 36 l 1
 140 -64 l 1
 36 40 l 1
 36 140 l 1
 86 190 l 1xd8
236 161 m 1
 215 161 l 2
 192 161 176 165 164 170 c 1
 164 110 l 1
 210 64 l 1
 236 90 l 1
 236 140 l 1
 236 161 l 1
187 291 m 1
 210 314 l 1
 214 310 l 2
 218 306 225 301 236 297 c 1
 236 317 l 1
 174 329 l 1
 187 291 l 1
364 160 m 1
 364 110 l 1
 410 64 l 1
 436 90 l 1
 436 161 l 1
 415 161 l 2
 392 161 376 165 364 170 c 1
 364 160 l 1
364 268 m 1
 410 314 l 1
 414 310 l 2
 418 306 425 301 436 297 c 1
 436 317 l 1
 364 331 l 1
 364 268 l 1
EndSplineSet
LCarets2: 1 300 
Ligature2: "Historic ligatures-1" a a
EndChar
StartChar: a_o
Encoding: 42805 42805 341
Width: 600
Flags: W
HStem: -64 21G<120 159.823 345 385> 444 20G<190 310 415 455> 444 20G<190 310 415 455>
VStem: 236 128<98.1606 161 297 317> 436 128<135 301.839>
AnchorPoint: "blwmark" 300 0 basechar 0
AnchorPoint: "abvmark" 300 500 basechar 0
LayerCount: 2
Back
SplineSet
125 250 m 21
 100 325 l 5
 175 400 l 5
 300 375 l 5
 300 125 l 13
 175 0 l 5
 100 75 l 5
 100 175 l 5
 175 250 l 5
 175 250 193.964297096 225 250 225 c 7
 269.004218286 225 300 225 300 225 c 1037
400 400 m 25
 300 300 l 25
 300 100 l 25
 400 0 l 25
 500 100 l 25
 500 300 l 25
 400 400 l 25
EndSplineSet
Fore
SplineSet
86 190 m 1xd8
 61 215 l 1
 36 290 l 1
 210 464 l 1
 335 439 l 1
 364 410 l 1
 364 393 l 1
 435 464 l 1
 564 335 l 1
 564 135 l 1
 365 -64 l 1
 252 49 l 1
 140 -64 l 1
 36 40 l 1
 36 140 l 1
 86 190 l 1xd8
187 291 m 1
 210 314 l 1
 214 310 l 2
 218 306 225 301 236 297 c 1
 236 317 l 1
 174 329 l 1
 187 291 l 1
364 160 m 1
 364 135 l 2
 364 97 414 85 435 64 c 1
 436 65 l 1
 436 265 l 2
 436 303 386 315 365 336 c 1
 364 335 l 1
 364 160 l 1
236 90 m 1
 236 161 l 1
 215 161 l 2
 192 161 176 165 164 170 c 1
 164 110 l 1
 210 64 l 1
 236 90 l 1
EndSplineSet
LCarets2: 1 300 
Ligature2: "Historic ligatures-1" a o
EndChar
StartChar: a_u
Encoding: 42807 42807 344
Width: 600
Flags: MW
AnchorPoint: "blwmark" 300 0 basechar 0
AnchorPoint: "abvmark" 300 500 basechar 0
LayerCount: 4
Fore
SplineSet
300 125 m 9
 175 0 l 1
 100 75 l 1
 100 175 l 1
 175 250 l 1
 175 250 193.964297096 225 250 225 c 3
 269.004218286 225 300 225 300 225 c 1033
575 50 m 25
 525 0 l 1
 500 25 l 17
 500 365 l 1025
535 330 m 25
 465 400 l 1049
500 125 m 25
 375 0 l 25
 300 75 l 1
 300 375 l 17
 175 400 l 1
 100 325 l 1
 125 250 l 1033
EndSplineSet
LCarets2: 1 300 
Ligature2: "Historic ligatures-1" a u
EndChar
StartChar: avslash
Encoding: 42811 42811 861
Width: 600
Flags: W
HStem: -64 21G<120 159.823 345 385> 186 128<364 436> 444 20G<190 310> 444 20G<190 310 516.19 560>
VStem: 386 128<414.5 513> 436 128<135 186 314 340>
AnchorPoint: "abvmark" 300 500 basechar 0
AnchorPoint: "blwmark" 300 0 basechar 0
LayerCount: 2
Back
SplineSet
300 250 m 25
 550 250 l 1049
300 125 m 9
 175 0 l 1
 100 75 l 1
 100 175 l 1
 175 250 l 1
 175 250 193.964297096 225 250 225 c 3
 269.004218286 225 300 225 300 225 c 1033
505 550 m 25
 504 550 450 514 450 472 c 16
 450 423 500 375 500 375 c 25
 500 100 l 1
 400 0 l 25
 300 100 l 1
 300 375 l 17
 175 400 l 1
 100 325 l 1
 125 250 l 1033
EndSplineSet
Fore
SplineSet
569 585 m 1xe8
 525 541 l 2
 518 530 514 519 514 507 c 0xe8
 514 464 553 421 562 412 c 2
 564 410 l 1
 564 314 l 1
 585 314 l 1
 614 285 l 1
 564 235 l 1
 564 135 l 1
 365 -64 l 1
 252 49 l 1
 140 -64 l 1
 36 40 l 1
 36 140 l 1
 86 190 l 1
 61 215 l 1
 36 290 l 1
 210 464 l 1
 335 439 l 1
 364 410 l 1
 364 314 l 1
 436 314 l 1
 436 340 l 1xe4
 435 341 l 2
 429 347 386 392 386 437 c 0
 386 459 402 480 416 494 c 2
 515 593 l 2
 528 606 540 614 540 614 c 2
 569 585 l 1xe8
236 90 m 1
 236 161 l 1
 215 161 l 2
 192 161 176 165 164 170 c 1
 164 110 l 1
 210 64 l 1
 236 90 l 1
236 297 m 1
 236 317 l 1
 174 329 l 1
 187 291 l 1
 210 314 l 1
 214 310 l 2
 218 306 225 301 236 297 c 1
364 160 m 1
 364 135 l 1
 435 64 l 1
 436 65 l 1
 436 186 l 1xc4
 364 186 l 1
 364 160 l 1
EndSplineSet
EndChar
StartChar: oeloop
Encoding: 42829 42829 867
Width: 550
Flags: W
HStem: -64 21G<145 185> 444 20G<215 255 415 455> 444 20G<215 255 415 455>
VStem: 36 128<135 265> 236 128<193 265>
AnchorPoint: "abvmark" 300 500 basechar 0
AnchorPoint: "blwmark" 300 0 basechar 0
LayerCount: 2
Back
SplineSet
300 100 m 25
 300 300 l 25
 400 400 l 25
 500 300 l 1
 300 100 l 25
 200 0 l 1
 100 100 l 25
 100 300 l 25
 200 400 l 25
 300 300 l 1041
EndSplineSet
Fore
SplineSet
335 364 m 1xd8
 435 464 l 1
 564 335 l 1
 165 -64 l 1
 36 65 l 1
 36 265 l 1
 235 464 l 1
 335 364 l 1xd8
364 193 m 1
 436 265 l 1
 365 336 l 1
 364 335 l 1
 364 193 l 1
236 265 m 1
 165 336 l 1
 164 335 l 1
 164 135 l 1
 235 64 l 1
 236 65 l 1
 236 265 l 1
EndSplineSet
EndChar
StartChar: pflourish
Encoding: 42835 42835 869
Width: 500
Flags: W
HStem: -214 21G<-30 2 145 185> -64 21G<264 285> 444 20G<180 220 315.294 355> 444 20G<180 220 315.294 355>
VStem: 136 128<-115 -63 159 330> 336 128<135 265>
AnchorPoint: "abvmark" 300 500 basechar 0
LayerCount: 2
Back
SplineSet
200 300 m 25
 300 400 l 1
 400 300 l 25
 400 100 l 1
 300 0 l 1
 300 0 232 100 25 100 c 1
 25 100 75 44 75 0 c 3
 75 -132 25 -150 25 -150 c 1033
165 400 m 25
 235 330 l 1049
200 365 m 1
 200 -150 l 1025
EndSplineSet
Fore
SplineSet
235 429 m 1xec
 264 400 l 1
 268 396 l 1
 335 464 l 1
 464 335 l 1
 464 135 l 1
 265 -64 l 1
 264 -63 l 1
 264 -115 l 1
 165 -214 l 1
 136 -185 l 1
 136 -16 l 1
 129 -69 113 -94 101 -106 c 2
 2 -205 l 2
 -5 -212 -10 -214 -10 -214 c 1
 -39 -185 l 1
 -15 -161 l 1
 -3 -141 11 -103 11 -35 c 0
 11 9 -39 65 -39 65 c 1
 60 164 l 1
 88 164 113 162 136 159 c 1
 136 265 l 1
 136 330 l 1
 101 365 l 1
 200 464 l 1
 235 429 l 1xec
264 330 m 1
 264 120 l 1
 293 105 312 89 323 78 c 0
 327 74 332 69 336 65 c 1
 336 265 l 1
 267 334 l 1
 264 330 l 1
EndSplineSet
EndChar
StartChar: psquirrel
Encoding: 42837 42837 870
Width: 500
Flags: W
HStem: -214 21G<145 185> -64 21G<264 285> 444 20G<40 80 180 220 315.294 355> 444 20G<40 80 180 220 315.294 355>
VStem: 136 128<-115 -63 113 212 290 330> 336 128<135 265>
AnchorPoint: "abvmark" 300 500 basechar 0
LayerCount: 2
Back
SplineSet
200 300 m 25
 300 400 l 1
 400 300 l 25
 400 100 l 1
 300 0 l 1
 300 0 298 50 25 50 c 1
 25 50 75 156 75 200 c 3
 75 332 25 400 25 400 c 1033
165 400 m 25
 235 330 l 1049
200 365 m 1
 200 -150 l 1025
EndSplineSet
Fore
SplineSet
235 429 m 1xec
 264 400 l 1
 268 396 l 1
 335 464 l 1
 464 335 l 1
 464 135 l 1
 265 -64 l 1
 264 -63 l 1
 264 -115 l 1
 165 -214 l 1
 136 -185 l 1
 136 -20 l 1
 99 -16 51 -14 -10 -14 c 1
 -39 15 l 1
 -39 15 11 121 11 165 c 0
 11 175 11 185 10 195 c 0
 3 307 -39 365 -39 365 c 1
 60 464 l 1
 89 435 l 1
 89 435 103 417 116 380 c 1
 200 464 l 1
 235 429 l 1xec
136 330 m 1
 128 338 l 1
 131 323 134 308 136 290 c 2
 136 330 l 1
264 330 m 1
 264 99 l 1
 305 90 323 79 330 72 c 2
 336 66 l 1
 336 265 l 1
 267 334 l 1
 264 330 l 1
136 113 m 1
 136 212 l 1
 129 181 113 141 102 114 c 1
 114 114 125 113 136 113 c 1
EndSplineSet
EndChar
StartChar: qbar
Encoding: 42839 42839 871
Width: 400
Flags: MW
AnchorPoint: "abvmark" 225 500 basechar 0
LayerCount: 4
Fore
SplineSet
375 -75 m 25
 200 -75 l 1049
300 100 m 9
 200 0 l 25
 100 100 l 25
 100 300 l 25
 200 400 l 1
 200 400 222 360 250 360 c 24
 278 360 300 400 300 400 c 9
 300 -150 l 1049
EndSplineSet
EndChar
StartChar: qslash
Encoding: 42841 42841 872
Width: 400
Flags: W
HStem: -214 21G<120 160 245 285> -64 21G<145 185> 444 20G<215 255 315 355> 444 20G<215 255 315 355>
VStem: 36 128<135 265> 236 128<-60 7 68 303>
AnchorPoint: "abvmark" 225 500 basechar 0
LayerCount: 2
Back
SplineSet
300 100 m 9
 200 0 l 25
 100 100 l 25
 100 300 l 25
 200 400 l 1
 200 400 222 360 250 360 c 24
 278 360 300 400 300 400 c 9
 300 -150 l 1049
375 50 m 25
 175 -150 l 1049
EndSplineSet
Fore
SplineSet
410 114 m 1xec
 439 85 l 1
 364 10 l 1
 364 -115 l 1
 265 -214 l 1
 236 -185 l 1
 236 -118 l 1
 140 -214 l 1
 111 -185 l 1
 236 -60 l 1
 236 7 l 1
 165 -64 l 1
 36 65 l 1
 36 265 l 1
 235 464 l 1
 264 435 l 1
 264 435 266 432 268 429 c 0
 274 426 279 424 285 424 c 0
 289 424 295 426 298 427 c 2
 335 464 l 1
 364 435 l 1
 364 68 l 1
 410 114 l 1xec
236 63 m 1
 236 303 l 1
 230 299 222 296 215 296 c 0
 203 296 193 304 184 312 c 0
 183 312 l 2
 164 331 l 1
 164 135 l 1
 236 63 l 1
EndSplineSet
EndChar
StartChar: rumrotunda
Encoding: 42845 42845 705
Width: 500
Flags: W
HStem: -214 21G<145 185> -64 21G<145 185 334.5 353> 444 20G<115 155> 444 20G<115 155>
LayerCount: 2
Back
SplineSet
300 225 m 1
 350 200 l 1
 350 200 350 139 350 100 c 27
 350 3 200 -150 200 -150 c 1025
450 50 m 17
 450 50 431 0 375 0 c 3
 281 0 250 50 250 50 c 9
 200 0 l 1
 100 200 l 25
 200 300 l 1
 100 400 l 1
 50 350 l 1049
EndSplineSet
Fore
SplineSet
485 114 m 1xe0
 514 85 l 1
 514 85 509 71 496 58 c 2
 397 -41 l 2
 396 -41 l 0
 384 -53 366 -64 340 -64 c 0
 329 -64 320 -63 311 -62 c 1
 285 -94 264 -115 264 -115 c 2
 165 -214 l 1
 136 -185 l 1
 136 -185 204 -116 248 -42 c 1
 237 -36 228 -29 223 -24 c 2
 214 -15 l 1
 165 -64 l 1
 136 -35 l 1
 36 165 l 1
 136 265 l 1
 65 336 l 1
 15 286 l 1
 -14 315 l 1
 135 464 l 1
 264 335 l 1
 164 235 l 1
 245 74 l 1
 285 114 l 1
 286 113 l 1
 286 151 l 1
 265 161 l 1
 236 190 l 1
 335 289 l 1
 385 264 l 1
 414 235 l 1
 414 135 l 2
 414 113 406 89 395 64 c 1
 400 64 405 64 410 64 c 0
 422 64 431 66 441 70 c 1
 485 114 l 1xe0
EndSplineSet
EndChar
StartChar: vslash
Encoding: 42847 42847 873
Width: 400
Flags: W
HStem: -64 21G<145 185> 444 20G<80 120> 464 130G<80 120 319 360>
VStem: 36 128<98.1606 132 190 260 318 330> 186 128<420 513.5> 236 128<135 332>
LayerCount: 2
Back
SplineSet
135 330 m 25
 65 400 l 1049
100 365 m 25
 100 100 l 1
 200 0 l 25
 300 100 l 1
 300 375 l 25
 280 413 250 423 250 472 c 8
 250 509 305 550 305 550 c 1033
225 350 m 25
 25 150 l 1049
EndSplineSet
Fore
SplineSet
135 429 m 1xd4
 164 400 l 1
 199 365 l 1
 164 330 l 1
 164 318 l 1
 216 370 l 1
 201 389 186 403 186 437 c 0
 186 458 204 481 219 496 c 2
 318 595 l 2
 319 596 l 2
 331 608 340 614 340 614 c 2
 369 585 l 1
 330 546 l 2
 322 535 314 520 314 507 c 0xd8
 314 458 344 448 364 410 c 1
 364 135 l 1
 165 -64 l 1
 36 65 l 1
 36 132 l 1
 -10 86 l 1
 -39 115 l 1
 36 190 l 1
 36 330 l 1
 1 365 l 1
 100 464 l 1
 135 429 l 1xd4
236 332 m 1x94
 164 260 l 1
 164 135 l 2
 164 97 214 85 235 64 c 1
 236 65 l 1
 236 332 l 1x94
EndSplineSet
EndChar
StartChar: y_y
Encoding: 42849 42849 834
Width: 600
Flags: MW
AnchorPoint: "abvmark" 300 500 basechar 0
LayerCount: 4
Fore
SplineSet
335 330 m 25
 265 400 l 1049
535 330 m 29
 465 400 l 1053
50 -200 m 17
 50 -200 87 -150 125 -150 c 8
 244 -150 306 -200 425 -200 c 24
 460 -200 500 -150 500 -150 c 1
 500 365 l 1029
500 100 m 9
 400 0 l 25
 300 100 l 1
 300 365 l 1049
135 330 m 25
 65 400 l 1049
300 100 m 9
 200 0 l 25
 100 100 l 1
 100 365 l 1049
EndSplineSet
LCarets2: 1 300 
Ligature2: "Historic ligatures-1" y y
EndChar
StartChar: zvisigoth
Encoding: 42851 42851 839
Width: 350
Flags: W
HStem: -214 128<32.5 126> 444 20G<215 255> 444 20G<215 255>
VStem: 186 128<-115 -54>
AnchorPoint: "abvmark" 200 500 basechar 0
LayerCount: 2
Back
SplineSet
300 300 m 9
 200 400 l 25
 100 300 l 1
 100 200 l 25
 200 150 l 25
 100 50 l 1
 250 0 l 1
 250 -150 l 1
 250 -150 203 -200 175 -200 c 0
 143 -200 119 -150 75 -150 c 16
 37 -150 0 -200 0 -200 c 1025
EndSplineSet
Fore
SplineSet
364 335 m 1xd0
 265 236 l 1
 165 336 l 1
 164 335 l 1
 164 249 l 1
 235 214 l 1
 264 185 l 1
 178 99 l 1
 285 64 l 1
 314 35 l 1
 314 -115 l 1
 314 -115 313 -116 310 -119 c 2
 211 -218 l 2
 199 -230 163 -264 140 -264 c 0
 108 -264 84 -214 40 -214 c 0
 25 -214 10 -222 -2 -231 c 2
 -35 -264 l 1
 -64 -235 l 1
 -64 -235 -58 -227 -48 -217 c 2
 51 -118 l 2
 65 -104 87 -86 110 -86 c 0
 142 -86 164 -114 186 -128 c 1
 186 -54 l 1
 65 -14 l 1
 36 15 l 1
 126 105 l 1
 65 136 l 1
 36 165 l 1
 36 265 l 1
 235 464 l 1
 364 335 l 1xd0
EndSplineSet
EndChar
StartChar: thornbar
Encoding: 42853 42853 874
Width: 400
Flags: W
HStem: -214 21G<45 85> -64 21G<-5 27 164 185> 444 20G<215 255> 444 20G<215 255>
VStem: 36 128<-115 -63 105.765 335 393 411 539 555> 236 128<135 301.839>
AnchorPoint: "abvmark" 200 700 basechar 0
LayerCount: 2
Back
SplineSet
50 0 m 1
 50 0 96 50 125 50 c 0
 154 50 200 0 200 0 c 9
 300 100 l 1
 300 300 l 25
 200 400 l 1
 100 300 l 1049
65 625 m 25
 135 555 l 1049
100 590 m 1
 100 -150 l 1025
200 475 m 25
 25 475 l 1049
EndSplineSet
Fore
SplineSet
264 510 m 1xec
 165 411 l 1
 164 411 l 1
 164 393 l 1
 235 464 l 1
 364 335 l 1
 364 135 l 1
 165 -64 l 1
 164 -63 l 1
 164 -115 l 1
 65 -214 l 1
 36 -185 l 1
 36 -44 l 2
 33 -47 30 -50 27 -52 c 2
 15 -64 l 1
 -14 -35 l 1
 -14 -35 -12 -33 -8 -29 c 2
 36 15 l 1
 36 265 l 1
 36 411 l 1
 -10 411 l 1
 -39 440 l 1
 36 515 l 1
 36 555 l 1
 1 590 l 1
 100 689 l 1
 135 654 l 1
 164 625 l 1
 199 590 l 1
 164 555 l 1
 164 539 l 1
 235 539 l 1
 264 510 l 1xec
164 335 m 1
 164 114 l 1
 186 111 216 83 229 70 c 2
 235 64 l 1
 236 65 l 1
 236 265 l 2
 236 303 186 315 165 336 c 1
 164 335 l 1
EndSplineSet
EndChar
StartChar: vend
Encoding: 42857 42857 876
Width: 400
Flags: W
HStem: -214 21G<45 85> 444 20G<80 120 245 285> 444 20G<80 120 245 285>
VStem: 36 128<-115 -93 -35 35 93 330> 236 128<235 323.034>
AnchorPoint: "abvmark" 200 500 basechar 0
LayerCount: 2
Back
SplineSet
50 -50 m 9
 300 200 l 1
 300 330 l 25
 230 400 l 1025
65 400 m 25
 135 330 l 1049
100 365 m 1
 100 -150 l 1025
EndSplineSet
Fore
SplineSet
135 429 m 1xd8
 164 400 l 1
 182 381 l 1
 265 464 l 1
 364 365 l 1
 364 235 l 1
 164 35 l 1
 164 -115 l 1
 65 -214 l 1
 36 -185 l 1
 36 -93 l 1
 15 -114 l 1
 -14 -85 l 1
 36 -35 l 1
 36 330 l 1
 1 365 l 1
 100 464 l 1
 135 429 l 1xd8
164 330 m 1
 164 93 l 1
 236 165 l 1
 236 295 l 2
 236 317 207 324 195 336 c 2
 182 349 l 1
 164 330 l 1
EndSplineSet
EndChar
StartChar: etfin
Encoding: 42859 42859 959
Width: 350
Flags: W
HStem: 444 20G<140 185> 444 20G<140 185>
LayerCount: 2
Back
SplineSet
50 325 m 25
 125 400 l 1
 250 300 l 1
 100 150 l 1
 250 100 l 1
 250 0 l 5
 0 -200 l 1025
EndSplineSet
Fore
SplineSet
15 261 m 1x80
 -14 290 l 1
 160 464 l 1
 285 364 l 1
 314 335 l 1
 178 199 l 1
 285 164 l 1
 314 135 l 1
 314 35 l 1
 215 -64 l 1
 -35 -264 l 1
 -64 -235 l 1
 35 -136 l 1
 186 -15 l 1
 186 46 l 1
 65 86 l 1
 36 115 l 1
 183 262 l 1
 90 336 l 1
 15 261 l 1x80
EndSplineSet
EndChar
StartChar: con
Encoding: 42863 42863 890
Width: 400
Flags: W
HStem: -214 21G<195 235> -64 21G<145 185> 444 20G<215 255> 444 20G<215 255>
VStem: 36 128<98.1606 265> 236 128<-65 7 63 301.839>
LayerCount: 2
Back
SplineSet
250 -150 m 25
 300 -100 l 1
 300 300 l 9
 200 400 l 1
 100 300 l 25
 100 100 l 25
 200 0 l 1049
EndSplineSet
Fore
SplineSet
236 63 m 1xcc
 236 265 l 2
 236 303 186 315 165 336 c 1
 164 335 l 1
 164 135 l 2
 164 97 214 85 235 64 c 2
 236 63 l 1xcc
236 7 m 1
 165 -64 l 1
 36 65 l 1
 36 265 l 1
 235 464 l 1xec
 364 335 l 1
 364 -65 l 1
 215 -214 l 1
 186 -185 l 1
 236 -135 l 1
 236 7 l 1
EndSplineSet
EndChar
StartChar: lum
Encoding: 42866 42866 573
Width: 425
Flags: MW
LayerCount: 4
Fore
SplineSet
225 225 m 1
 275 200 l 1
 275 200 275 139 275 100 c 27
 275 3 125 -150 125 -150 c 1025
375 50 m 17
 375 50 356 0 300 0 c 3
 206 0 185 50 185 50 c 9
 135 0 l 25
 65 70 l 1025
65 625 m 25
 135 555 l 1049
100 590 m 9
 100 35 l 1049
EndSplineSet
EndChar
StartChar: num
Encoding: 42868 42868 597
Width: 625
Flags: W
HStem: -214 21G<270 310> -64 21G<80 120 280 320 459.5 478> 444 20G<80 120 240 280> 444 20G<80 120 240 280>
VStem: 36 128<70 310> 236 128<70 187 193 319.643>
LayerCount: 2
Back
SplineSet
425 225 m 1
 475 200 l 1
 475 200 475 139 475 100 c 27
 475 3 325 -150 325 -150 c 1025
575 50 m 17
 575 50 556 0 500 0 c 3
 406 0 385 50 385 50 c 1
 335 0 l 25
 265 70 l 1025
300 35 m 1
 300 325 l 25
 225 400 l 1
 100 275 l 1049
65 70 m 25
 135 0 l 1049
135 330 m 25
 65 400 l 1049
100 365 m 9
 100 35 l 1025
EndSplineSet
Fore
SplineSet
135 429 m 1xec
 164 400 l 1
 180 384 l 1
 260 464 l 1
 364 360 l 1
 364 193 l 1
 460 289 l 1
 510 264 l 1
 539 235 l 1
 539 135 l 2
 539 113 531 89 520 64 c 1
 525 64 530 64 535 64 c 0
 547 64 556 66 566 70 c 1
 610 114 l 1
 639 85 l 1
 639 85 634 71 621 58 c 2
 522 -41 l 2
 521 -41 l 0
 509 -53 491 -64 465 -64 c 0
 454 -64 445 -63 436 -62 c 1
 410 -94 389 -115 389 -115 c 2
 290 -214 l 1
 261 -185 l 1
 261 -185 330 -115 374 -40 c 1
 369 -37 365 -33 362 -30 c 2
 348 -16 l 1
 300 -64 l 1
 265 -29 l 1
 236 -0 l 1
 201 35 l 1
 236 70 l 1
 236 290 l 2
 236 314 203 323 190 336 c 1
 164 310 l 1
 164 70 l 1
 199 35 l 1
 100 -64 l 1
 65 -29 l 1
 36 -0 l 1
 1 35 l 1
 36 70 l 1
 36 240 l 1
 36 330 l 1
 1 365 l 1
 100 464 l 1
 135 429 l 1xec
364 70 m 1
 370 64 l 1
 411 105 l 1
 411 151 l 1
 390 161 l 1
 364 187 l 1
 364 70 l 1
EndSplineSet
EndChar
StartChar: Rumsmallcap
Encoding: 42870 42870 858
Width: 650
Flags: W
HStem: -214 21G<295 335> -64 21G<80 120 295 335 484.5 503> 444 20G<80 120 215.294 265> 444 20G<80 120 215.294 265>
VStem: 36 128<70 87 143 330>
LayerCount: 2
Back
SplineSet
450 225 m 1
 500 200 l 1
 500 200 500 139 500 100 c 27
 500 3 350 -150 350 -150 c 1025
600 50 m 17
 600 50 581 0 525 0 c 3
 431 0 400 50 400 50 c 9
 350 0 l 1
 350 0 331 82 300 125 c 24
 280 154 225 175 225 175 c 1025
65 70 m 25
 135 0 l 1049
65 400 m 25
 135 330 l 1049
100 365 m 9
 100 35 l 1025
200 150 m 1
 350 300 l 1
 200 400 l 1
 100 300 l 1049
EndSplineSet
Fore
SplineSet
135 429 m 1xe8
 164 400 l 1
 168 396 l 1
 235 464 l 1
 385 364 l 1
 414 335 l 1
 299 220 l 1
 309 214 318 207 326 199 c 0
 327 199 l 2
 356 170 l 2
 359 167 362 163 364 160 c 0
 380 138 392 107 401 80 c 1
 435 114 l 1
 436 113 l 1
 436 151 l 1
 415 161 l 1
 386 190 l 1
 485 289 l 1
 535 264 l 1
 564 235 l 1
 564 135 l 2
 564 113 556 89 545 64 c 1
 550 64 555 64 560 64 c 0
 572 64 581 66 591 70 c 1
 635 114 l 1
 664 85 l 1
 664 85 659 71 646 58 c 2
 547 -41 l 2
 546 -41 l 0
 534 -53 516 -64 490 -64 c 0
 479 -64 470 -63 461 -62 c 1
 435 -94 414 -115 414 -115 c 2
 315 -214 l 1
 286 -185 l 1
 286 -185 354 -116 398 -42 c 1
 387 -36 378 -29 373 -24 c 2
 364 -15 l 1
 315 -64 l 1
 286 -35 l 1
 286 -35 268 42 239 85 c 1
 216 101 190 111 190 111 c 2
 165 86 l 1
 164 87 l 1
 164 70 l 1
 199 35 l 1
 100 -64 l 1
 65 -29 l 1
 36 -0 l 1
 1 35 l 1
 36 70 l 1
 36 265 l 1
 36 330 l 1
 1 365 l 1
 100 464 l 1
 135 429 l 1xe8
164 143 m 1
 280 259 l 1
 168 334 l 1
 164 330 l 1
 164 143 l 1
EndSplineSet
EndChar
StartChar: thornbar_longs
Encoding: 59189 59189 885
Width: 400
Flags: W
HStem: -214 128<-92.5 -3.5> 444 20G<215 255> 444 20G<215 255> 536 21G<253.5 279>
VStem: 61 128<-115 -40 86.8776 240 290 319> 236 128<135 302.593>
LayerCount: 2
Back
SplineSet
200 475 m 25
 25 475 l 1049
-125 -200 m 17
 -125 -200 -88 -150 -50 -150 c 8
 -19 -150 18 -200 50 -200 c 24
 78 -200 125 -150 125 -150 c 1
 125 550 l 1
 225 650 l 17
 225 650 256 600 300 600 c 24
 328 600 375 650 376 650 c 1033
50 0 m 1
 50 0 96 50 125 50 c 0
 154 50 200 0 200 0 c 9
 300 100 l 1
 300 300 l 25
 200 400 l 1
 100 300 l 1049
EndSplineSet
Fore
SplineSet
15 -64 m 1xdc
 -14 -35 l 1
 -14 -35 -12 -33 -8 -29 c 2
 61 40 l 1
 61 240 l 1
 36 265 l 1
 61 290 l 1
 61 411 l 1
 -10 411 l 1
 -39 440 l 1
 60 539 l 1
 85 539 l 1
 260 714 l 1
 289 685 l 1
 289 685 290 683 293 679 c 0
 305 671 319 664 335 664 c 0
 363 664 410 714 411 714 c 2
 440 685 l 1
 341 586 l 2
 340 586 293 536 265 536 c 0
 242 536 222 550 209 563 c 0
 208 564 l 2
 189 583 l 1
 189 539 l 1
 235 539 l 1
 264 510 l 1
 189 435 l 1
 189 418 l 1
 235 464 l 1
 364 335 l 1
 364 135 l 1
 189 -40 l 1
 189 -115 l 2
 189 -115 188 -116 185 -119 c 2
 86 -218 l 2
 74 -230 38 -264 15 -264 c 0
 -17 -264 -54 -214 -85 -214 c 0
 -100 -214 -114 -221 -127 -231 c 2
 -160 -264 l 1
 -189 -235 l 1
 -189 -235 -183 -227 -173 -217 c 2
 -74 -118 l 2
 -73 -117 l 0
 -58 -102 -37 -86 -15 -86 c 0
 8 -86 36 -116 61 -129 c 1
 61 -25 l 1
 49 -33 36 -44 27 -52 c 2
 15 -64 l 1xdc
189 103 m 1
 205 93 221 78 229 70 c 2
 235 64 l 1
 236 65 l 1
 236 265 l 2
 236 292 211 306 189 319 c 1
 189 103 l 1
EndSplineSet
LCarets2: 1 200 
Ligature2: "Historic ligatures-1" thornbar longs
EndChar
StartChar: hbar_longs
Encoding: 59335 59335 963
Width: 425
Flags: MW
LayerCount: 4
Fore
SplineSet
290 70 m 25
 360 0 l 1049
325 35 m 25
 325 325 l 25
 250 400 l 1
 125 275 l 1049
-125 -200 m 17
 -125 -200 -88 -150 -50 -150 c 8
 -19 -150 18 -200 50 -200 c 24
 78 -200 125 -150 125 -150 c 1
 125 550 l 1
 225 650 l 17
 225 650 256 600 300 600 c 24
 328 600 375 650 376 650 c 1033
200 475 m 25
 25 475 l 1049
EndSplineSet
LCarets2: 1 225 
Ligature2: "Historic ligatures-1" hbar longs
EndChar
StartChar: q_rrotunda
Encoding: 59571 59571 965
Width: 600
Flags: W
HStem: -214 21G<245 285> 444 20G<215 255 315 355 415 455> 444 20G<215 255 315 355 415 455>
VStem: 36 128<135 265> 236 128<-115 7 63 109 193 303>
LayerCount: 2
Back
SplineSet
300 100 m 9
 200 0 l 25
 100 100 l 25
 100 300 l 25
 200 400 l 1
 200 400 222 360 250 360 c 24
 278 360 300 400 300 400 c 9
 300 -150 l 1049
550 50 m 29
 500 0 l 5
 400 200 l 29
 500 300 l 5
 400 400 l 5
 350 350 l 1053
EndSplineSet
Fore
SplineSet
585 114 m 1xd8
 614 85 l 1
 465 -64 l 1
 436 -35 l 1
 364 109 l 1
 364 -115 l 1
 265 -214 l 1
 236 -185 l 1
 236 7 l 1
 165 -64 l 1
 36 65 l 1
 36 265 l 1
 235 464 l 1
 264 435 l 1
 264 435 266 432 268 429 c 0
 274 426 279 424 285 424 c 0
 289 424 295 426 298 427 c 2
 335 464 l 1
 364 435 l 1
 364 393 l 1
 435 464 l 1
 564 335 l 1
 464 235 l 1
 545 74 l 1
 585 114 l 1xd8
236 63 m 1
 236 303 l 1
 230 299 222 296 215 296 c 0
 203 296 193 304 184 312 c 0
 183 312 l 2
 164 331 l 1
 164 135 l 1
 236 63 l 1
364 193 m 1
 436 265 l 1
 365 336 l 1
 364 335 l 1
 364 193 l 1
EndSplineSet
LCarets2: 1 350 
Ligature2: "Ligatures-1" q rrotunda
EndChar
StartChar: g_r
Encoding: 60112 60112 502
Width: 500
Flags: W
HStem: -214 128<82.5 171.5> -64 21G<145 185> 444 20G<215 255 315 355 415 455> 444 20G<215 255 315 355 415 455>
VStem: 36 128<97.7768 265> 236 128<-115 7 63 303>
LayerCount: 2
Back
SplineSet
450 350 m 25
 400 400 l 25
 300 300 l 1049
50 -200 m 17
 50 -200 87 -150 125 -150 c 8
 156 -150 193 -200 225 -200 c 24
 253 -200 300 -150 300 -150 c 9
 300 400 l 1
 300 400 278 360 250 360 c 24
 222 360 200 400 200 400 c 1
 100 300 l 25
 100 100 l 25
 200 0 l 25
 300 100 l 1041
EndSplineSet
Fore
SplineSet
236 7 m 1xec
 165 -64 l 1
 36 65 l 1
 36 265 l 1
 235 464 l 1
 264 435 l 1
 264 435 266 433 268 429 c 0
 273 426 279 424 285 424 c 0
 289 424 293 425 298 427 c 2
 335 464 l 1
 364 435 l 1
 364 393 l 1
 435 464 l 1
 514 385 l 1
 415 286 l 1
 365 336 l 1
 364 335 l 1
 364 -115 l 2
 364 -115 363 -116 360 -119 c 2
 261 -218 l 2
 249 -230 213 -264 190 -264 c 0
 158 -264 121 -214 90 -214 c 0
 75 -214 61 -221 48 -231 c 2
 15 -264 l 1
 -14 -235 l 1
 -14 -235 -8 -227 2 -217 c 2
 101 -118 l 2
 102 -117 l 0
 117 -102 138 -86 160 -86 c 0
 183 -86 211 -116 236 -129 c 1
 236 7 l 1xec
236 265 m 1
 236 303 l 1
 230 299 222 296 215 296 c 0
 203 296 192 303 183 312 c 2
 164 331 l 1
 164 135 l 2
 164 97 215 84 236 63 c 1
 236 265 l 1
EndSplineSet
LCarets2: 1 300 
Ligature2: "Historic ligatures-1" g r
EndChar
StartChar: q_v
Encoding: 60113 60113 967
Width: 600
Flags: W
HStem: -214 21G<245 285> -64 21G<145 185 364 385> 444 20G<215 255 315 355> 444 20G<215 255 315 355 515 560>
VStem: 36 128<135 265> 236 128<-115 -63 135 303> 386 128<414.5 513> 436 128<135 340>
LayerCount: 2
Back
SplineSet
300 100 m 9
 200 0 l 25
 100 100 l 25
 100 300 l 25
 200 400 l 1
 200 400 222 360 250 360 c 24
 278 360 300 400 300 400 c 9
 300 -150 l 1049
300 100 m 1
 400 0 l 25
 500 100 l 1
 500 375 l 25
 500 375 450 423 450 472 c 8
 450 514 504 550 505 550 c 1049
EndSplineSet
Fore
SplineSet
236 7 m 1xed
 165 -64 l 1
 36 65 l 1
 36 265 l 1
 235 464 l 1
 264 435 l 1
 264 435 266 432 268 429 c 0
 274 426 279 424 285 424 c 0
 289 424 295 426 298 427 c 2
 335 464 l 1
 364 435 l 1
 364 135 l 1
 435 64 l 1
 436 65 l 1
 436 340 l 1xed
 435 341 l 2
 428 348 386 392 386 437 c 0
 386 459 402 480 416 494 c 2
 515 593 l 2
 515 594 l 2
 528 607 540 614 540 614 c 2
 569 585 l 1
 525 541 l 2
 519 531 514 519 514 507 c 0xee
 514 464 553 421 562 412 c 2
 564 410 l 1
 564 135 l 1
 365 -64 l 1
 364 -63 l 1
 364 -115 l 1
 265 -214 l 1
 236 -185 l 1
 236 7 l 1xed
236 65 m 1
 236 303 l 1
 230 299 222 296 215 296 c 0
 203 296 193 304 184 312 c 0
 183 312 l 2
 164 331 l 1
 164 135 l 1
 236 63 l 1
 236 65 l 1
EndSplineSet
LCarets2: 1 300 
Ligature2: "Ligatures-1" q v
EndChar
StartChar: g_p
Encoding: 60114 60114 501
Width: 600
Flags: MW
LayerCount: 4
Fore
SplineSet
250 0 m 1
 250 0 296 50 325 50 c 0
 354 50 400 0 400 0 c 9
 500 100 l 1
 500 300 l 25
 400 400 l 1
 300 300 l 1049
50 -200 m 17
 50 -200 87 -150 125 -150 c 8
 169 -150 181 -200 225 -200 c 24
 260 -200 300 -150 300 -150 c 9
 300 400 l 1
 300 400 275 360 250 360 c 24
 225 360 200 400 200 400 c 1
 100 300 l 25
 100 100 l 25
 175 0 l 1
 300 125 l 1049
300 -150 m 9
 350 -200 l 1025
EndSplineSet
LCarets2: 1 300 
Ligature2: "Historic ligatures-1" g p
EndChar
StartChar: longs_h
Encoding: 60321 60321 707
Width: 650
Flags: W
HStem: -214 128<-92.5 2.5> -64 21G<330 370 530 570> 444 20G<490 530> 444 20G<490 530>
VStem: 61 128<-130 515> 286 128<70 310 368 541.561> 486 128<70 319.643>
LayerCount: 2
Back
SplineSet
515 70 m 25
 585 0 l 1049
315 70 m 25
 385 0 l 1049
550 35 m 25
 550 325 l 25
 475 400 l 1
 350 275 l 1049
-125 -200 m 17
 -125 -200 -88 -150 -50 -150 c 8
 -6 -150 6 -200 50 -200 c 24
 85 -200 125 -150 125 -150 c 1
 125 550 l 1
 225 650 l 1
 225 650 253 600 350 600 c 9
 350 35 l 1025
EndSplineSet
Fore
SplineSet
-160 -264 m 1xee
 -189 -235 l 1
 -189 -235 -183 -227 -173 -217 c 2
 -74 -118 l 2
 -73 -117 l 0
 -58 -102 -37 -86 -15 -86 c 0
 20 -86 35 -117 61 -130 c 1
 61 515 l 1
 260 714 l 1
 283 691 l 1
 302 678 333 664 385 664 c 1
 414 635 l 1
 414 368 l 1
 510 464 l 1
 614 360 l 1
 614 70 l 1
 649 35 l 1
 550 -64 l 1
 515 -29 l 1
 486 -0 l 1
 451 35 l 1
 486 70 l 1
 486 290 l 2
 486 314 453 323 440 336 c 1
 414 310 l 1
 414 70 l 1
 449 35 l 1
 350 -64 l 1
 315 -29 l 1
 286 -0 l 1
 251 35 l 1
 286 70 l 1
 286 240 l 1
 286 538 l 1
 239 544 213 561 200 574 c 2
 189 585 l 1
 189 -115 l 2
 189 -115 184 -120 176 -129 c 2
 175 -130 l 2
 76 -229 l 2
 61 -244 37 -264 15 -264 c 0
 -29 -264 -41 -214 -85 -214 c 0
 -100 -214 -114 -221 -127 -231 c 2
 -160 -264 l 1xee
EndSplineSet
LCarets2: 1 300 
Ligature2: "Ligatures-1" longs h
EndChar
StartChar: longs_i
Encoding: 60322 60322 328
Width: 450
GlyphClass: 3
Flags: MW
LayerCount: 4
Fore
SplineSet
350 365 m 9
 350 35 l 1029
315 70 m 29
 385 0 l 29
 455 70 l 1053
315 400 m 25
 385 330 l 1025
-125 -200 m 1
 -125 -200 -88 -150 -50 -150 c 8
 -6 -150 6 -200 50 -200 c 24
 85 -200 125 -150 125 -150 c 1
 125 550 l 1
 225 650 l 1
 225 650 270 610 410 610 c 9
 340 540 l 1025
EndSplineSet
LCarets2: 1 300 
Ligature2: "Ligatures-1" longs i
EndChar
StartChar: longs_l
Encoding: 60323 60323 330
Width: 450
GlyphClass: 3
Flags: MW
LayerCount: 4
Fore
SplineSet
-125 -200 m 17
 -125 -200 -88 -150 -50 -150 c 8
 -6 -150 6 -200 50 -200 c 24
 85 -200 125 -150 125 -150 c 1
 125 550 l 1
 225 650 l 1
 225 650 231 625 315 625 c 9
 385 555 l 1025
315 70 m 29
 385 0 l 29
 455 70 l 1053
350 590 m 9
 350 35 l 1053
EndSplineSet
LCarets2: 1 300 
Ligature2: "Ligatures-1" longs l
EndChar
StartChar: longs_p
Encoding: 60325 60325 709
Width: 650
Flags: W
HStem: -214 128<-92.5 2.5> -64 21G<195 227 414 435> 444 20G<465.317 505> 444 20G<465.317 505>
VStem: 61 128<-130 -38 -32 515> 286 128<-115 -63 92.9231 335> 486 128<135 301.839>
LayerCount: 2
Back
SplineSet
250 0 m 1
 250 0 296 50 325 50 c 15
 378 50 450 0 450 0 c 9
 550 100 l 1
 550 300 l 25
 450 400 l 1
 350 300 l 1049
350 375 m 1
 350 -150 l 1025
-125 -200 m 17
 -125 -200 -88 -150 -50 -150 c 8
 -6 -150 6 -200 50 -200 c 24
 85 -200 125 -150 125 -150 c 1
 125 550 l 1
 225 650 l 17
 225 650 270 600 400 600 c 3
 435 600 476 650 476 650 c 9
 300 425 l 9
 375 350 l 1025
EndSplineSet
Fore
SplineSet
-160 -264 m 1xee
 -189 -235 l 1
 -189 -235 -183 -227 -173 -217 c 2
 -74 -118 l 2
 -73 -117 l 0
 -58 -102 -37 -86 -15 -86 c 0
 20 -86 35 -117 61 -130 c 1
 61 515 l 1
 260 714 l 1
 262 712 l 2
 271 703 319 664 435 664 c 0
 452 664 471 676 485 688 c 2
 511 714 l 1
 540 685 l 1
 364 460 l 2
 360 455 370 446 382 436 c 1
 385 439 l 1
 410 414 l 1
 414 410 l 1
 423 401 l 1
 485 464 l 1
 614 335 l 1
 614 135 l 1
 415 -64 l 1
 415 -64 415 -63 414 -63 c 2
 414 -115 l 1
 315 -214 l 1
 286 -185 l 1
 286 -14 l 1
 267 -17 242 -38 227 -52 c 2
 215 -64 l 1
 189 -38 l 1
 189 -115 l 2
 189 -115 184 -120 176 -129 c 2
 175 -130 l 2
 76 -229 l 2
 61 -244 37 -264 15 -264 c 0
 -29 -264 -41 -214 -85 -214 c 0
 -100 -214 -114 -221 -127 -231 c 2
 -160 -264 l 1xee
286 340 m 1
 236 390 l 1
 350 536 l 1
 240 539 197 579 191 585 c 2
 190 586 l 1
 189 585 l 1
 189 -32 l 2
 190 -31 191 -30 192 -29 c 2
 286 65 l 1
 286 265 l 1
 286 340 l 1
414 335 m 1
 414 102 l 1
 452 87 485 64 485 64 c 1
 486 65 l 1
 486 265 l 2
 486 303 436 315 415 336 c 1
 414 335 l 1
EndSplineSet
LCarets2: 1 300 
Ligature2: "Ligatures-1" longs p
EndChar
StartChar: longs_longs_i
Encoding: 60327 60327 331
Width: 650
GlyphClass: 3
Flags: MW
LayerCount: 4
Fore
SplineSet
125 -150 m 1
 156 -150 218 -200 250 -200 c 0
 278 -200 325 -150 325 -150 c 1
 325 550 l 1
 425 650 l 17
 425 650 500 600 600 600 c 1
 550 550 l 1025
-125 -200 m 1
 -125 -200 -88 -150 -50 -150 c 8
 -19 -150 18 -200 50 -200 c 24
 78 -200 125 -150 125 -150 c 1
 125 550 l 1
 225 650 l 1
 225 650 281 550 325 550 c 1025
515 400 m 25
 585 330 l 1025
550 365 m 9
 550 35 l 1029
515 70 m 29
 585 0 l 29
 655 70 l 1053
EndSplineSet
LCarets2: 2 300 500 
Ligature2: "Ligatures-1" longs longs i
EndChar
StartChar: h_longs
Encoding: 60333 60333 515
Width: 425
Flags: W
HStem: -214 128<-92.5 -3.5> -64 21G<305 345> 444 20G<265 305> 444 20G<265 305> 536 21G<253.5 279>
VStem: 61 128<-115 310 368 515> 261 128<70 319.643>
LayerCount: 2
Back
SplineSet
290 70 m 25
 360 0 l 1049
325 35 m 25
 325 325 l 25
 250 400 l 1
 125 275 l 1049
-125 -200 m 17
 -125 -200 -88 -150 -50 -150 c 8
 -19 -150 18 -200 50 -200 c 24
 78 -200 125 -150 125 -150 c 1
 125 550 l 1
 225 650 l 17
 225 650 256 600 300 600 c 24
 328 600 375 650 376 650 c 1033
EndSplineSet
Fore
SplineSet
-160 -264 m 1xee
 -189 -235 l 1
 -189 -235 -183 -227 -173 -217 c 2
 -74 -118 l 2
 -73 -117 l 0
 -58 -102 -37 -86 -15 -86 c 0
 8 -86 36 -116 61 -129 c 1
 61 240 l 1
 61 515 l 1
 260 714 l 1
 289 685 l 1
 289 685 290 683 293 679 c 0
 305 671 319 664 335 664 c 0
 363 664 410 714 411 714 c 2
 440 685 l 1
 341 586 l 2
 340 586 293 536 265 536 c 0
 242 536 222 550 209 563 c 0
 208 564 l 2
 189 583 l 1
 189 368 l 1
 285 464 l 1
 389 360 l 1
 389 70 l 1
 424 35 l 1
 325 -64 l 1
 290 -29 l 1
 261 -0 l 1
 226 35 l 1
 261 70 l 1
 261 290 l 2
 261 314 228 323 215 336 c 1
 189 310 l 1
 189 -115 l 2
 189 -115 188 -116 185 -119 c 2
 86 -218 l 2
 74 -230 38 -264 15 -264 c 0
 -17 -264 -54 -214 -85 -214 c 0
 -100 -214 -114 -221 -127 -231 c 2
 -160 -264 l 1xee
EndSplineSet
LCarets2: 1 225 
Ligature2: "Historic ligatures-1" h longs
EndChar
StartChar: k_longs
Encoding: 60334 60334 566
Width: 425
Flags: W
HStem: -214 128<-92.5 -3.5> -64 21G<305 345> 469 20G<305 345> 536 21G<253.5 279>
VStem: 61 128<-115 210 286 515> 261 128<70 158>
LayerCount: 2
Back
SplineSet
-125 -200 m 17
 -125 -200 -88 -150 -50 -150 c 8
 -19 -150 18 -200 50 -200 c 24
 78 -200 125 -150 125 -150 c 1
 125 550 l 1
 225 650 l 17
 225 650 256 600 300 600 c 24
 328 600 375 650 376 650 c 1033
290 70 m 25
 360 0 l 1049
225 275 m 1
 325 200 l 1
 325 35 l 1025
125 200 m 1
 325 350 l 9
 325 390 l 1049
290 425 m 25
 360 355 l 1049
EndSplineSet
Fore
SplineSet
226 390 m 1
 325 489 l 1
 360 454 l 1
 389 425 l 1
 424 390 l 1
 325 291 l 1
 310 306 l 1
 307 303 l 1
 360 264 l 1
 389 235 l 1
 389 70 l 1
 424 35 l 1
 325 -64 l 1
 290 -29 l 1
 261 -0 l 1
 226 35 l 1
 261 70 l 1
 261 158 l 1
 190 211 l 1
 189 210 l 1
 189 -115 l 2
 189 -115 188 -116 185 -119 c 2
 86 -218 l 2
 74 -230 38 -264 15 -264 c 0
 -17 -264 -54 -214 -85 -214 c 0
 -100 -214 -114 -221 -127 -231 c 2
 -160 -264 l 1
 -189 -235 l 1
 -189 -235 -183 -227 -173 -217 c 2
 -74 -118 l 2
 -73 -117 l 0
 -58 -102 -37 -86 -15 -86 c 0
 8 -86 36 -116 61 -129 c 1
 61 165 l 1
 61 515 l 1
 260 714 l 1
 289 685 l 1
 289 685 290 683 293 679 c 0
 305 671 319 664 335 664 c 0
 363 664 410 714 411 714 c 2
 440 685 l 1
 341 586 l 2
 340 586 293 536 265 536 c 0
 242 536 222 550 209 563 c 0
 208 564 l 2
 189 583 l 1
 189 286 l 1
 261 340 l 1
 261 355 l 1
 226 390 l 1
EndSplineSet
LCarets2: 1 225 
Ligature2: "Historic ligatures-1" k longs
EndChar
StartChar: b_g
Encoding: 61123 61123 350
Width: 400
GlyphClass: 3
Flags: W
HStem: -214 128<82.5 171.5> -64 21G<145 185> 444 20G<215 255> 444 20G<215 255>
VStem: 36 128<98.1606 337 393 555> 236 128<-115 7 65 302.223>
LayerCount: 2
Back
SplineSet
100 590 m 9
 100 100 l 25
 200 0 l 1
 300 100 l 25
 300 300 l 1
 200 400 l 1
 100 300 l 1049
50 -200 m 17
 50 -200 87 -150 125 -150 c 8
 156 -150 193 -200 225 -200 c 24
 253 -200 300 -150 300 -150 c 1
 300 100 l 1033
65 625 m 25
 135 555 l 1049
EndSplineSet
Fore
SplineSet
1 590 m 1xec
 100 689 l 1
 135 654 l 1
 164 625 l 1
 199 590 l 1
 164 555 l 1
 164 393 l 1
 235 464 l 1
 364 335 l 1
 364 135 l 1
 364 -115 l 2
 364 -115 363 -116 360 -119 c 2
 261 -218 l 2
 249 -230 213 -264 190 -264 c 0
 158 -264 121 -214 90 -214 c 0
 75 -214 61 -221 48 -231 c 2
 15 -264 l 1
 -14 -235 l 1
 -14 -235 -8 -227 2 -217 c 2
 101 -118 l 2
 102 -117 l 0
 117 -102 138 -86 160 -86 c 0
 183 -86 211 -116 236 -129 c 1
 236 7 l 1
 165 -64 l 1
 36 65 l 1
 36 555 l 1
 1 590 l 1xec
164 337 m 1
 164 135 l 2
 164 97 214 85 235 64 c 1
 236 65 l 1
 236 265 l 2
 236 303 185 316 164 337 c 1
EndSplineSet
LCarets2: 1 200 
Ligature2: "Historic ligatures-1" b g
EndChar
StartChar: c_k
Encoding: 61124 61124 439
Width: 650
Flags: W
HStem: -64 21G<145 184.785 330 370 530 570> 444 20G<215 255> 464 5G<215 255 530 570>
VStem: 36 128<98.1606 265> 286 128<115 210 413 555> 486 128<70 158>
LayerCount: 2
Back
SplineSet
300 300 m 9
 200 400 l 25
 100 300 l 25
 100 100 l 25
 200 0 l 25
 300 100 l 1041
515 425 m 25
 585 355 l 1049
315 625 m 25
 385 555 l 1049
315 625 m 25
 385 555 l 1049
350 200 m 1
 550 350 l 9
 550 390 l 1049
450 275 m 1
 550 200 l 1
 550 35 l 1025
515 70 m 25
 585 0 l 1049
315 70 m 25
 385 0 l 1049
315 625 m 25
 385 555 l 1049
350 590 m 9
 350 35 l 1049
EndSplineSet
Fore
SplineSet
385 654 m 1xdc
 414 625 l 1
 449 590 l 1
 414 555 l 1
 414 286 l 1
 486 340 l 1
 486 355 l 1
 451 390 l 1
 550 489 l 1
 585 454 l 1
 614 425 l 1
 649 390 l 1
 550 291 l 1
 535 306 l 1
 532 303 l 1
 585 264 l 1
 614 235 l 1
 614 70 l 1
 649 35 l 1
 550 -64 l 1
 515 -29 l 1
 486 -0 l 1
 451 35 l 1
 486 70 l 1
 486 158 l 1
 415 211 l 1
 414 210 l 1
 414 70 l 1
 449 35 l 1
 350 -64 l 1
 315 -29 l 1
 286 -0 l 1
 257 29 l 1
 165 -64 l 1
 36 65 l 1
 36 265 l 1
 235 464 l 1
 286 413 l 1
 286 555 l 1
 251 590 l 1
 350 689 l 1
 385 654 l 1xdc
286 165 m 1
 286 257 l 1
 265 236 l 1
 165 336 l 1
 164 335 l 1
 164 135 l 2
 164 97 214 85 235 64 c 1
 286 115 l 1
 286 165 l 1
EndSplineSet
LCarets2: 1 350 
Ligature2: "Ligatures-1" c k
EndChar
StartChar: c_t
Encoding: 61125 61125 335
Width: 675
Flags: W
HStem: -64 21G<145 185 470 510> 286 129<295.234 411> 444 20G<215 306.837 633 655> 464 130G<215 306.837 490 530 633 655>
VStem: 36 128<135 265> 411 128<64.2805 288 423 515>
LayerCount: 2
Back
SplineSet
300 100 m 13
 200 0 l 29
 100 100 l 29
 100 300 l 5
 200 400 l 21
 200 400 270.984497056 350 400 350 c 7
 553 350 600 400 600 400 c 1037
475 550 m 5
 475 50 l 5
 525 0 l 5
 625 100 l 1029
EndSplineSet
Fore
SplineSet
510 614 m 1xec
 539 585 l 1
 539 423 l 1
 605 436 631 460 635 464 c 1
 664 435 l 1
 565 336 l 2
 564 335 556 328 539 319 c 1
 539 85 l 2
 539 75 554 70 560 64 c 1
 660 164 l 1
 689 135 l 1
 490 -64 l 1
 411 15 l 1
 411 288 l 1
 397 287 382 286 365 286 c 0
 236 286 165 336 165 336 c 1
 164 335 l 1
 164 135 l 1
 235 64 l 1
 335 164 l 1
 364 135 l 1
 165 -64 l 1
 36 65 l 1
 36 265 l 1
 235 464 l 1
 235 464 297 421 411 415 c 1
 411 515 l 1
 510 614 l 1xec
EndSplineSet
LCarets2: 1 350 
Ligature2: "Ligatures-1" c t
EndChar
StartChar: e_y
Encoding: 61127 61127 351
Width: 600
GlyphClass: 3
Flags: W
HStem: -214 128<282.5 377.5> -64 21G<145 185 345 385> 444 20G<215 255 480 520> 444 20G<215 255 480 520>
VStem: 36 128<193 265> 236 128<135 207> 436 128<-130 7 65 330>
CounterMasks: 1 0e
LayerCount: 2
Back
SplineSet
300 100 m 9
 200 0 l 25
 100 100 l 25
 100 300 l 25
 200 400 l 25
 300 300 l 1
 100 100 l 1049
535 330 m 25
 465 400 l 1049
250 -200 m 17
 250 -200 287 -150 325 -150 c 8
 369 -150 381 -200 425 -200 c 24
 460 -200 500 -150 500 -150 c 1
 500 365 l 1025
500 100 m 9
 400 0 l 25
 300 100 l 1
 300 300 l 1049
EndSplineSet
Fore
SplineSet
215 -264 m 1xee
 186 -235 l 1
 186 -235 192 -227 202 -217 c 2
 301 -118 l 2
 302 -117 l 0
 317 -102 338 -86 360 -86 c 0
 395 -86 410 -117 436 -130 c 1
 436 7 l 1
 365 -64 l 1
 265 36 l 1
 165 -64 l 1
 36 65 l 1
 36 265 l 1
 235 464 l 1
 335 364 l 1
 364 335 l 1
 364 135 l 1
 435 64 l 1
 436 65 l 1
 436 330 l 1
 401 365 l 1
 500 464 l 1
 535 429 l 1
 564 400 l 1
 599 365 l 1
 564 330 l 1
 564 135 l 1
 564 -115 l 2
 564 -115 559 -120 551 -129 c 2
 550 -130 l 2
 451 -229 l 2
 436 -244 412 -264 390 -264 c 0
 346 -264 334 -214 290 -214 c 0
 275 -214 261 -221 248 -231 c 2
 215 -264 l 1xee
164 135 m 1
 235 64 l 1
 236 65 l 1
 236 207 l 1
 164 135 l 1
236 265 m 1
 165 336 l 1
 164 335 l 1
 164 193 l 1
 236 265 l 1
EndSplineSet
LCarets2: 1 300 
Ligature2: "Historic ligatures-1" e y
EndChar
StartChar: f_j
Encoding: 61129 61129 322
Width: 450
GlyphClass: 3
Flags: W
HStem: -214 128<-92.5 2.5> 336 128<189 280> 476 21G<285 325>
VStem: 61 128<-130 336 464 515> 286 128<-65 330>
LayerCount: 2
Back
SplineSet
350 365 m 1
 350 -100 l 9
 280 -170 l 1049
50 400 m 1
 315 400 l 25
 385 330 l 1025
-125 -200 m 1
 -125 -200 -88 -150 -50 -150 c 8
 -6 -150 6 -200 50 -200 c 24
 85 -200 125 -150 125 -150 c 1
 125 550 l 1
 225 650 l 1
 225 650 270 610 410 610 c 9
 340 540 l 1025
EndSplineSet
Fore
SplineSet
-160 -264 m 1
 -189 -235 l 1
 -189 -235 -183 -227 -173 -217 c 2
 -74 -118 l 2
 -73 -117 l 0
 -58 -102 -37 -86 -15 -86 c 0
 20 -86 35 -117 61 -130 c 1
 61 336 l 1
 15 336 l 1
 -14 365 l 1
 61 440 l 1
 61 515 l 1
 260 714 l 1
 260 714 305 674 445 674 c 1
 474 645 l 1
 305 476 l 1
 276 505 l 1
 319 548 l 1
 223 557 190 586 190 586 c 1
 189 585 l 1
 189 464 l 1
 350 464 l 1
 385 429 l 1
 414 400 l 1
 449 365 l 1
 414 330 l 1
 414 -65 l 1
 245 -234 l 1
 216 -205 l 1
 286 -135 l 1
 286 330 l 1
 280 336 l 1
 189 336 l 1
 189 -115 l 2
 189 -115 184 -120 176 -129 c 2
 175 -130 l 2
 76 -229 l 2
 61 -244 37 -264 15 -264 c 0
 -29 -264 -41 -214 -85 -214 c 0
 -100 -214 -114 -221 -127 -231 c 2
 -160 -264 l 1
EndSplineSet
LCarets2: 1 300 
Ligature2: "Ligatures-1" f j
EndChar
StartChar: f_y
Encoding: 61133 61133 353
Width: 650
GlyphClass: 3
Flags: W
HStem: -214 128<-92.5 -3.5 332.5 427.5> -64 21G<395 435> 336 128<189 280> 444 20G<530 570> 536 21G<253.5 279>
VStem: 61 128<-115 336 464 515> 286 128<135 330> 486 128<-130 7 65 330>
LayerCount: 2
Back
SplineSet
585 330 m 29
 515 400 l 1053
300 -200 m 17
 300 -200 337 -150 375 -150 c 8
 419 -150 431 -200 475 -200 c 24
 510 -200 550 -150 550 -150 c 1
 550 365 l 1029
550 100 m 9
 450 0 l 25
 350 100 l 1
 350 365 l 1049
-125 -200 m 17
 -125 -200 -88 -150 -50 -150 c 8
 -19 -150 18 -200 50 -200 c 24
 78 -200 125 -150 125 -150 c 1
 125 550 l 1
 225 650 l 17
 225 650 256 600 300 600 c 24
 328 600 375 650 376 650 c 1033
50 400 m 1
 315 400 l 25
 385 330 l 1025
EndSplineSet
Fore
SplineSet
-160 -264 m 1xef
 -189 -235 l 1
 -189 -235 -183 -227 -173 -217 c 2
 -74 -118 l 2
 -73 -117 l 0
 -58 -102 -37 -86 -15 -86 c 0
 8 -86 36 -116 61 -129 c 1
 61 336 l 1
 15 336 l 1
 -14 365 l 1
 61 440 l 1
 61 515 l 1
 260 714 l 1
 289 685 l 1
 289 685 290 683 293 679 c 0
 305 671 319 664 335 664 c 0
 363 664 410 714 411 714 c 2
 440 685 l 1
 341 586 l 2
 340 586 293 536 265 536 c 0
 242 536 222 550 209 563 c 0
 208 564 l 2
 189 583 l 1
 189 464 l 1xef
 350 464 l 1
 385 429 l 1
 414 400 l 1
 449 365 l 1
 414 330 l 1
 414 135 l 1
 485 64 l 1
 486 65 l 1
 486 330 l 1
 451 365 l 1
 550 464 l 1xdf
 585 429 l 1
 614 400 l 1
 649 365 l 1
 614 330 l 1
 614 135 l 1
 614 -115 l 2
 614 -115 609 -120 601 -129 c 2
 600 -130 l 2
 501 -229 l 2
 486 -244 462 -264 440 -264 c 0
 396 -264 384 -214 340 -214 c 0
 325 -214 311 -221 298 -231 c 2
 265 -264 l 1
 236 -235 l 1
 236 -235 242 -227 252 -217 c 2
 351 -118 l 2
 352 -117 l 0
 367 -102 388 -86 410 -86 c 0
 445 -86 460 -117 486 -130 c 1
 486 7 l 1
 415 -64 l 1
 286 65 l 1
 286 330 l 1
 280 336 l 1
 189 336 l 1
 189 -115 l 2
 189 -115 188 -116 185 -119 c 2
 86 -218 l 2
 74 -230 38 -264 15 -264 c 0
 -17 -264 -54 -214 -85 -214 c 0
 -100 -214 -114 -221 -127 -231 c 2
 -160 -264 l 1xef
EndSplineSet
LCarets2: 1 300 
Ligature2: "Ligatures-1" f y
EndChar
StartChar: g_eth
Encoding: 61140 61140 499
Width: 400
Flags: W
HStem: -214 128<82.5 171.5> -64 21G<145 185>
VStem: 36 128<97.7768 265> 236 128<-115 7 63 303>
LayerCount: 2
Back
SplineSet
275 625 m 1
 100 450 l 1025
300 400 m 1
 300 450 l 2
 300 504.764528378 244 550 200 550 c 0
 156 550 100 556 100 600 c 27
 100 628 140 650 141 650 c 1049
50 -200 m 17
 50 -200 87 -150 125 -150 c 8
 156 -150 193 -200 225 -200 c 24
 253 -200 300 -150 300 -150 c 9
 300 400 l 1
 300 400 278 360 250 360 c 24
 222 360 200 400 200 400 c 1
 100 300 l 25
 100 100 l 25
 200 0 l 25
 300 100 l 1041
EndSplineSet
Fore
SplineSet
236 63 m 1
 236 303 l 1
 230 299 222 296 215 296 c 0
 203 296 192 303 183 312 c 2
 164 331 l 1
 164 135 l 2
 164 97 215 84 236 63 c 1
236 7 m 1
 165 -64 l 1
 36 65 l 1
 36 265 l 1
 226 455 l 1
 224 459 222 463 219 467 c 0
 202 479 183 486 165 486 c 1
 65 386 l 1
 36 415 l 1
 112 491 l 1
 98 494 85 499 76 508 c 2
 47 537 l 2
 40 544 36 553 36 565 c 0
 36 577 43 588 52 597 c 2
 151 696 l 2
 162 707 175 714 176 714 c 2
 205 685 l 1
 166 646 l 2
 165 643 164 639 164 635 c 0
 164 631 164 628 165 624 c 0
 184 616 212 614 235 614 c 1
 310 689 l 1
 339 660 l 1
 280 601 l 1
 289 596 297 589 304 582 c 0
 305 581 l 2
 334 552 l 2
 352 534 364 511 364 485 c 2
 364 435 l 1
 364 -115 l 2
 364 -115 363 -116 360 -119 c 2
 261 -218 l 2
 249 -230 213 -264 190 -264 c 0
 158 -264 121 -214 90 -214 c 0
 75 -214 61 -221 48 -231 c 2
 15 -264 l 1
 -14 -235 l 1
 -14 -235 -8 -227 2 -217 c 2
 101 -118 l 2
 102 -117 l 0
 117 -102 138 -86 160 -86 c 0
 183 -86 211 -116 236 -129 c 1
 236 7 l 1
EndSplineSet
LCarets2: 1 200 
Ligature2: "Historic ligatures-1" g eth
EndChar
StartChar: t_r
Encoding: 61144 61144 729
Width: 500
Flags: MW
LayerCount: 4
Fore
SplineSet
450 350 m 25
 400 400 l 25
 300 300 l 1049
265 70 m 25
 335 0 l 1049
300 365 m 9
 300 35 l 1025
125 550 m 1
 125 50 l 1
 175 0 l 1
 275 100 l 1025
50 400 m 1
 265 400 l 25
 335 330 l 1025
EndSplineSet
LCarets2: 1 300 
Ligature2: "Ligatures-1" t r
EndChar
StartChar: t_y
Encoding: 61147 61147 731
Width: 650
Flags: W
HStem: -214 128<332.5 427.5> -64 21G<120 160 395 435> 336 128<189 280> 594 20G<140 180 530 570>
VStem: 61 128<64.2805 336 464 515> 286 128<140 330> 486 128<-130 7 65 330>
LayerCount: 2
Back
SplineSet
585 330 m 25
 515 400 l 1049
300 -200 m 17
 300 -200 337 -150 375 -150 c 8
 419 -150 431 -200 475 -200 c 24
 510 -200 550 -150 550 -150 c 1
 550 365 l 1025
550 100 m 9
 450 0 l 25
 350 100 l 1
 350 365 l 1049
125 550 m 1
 125 50 l 1
 175 0 l 1
 275 100 l 1025
50 400 m 1
 315 400 l 1
 385 330 l 1025
EndSplineSet
Fore
SplineSet
160 614 m 1
 189 585 l 1
 189 464 l 1
 350 464 l 1
 385 429 l 1
 414 400 l 1
 449 365 l 1
 414 330 l 1
 414 135 l 1
 485 64 l 1
 486 65 l 1
 486 330 l 1
 451 365 l 1
 550 464 l 1
 585 429 l 1
 614 400 l 1
 649 365 l 1
 614 330 l 1
 614 135 l 1
 614 -115 l 2
 614 -115 609 -120 601 -129 c 2
 600 -130 l 2
 501 -229 l 2
 486 -244 462 -264 440 -264 c 0
 396 -264 384 -214 340 -214 c 0
 325 -214 311 -221 298 -231 c 2
 265 -264 l 1
 236 -235 l 1
 236 -235 242 -227 252 -217 c 2
 351 -118 l 2
 352 -117 l 0
 367 -102 388 -86 410 -86 c 0
 445 -86 460 -117 486 -130 c 1
 486 7 l 1
 415 -64 l 1
 286 65 l 1
 286 82 l 1
 140 -64 l 1
 61 15 l 1
 61 336 l 1
 15 336 l 1
 -14 365 l 1
 61 440 l 1
 61 515 l 1
 160 614 l 1
189 336 m 1
 189 85 l 2
 189 75 204 70 210 64 c 1
 286 140 l 1
 286 330 l 1
 280 336 l 1
 189 336 l 1
EndSplineSet
LCarets2: 1 300 
Ligature2: "Ligatures-1" t y
EndChar
StartChar: t_z
Encoding: 61148 61148 732
Width: 550
Flags: W
HStem: -214 128<232.5 326> -64 21G<120 160> 286 128<189 322.125> 444 20G<432 455> 594 20G<140 180 432 455>
VStem: 61 128<75 286 440 515> 386 128<-115 55>
LayerCount: 2
Back
SplineSet
50 400 m 1
 50 400 76 350 250 350 c 0
 356 350 400 400 400 400 c 1
 450 350 l 1
 300 200 l 1
 450 100 l 1
 450 -150 l 1
 450 -150 403 -200 375 -200 c 0
 343 -200 319 -150 275 -150 c 16
 237 -150 200 -200 200 -200 c 1033
125 550 m 1
 125 50 l 1
 175 0 l 1
 275 100 l 1025
EndSplineSet
Fore
SplineSet
160 614 m 1
 189 585 l 1
 189 420 l 1
 214 416 246 414 285 414 c 0
 375 414 421 450 432 461 c 2
 435 464 l 1
 514 385 l 1
 370 241 l 1
 485 164 l 1
 514 135 l 1
 514 -115 l 1
 514 -115 513 -116 510 -119 c 2
 411 -218 l 2
 399 -230 363 -264 340 -264 c 0
 308 -264 284 -214 240 -214 c 0
 225 -214 210 -222 198 -231 c 2
 165 -264 l 1
 136 -235 l 1
 136 -235 142 -227 152 -217 c 2
 251 -118 l 2
 265 -104 287 -86 310 -86 c 0
 342 -86 364 -114 386 -128 c 1
 386 55 l 1
 310 106 l 1
 140 -64 l 1
 61 15 l 1
 61 32 l 1
 103 74 147 118 189 160 c 1
 189 85 l 2
 189 75 204 70 210 64 c 1
 275 129 l 1
 265 136 l 1
 236 165 l 1
 386 315 l 1
 365 336 l 2
 364 335 365 335 364 334 c 0
 356 326 310 286 215 286 c 0
 206 286 197 286 189 286 c 1
 189 160 l 1
 140 110 97 68 61 32 c 1
 61 306 l 1
 38 314 26 324 20 330 c 2
 -9 359 l 2
 -13 363 -14 365 -14 365 c 1
 61 440 l 1
 61 515 l 1
 160 614 l 1
189 160 m 1
 364 335 l 0
 364 334 l 0
 298 268 240 211 189 160 c 1
61 32 m 1
 -230 -259 -107 -136 61 32 c 1
EndSplineSet
LCarets2: 1 300 
Ligature2: "Ligatures-1" t z
EndChar
StartChar: a_g
Encoding: 61349 61349 338
Width: 600
GlyphClass: 3
Flags: W
HStem: -214 128<282.5 371.5> -64 21G<120 159.823 345 385> 444 20G<190 310 415 455 515 555> 444 20G<190 310 415 455 515 555>
VStem: 236 128<97.7768 161 297 317> 436 128<-115 7 63 303>
LayerCount: 2
Back
SplineSet
125 250 m 17
 100 325 l 1
 175 400 l 1
 300 375 l 1
 300 125 l 9
 175 0 l 1
 100 75 l 1
 100 175 l 1
 175 250 l 1
 175 250 193.964297096 225 250 225 c 3
 269.004218286 225 300 225 300 225 c 1033
250 -200 m 17
 250 -200 287 -150 325 -150 c 8
 356 -150 393 -200 425 -200 c 24
 453 -200 500 -150 500 -150 c 9
 500 400 l 1
 500 400 478 360 450 360 c 24
 422 360 400 400 400 400 c 1
 300 300 l 25
 300 100 l 25
 400 0 l 25
 500 100 l 1041
EndSplineSet
Fore
SplineSet
436 63 m 1xcc
 436 303 l 1
 430 299 422 296 415 296 c 0
 403 296 392 303 383 312 c 2
 364 331 l 1
 364 160 l 1
 364 135 l 2
 364 97 415 84 436 63 c 1xcc
436 7 m 1
 365 -64 l 1
 252 49 l 1
 140 -64 l 1
 36 40 l 1
 36 140 l 1
 86 190 l 1
 61 215 l 1
 36 290 l 1
 210 464 l 1
 335 439 l 1
 364 410 l 1
 364 393 l 1
 435 464 l 1
 464 435 l 1
 464 435 466 433 468 429 c 0
 473 426 479 424 485 424 c 0
 489 424 493 425 498 427 c 2
 535 464 l 1xec
 564 435 l 1
 564 -115 l 2
 564 -115 563 -116 560 -119 c 2
 461 -218 l 2
 449 -230 413 -264 390 -264 c 0
 358 -264 321 -214 290 -214 c 0
 275 -214 261 -221 248 -231 c 2
 215 -264 l 1
 186 -235 l 1
 186 -235 192 -227 202 -217 c 2
 301 -118 l 2
 302 -117 l 0
 317 -102 338 -86 360 -86 c 0
 383 -86 411 -116 436 -129 c 1
 436 7 l 1
187 291 m 1
 210 314 l 1
 214 310 l 2
 218 306 225 301 236 297 c 1
 236 317 l 1
 174 329 l 1
 187 291 l 1
236 90 m 1
 236 161 l 1
 215 161 l 2
 192 161 176 165 164 170 c 1
 164 110 l 1
 210 64 l 1
 236 90 l 1
EndSplineSet
LCarets2: 1 300 
Ligature2: "Historic ligatures-1" a g
EndChar
StartChar: a_l
Encoding: 61350 61350 339
Width: 400
GlyphClass: 3
Flags: W
HStem: -64 21G<120 160 280 320> 444 20G<190 236> 444 20G<190 236>
VStem: 236 128<90 161 297 317 459 555>
LayerCount: 2
Back
SplineSet
125 250 m 17
 100 325 l 1
 175 400 l 1
 300 375 l 1
 300 125 l 9
 175 0 l 1
 100 75 l 1
 100 175 l 1
 175 250 l 1
 175 250 193.964297096 225 250 225 c 3
 269.004218286 225 300 225 300 225 c 1033
265 70 m 25
 335 0 l 25
 405 70 l 1049
265 625 m 25
 335 555 l 1049
300 590 m 9
 300 35 l 1049
EndSplineSet
Fore
SplineSet
335 654 m 1xd0
 364 625 l 1
 399 590 l 1
 364 555 l 1
 364 410 l 1
 364 160 l 1
 364 70 l 1
 370 64 l 1
 440 134 l 1
 469 105 l 1
 300 -64 l 1
 265 -29 l 1
 236 -0 l 1
 220 16 l 1
 140 -64 l 1
 36 40 l 1
 36 140 l 1
 86 190 l 1
 61 215 l 1
 36 290 l 1
 210 464 l 1
 236 459 l 1
 236 555 l 1
 201 590 l 1
 300 689 l 1
 335 654 l 1xd0
187 291 m 1
 210 314 l 1
 214 310 l 2
 218 306 225 301 236 297 c 1
 236 317 l 1
 174 329 l 1
 187 291 l 1
236 90 m 1
 236 161 l 1
 215 161 l 2
 192 161 176 165 164 170 c 1
 164 110 l 1
 210 64 l 1
 236 90 l 1
EndSplineSet
LCarets2: 1 200 
Ligature2: "Historic ligatures-1" a l
EndChar
StartChar: a_p
Encoding: 61353 61353 342
Width: 600
GlyphClass: 3
Flags: W
HStem: -214 21G<245 285> -64 21G<120 160 195 227 364 385> 444 20G<190 310 415 455> 444 20G<190 310 415 455>
VStem: 236 128<-115 -63 105.765 161 297 317> 436 128<135 301.839>
LayerCount: 2
Back
SplineSet
125 250 m 17
 100 325 l 1
 175 400 l 1
 300 375 l 1
 300 125 l 9
 175 0 l 1
 100 75 l 1
 100 175 l 1
 175 250 l 1
 175 250 193.964297096 225 250 225 c 3
 269.004218286 225 300 225 300 225 c 1033
250 0 m 1
 250 0 296 50 325 50 c 0
 354 50 400 0 400 0 c 9
 500 100 l 1
 500 300 l 25
 400 400 l 1
 300 300 l 1049
300 -150 m 1
 300 375 l 1025
EndSplineSet
Fore
SplineSet
265 -214 m 1xec
 236 -185 l 1
 236 -44 l 2
 233 -47 230 -50 227 -52 c 2
 215 -64 l 1
 186 -35 l 1
 186 -35 188 -33 192 -29 c 2
 236 15 l 1
 236 32 l 1
 140 -64 l 1
 36 40 l 1
 36 140 l 1
 86 190 l 1
 61 215 l 1
 36 290 l 1
 210 464 l 1
 335 439 l 1
 364 410 l 1
 364 393 l 1
 435 464 l 1
 564 335 l 1
 564 135 l 1
 365 -64 l 1
 364 -63 l 1
 364 -115 l 1
 265 -214 l 1xec
187 291 m 1
 210 314 l 1
 214 310 l 2
 218 306 225 301 236 297 c 1
 236 317 l 1
 174 329 l 1
 187 291 l 1
364 114 m 1
 386 111 416 83 429 70 c 2
 435 64 l 1
 436 65 l 1
 436 265 l 2
 436 303 386 315 365 336 c 1
 364 335 l 1
 364 160 l 1
 364 114 l 1
236 90 m 1
 236 161 l 1
 215 161 l 2
 192 161 176 165 164 170 c 1
 164 110 l 1
 210 64 l 1
 236 90 l 1
EndSplineSet
LCarets2: 1 300 
Ligature2: "Historic ligatures-1" a p
EndChar
StartChar: a_r
Encoding: 61354 61354 343
Width: 500
GlyphClass: 3
Flags: W
HStem: -64 21G<120 160 270 310> 444 20G<190 310 415 455> 444 20G<190 310 415 455>
VStem: 236 128<90 161 297 317>
LayerCount: 2
Back
SplineSet
125 250 m 17
 100 325 l 1
 175 400 l 1
 300 375 l 1
 300 125 l 9
 175 0 l 1
 100 75 l 1
 100 175 l 1
 175 250 l 1
 175 250 193.964297096 225 250 225 c 3
 269.004218286 225 300 225 300 225 c 1033
375 50 m 25
 325 0 l 1
 300 25 l 1
 300 375 l 1025
450 350 m 25
 400 400 l 25
 300 300 l 1049
EndSplineSet
Fore
SplineSet
514 385 m 1xd0
 415 286 l 1
 365 336 l 1
 364 335 l 1
 364 160 l 1
 364 68 l 1
 410 114 l 1
 439 85 l 1
 290 -64 l 1
 236 -10 l 1
 236 32 l 1
 140 -64 l 1
 36 40 l 1
 36 140 l 1
 86 190 l 1
 61 215 l 1
 36 290 l 1
 210 464 l 1
 335 439 l 1
 364 410 l 1
 364 393 l 1
 435 464 l 1
 514 385 l 1xd0
187 291 m 1
 210 314 l 1
 214 310 l 2
 218 306 225 301 236 297 c 1
 236 317 l 1
 174 329 l 1
 187 291 l 1
236 90 m 1
 236 161 l 1
 215 161 l 2
 192 161 176 165 164 170 c 1
 164 110 l 1
 210 64 l 1
 236 90 l 1
EndSplineSet
LCarets2: 1 300 
Ligature2: "Historic ligatures-1" a r
EndChar
StartChar: o_c
Encoding: 61357 61357 668
Width: 550
Flags: W
HStem: -64 21G<145 185 345 385> 444 20G<215 255 415 455> 444 20G<215 255 415 455>
VStem: 36 128<98.1606 265> 236 128<98.1606 301.839>
LayerCount: 2
Back
SplineSet
500 300 m 9
 400 400 l 25
 300 300 l 25
 300 100 l 25
 400 0 l 25
 500 100 l 1041
200 400 m 25
 100 300 l 25
 100 100 l 25
 200 0 l 25
 300 100 l 25
 300 300 l 25
 200 400 l 25
EndSplineSet
Fore
SplineSet
165 336 m 1x98
 164 335 l 1
 164 135 l 2
 164 97 214 85 235 64 c 1
 236 65 l 1
 236 265 l 2
 236 303 186 315 165 336 c 1x98
36 265 m 1
 235 464 l 1
 335 364 l 1
 435 464 l 1xd8
 564 335 l 1
 465 236 l 1
 365 336 l 1
 364 335 l 1
 364 135 l 2
 364 97 414 85 435 64 c 1
 535 164 l 1
 564 135 l 1
 365 -64 l 1
 265 36 l 1
 165 -64 l 1
 36 65 l 1
 36 265 l 1
EndSplineSet
LCarets2: 1 300 
Ligature2: "Historic ligatures-1" o c
EndChar
StartChar: n.alt
Encoding: 61992 61992 598
Width: 400
Flags: MW
AnchorPoint: "abvmark" 200 500 basechar 0
LayerCount: 4
Fore
SplineSet
65 70 m 25
 135 0 l 1049
135 330 m 25
 65 400 l 1049
100 365 m 9
 100 35 l 1025
230 -170 m 25
 300 -100 l 1
 300 325 l 9
 225 400 l 1
 100 275 l 1049
EndSplineSet
EndChar
StartChar: h.alt
Encoding: 62010 62010 860
Width: 400
Flags: W
HStem: -64 21G<80 120> 444 20G<240 280> 444 20G<240 280>
VStem: 36 128<70 310 368 555> 236 128<-65 290>
AnchorPoint: "abvmark" 200 700 basechar 0
LayerCount: 2
Back
SplineSet
65 70 m 9
 135 0 l 1041
65 625 m 13
 135 555 l 1045
100 590 m 13
 100 35 l 1041
100 275 m 9
 225 400 l 1
 300 325 l 1
 300 -100 l 17
 230 -170 l 1025
EndSplineSet
Fore
SplineSet
135 654 m 1xd8
 164 625 l 1
 199 590 l 1
 164 555 l 1
 164 368 l 1
 260 464 l 1
 364 360 l 1
 364 -65 l 1
 195 -234 l 1
 166 -205 l 1
 236 -135 l 1
 236 290 l 1
 190 336 l 1
 164 310 l 1
 164 70 l 1
 199 35 l 1
 100 -64 l 1
 65 -29 l 1
 36 -0 l 1
 1 35 l 1
 36 70 l 1
 36 240 l 1
 36 555 l 1
 1 590 l 1
 100 689 l 1
 135 654 l 1xd8
EndSplineSet
EndChar
StartChar: l_l
Encoding: 62713 62713 575
Width: 400
Flags: W
HStem: -64 21G<80 120 280 320>
VStem: 36 128<70 555> 236 128<70 72 130 555>
LayerCount: 2
Back
SplineSet
265 70 m 25
 335 0 l 25
 405 70 l 1049
265 625 m 25
 335 555 l 1049
300 590 m 9
 300 35 l 1049
65 70 m 25
 135 0 l 25
 205 70 l 1049
65 625 m 25
 135 555 l 1049
100 590 m 9
 100 35 l 1049
EndSplineSet
Fore
SplineSet
135 654 m 1
 164 625 l 1
 199 590 l 1
 164 555 l 1
 164 70 l 1
 170 64 l 1
 236 130 l 1
 236 555 l 1
 201 590 l 1
 300 689 l 1
 335 654 l 1
 364 625 l 1
 399 590 l 1
 364 555 l 1
 364 70 l 1
 370 64 l 1
 440 134 l 1
 469 105 l 1
 300 -64 l 1
 265 -29 l 1
 236 -0 l 1
 201 35 l 1
 236 70 l 1
 236 72 l 1
 100 -64 l 1
 65 -29 l 1
 36 -0 l 1
 1 35 l 1
 36 70 l 1
 36 555 l 1
 1 590 l 1
 100 689 l 1
 135 654 l 1
EndSplineSet
LCarets2: 1 200 
Ligature2: "Ligatures-1" l l
EndChar
StartChar: longs_c_h
Encoding: 62714 62714 706
Width: 850
Flags: W
HStem: -214 128<-92.5 -3.5> -64 21G<345 384.785 530 570 730 770> 444 20G<415 455 690 730> 444 20G<415 455 690 730> 536 21G<253.5 279>
VStem: 61 128<-115 515> 236 128<98.1606 265> 486 128<115 257 413 555> 686 128<70 319.643>
LayerCount: 2
Back
SplineSet
-125 -200 m 17
 -125 -200 -88 -150 -50 -150 c 8
 -19 -150 18 -200 50 -200 c 24
 78 -200 125 -150 125 -150 c 1
 125 550 l 1
 225 650 l 17
 225 650 256 600 300 600 c 24
 328 600 375 650 376 650 c 1033
500 300 m 9
 400 400 l 25
 300 300 l 25
 300 100 l 25
 400 0 l 25
 500 100 l 1041
715 70 m 25
 785 0 l 1049
515 70 m 25
 585 0 l 1049
515 625 m 25
 585 555 l 1049
550 590 m 9
 550 35 l 1049
750 35 m 25
 750 325 l 25
 675 400 l 1
 550 275 l 1049
EndSplineSet
Fore
SplineSet
585 654 m 1xef80
 614 625 l 1
 649 590 l 1
 614 555 l 1
 614 368 l 1
 710 464 l 1
 814 360 l 1
 814 70 l 1
 849 35 l 1
 750 -64 l 1
 715 -29 l 1
 686 -0 l 1
 651 35 l 1
 686 70 l 1
 686 290 l 2
 686 314 653 323 640 336 c 1
 614 310 l 1
 614 70 l 1
 649 35 l 1
 550 -64 l 1
 515 -29 l 1
 486 -0 l 1
 457 29 l 1
 365 -64 l 1
 236 65 l 1
 236 265 l 1
 435 464 l 1
 486 413 l 1
 486 555 l 1
 451 590 l 1
 550 689 l 1
 585 654 l 1xef80
-160 -264 m 1
 -189 -235 l 1
 -189 -235 -183 -227 -173 -217 c 2
 -74 -118 l 2
 -73 -117 l 0
 -58 -102 -37 -86 -15 -86 c 0
 8 -86 36 -116 61 -129 c 1
 61 515 l 1
 260 714 l 1
 289 685 l 1
 289 685 290 683 293 679 c 0
 305 671 319 664 335 664 c 0
 363 664 410 714 411 714 c 2
 440 685 l 1
 341 586 l 2
 340 586 293 536 265 536 c 0
 242 536 222 550 209 563 c 0
 208 564 l 2
 189 583 l 1
 189 -115 l 2
 189 -115 188 -116 185 -119 c 2
 86 -218 l 2
 74 -230 38 -264 15 -264 c 0
 -17 -264 -54 -214 -85 -214 c 0
 -100 -214 -114 -221 -127 -231 c 2
 -160 -264 l 1
486 240 m 1
 486 257 l 1
 465 236 l 1
 365 336 l 1
 364 335 l 1
 364 135 l 2
 364 97 414 85 435 64 c 1
 486 115 l 1
 486 240 l 1
EndSplineSet
LCarets2: 2 300 550 
Ligature2: "Ligatures-1" longs c h
EndChar
StartChar: longs_k
Encoding: 62716 62716 708
Width: 650
Flags: W
HStem: -214 128<-92.5 2.5> -64 21G<330 370 530 570> 469 20G<530 570>
VStem: 61 128<-130 515> 286 128<70 210 286 542.037> 486 128<70 158>
LayerCount: 2
Back
SplineSet
515 425 m 25
 585 355 l 1049
350 200 m 1
 550 350 l 9
 550 390 l 1049
450 275 m 1
 550 200 l 1
 550 35 l 1025
515 70 m 25
 585 0 l 1049
315 70 m 25
 385 0 l 1049
-125 -200 m 17
 -125 -200 -88 -150 -50 -150 c 8
 -6 -150 6 -200 50 -200 c 24
 85 -200 125 -150 125 -150 c 1
 125 550 l 1
 225 650 l 1
 225 650 266 600 350 600 c 9
 350 35 l 1025
EndSplineSet
Fore
SplineSet
-160 -264 m 1
 -189 -235 l 1
 -189 -235 -183 -227 -173 -217 c 2
 -74 -118 l 2
 -73 -117 l 0
 -58 -102 -37 -86 -15 -86 c 0
 20 -86 35 -117 61 -130 c 1
 61 515 l 1
 260 714 l 1
 269 705 l 2
 285 691 323 664 385 664 c 1
 414 635 l 1
 414 286 l 1
 486 340 l 1
 486 355 l 1
 451 390 l 1
 550 489 l 1
 585 454 l 1
 614 425 l 1
 649 390 l 1
 550 291 l 1
 535 306 l 1
 532 303 l 1
 585 264 l 1
 614 235 l 1
 614 70 l 1
 649 35 l 1
 550 -64 l 1
 515 -29 l 1
 486 -0 l 1
 451 35 l 1
 486 70 l 1
 486 158 l 1
 415 211 l 1
 414 210 l 1
 414 70 l 1
 449 35 l 1
 350 -64 l 1
 315 -29 l 1
 286 -0 l 1
 251 35 l 1
 286 70 l 1
 286 165 l 1
 286 538 l 1
 235 545 204 572 194 582 c 2
 190 586 l 1
 189 585 l 1
 189 -115 l 2
 189 -115 184 -120 176 -129 c 2
 175 -130 l 2
 76 -229 l 2
 61 -244 37 -264 15 -264 c 0
 -29 -264 -41 -214 -85 -214 c 0
 -100 -214 -114 -221 -127 -231 c 2
 -160 -264 l 1
EndSplineSet
LCarets2: 1 300 
Ligature2: "Ligatures-1" longs k
EndChar
StartChar: longs_s
Encoding: 62717 62717 710
Width: 600
Flags: MW
LayerCount: 4
Fore
SplineSet
-125 -200 m 17
 -125 -200 -88 -150 -50 -150 c 8
 -19 -150 18 -200 50 -200 c 24
 78 -200 125 -150 125 -150 c 1
 125 550 l 1
 225 650 l 17
 225 650 256 600 300 600 c 24
 328 600 375 650 376 650 c 1033
550 400 m 21
 550 400 503 350 475 350 c 28
 431 350 400 400 400 400 c 13
 300 300 l 5
 300 240 l 5
 500 160 l 5
 500 100 l 5
 400 0 l 21
 400 0 354 50 325 50 c 28
 296 50 250 0 250 0 c 1029
EndSplineSet
LCarets2: 1 300 
Ligature2: "Ligatures-1" longs s
EndChar
StartChar: longs_longs_k
Encoding: 62718 62718 711
Width: 850
Flags: W
HStem: -214 128<-92.5 -3.5> -64 21G<530 570 730 770> 469 20G<730 770>
VStem: 61 128<-104.365 515> 261 128<-115 517.891> 486 128<70 210 286 542.348> 686 128<70 158>
LayerCount: 2
Back
SplineSet
715 425 m 25
 785 355 l 1049
550 200 m 1
 750 350 l 9
 750 390 l 1049
650 275 m 1
 750 200 l 1
 750 35 l 1025
715 70 m 25
 785 0 l 1049
515 70 m 25
 585 0 l 1049
550 35 m 1
 550 600 l 1
 466 600 425 650 425 650 c 9
 325 550 l 1
 325 -150 l 1
 325 -150 278 -200 250 -200 c 0
 218 -200 156 -150 125 -150 c 1025
-125 -200 m 17
 -125 -200 -88 -150 -50 -150 c 8
 -19 -150 18 -200 50 -200 c 24
 78 -200 125 -150 125 -150 c 1
 125 550 l 1
 225 650 l 1
 225 650 281 550 325 550 c 1025
EndSplineSet
Fore
SplineSet
-160 -264 m 1
 -189 -235 l 1
 -189 -235 -183 -227 -173 -217 c 2
 -74 -118 l 2
 -73 -117 l 0
 -58 -102 -37 -86 -15 -86 c 0
 8 -86 36 -116 61 -129 c 1
 61 515 l 1
 260 714 l 1
 289 685 l 1
 289 685 307 654 329 627 c 0
 340 619 350 614 360 614 c 1
 460 714 l 1
 469 705 l 2
 485 691 523 664 585 664 c 1
 614 635 l 1
 614 286 l 1
 686 340 l 1
 686 355 l 1
 651 390 l 1
 750 489 l 1
 785 454 l 1
 814 425 l 1
 849 390 l 1
 750 291 l 1
 735 306 l 1
 732 303 l 1
 785 264 l 1
 814 235 l 1
 814 70 l 1
 849 35 l 1
 750 -64 l 1
 715 -29 l 1
 686 -0 l 1
 651 35 l 1
 686 70 l 1
 686 158 l 1
 615 211 l 1
 614 210 l 1
 614 70 l 1
 649 35 l 1
 550 -64 l 1
 515 -29 l 1
 486 -0 l 1
 451 35 l 1
 486 70 l 1
 486 165 l 1
 486 538 l 1
 434 546 404 572 394 582 c 2
 390 586 l 1
 389 585 l 1
 389 -115 l 1
 389 -115 388 -116 385 -119 c 2
 286 -218 l 2
 274 -230 238 -264 215 -264 c 0
 183 -264 121 -214 90 -214 c 1
 86 -218 l 2
 74 -230 38 -264 15 -264 c 0
 -17 -264 -54 -214 -85 -214 c 0
 -100 -214 -114 -221 -127 -231 c 2
 -160 -264 l 1
261 498 m 1
 255 502 250 507 245 512 c 2
 216 541 l 2
 206 551 197 562 189 572 c 1
 189 -94 l 1
 212 -104 239 -121 261 -130 c 1
 261 498 l 1
EndSplineSet
LCarets2: 2 300 500 
Ligature2: "Ligatures-1" longs longs k
EndChar
StartChar: f_f
Encoding: 64256 64256 320
Width: 500
Flags: MW
LayerCount: 4
Fore
SplineSet
125 -150 m 5
 156 -150 218 -200 250 -200 c 4
 278 -200 325 -150 325 -150 c 5
 325 550 l 5
 425 650 l 21
 425 650 456 600 500 600 c 28
 528 600 575 650 576 650 c 1037
-125 -200 m 21
 -125 -200 -88 -150 -50 -150 c 12
 -19 -150 18 -200 50 -200 c 28
 78 -200 125 -150 125 -150 c 5
 125 550 l 5
 225 650 l 5
 225 650 281 550 325 550 c 1029
50 400 m 29
 450 400 l 1053
EndSplineSet
LCarets2: 1 300 
Ligature2: "Ligatures-1" f f
EndChar
StartChar: f_i
Encoding: 64257 64257 321
Width: 450
Flags: MW
LayerCount: 4
Fore
SplineSet
350 365 m 9
 350 35 l 1025
315 70 m 25
 385 0 l 25
 455 70 l 1049
50 400 m 1
 315 400 l 25
 385 330 l 1025
-125 -200 m 1
 -125 -200 -88 -150 -50 -150 c 8
 -6 -150 6 -200 50 -200 c 24
 85 -200 125 -150 125 -150 c 1
 125 550 l 1
 225 650 l 1
 225 650 270 610 410 610 c 9
 340 540 l 1025
EndSplineSet
LCarets2: 1 300 
Ligature2: "Ligatures-1" f i
EndChar
StartChar: f_l
Encoding: 64258 64258 323
Width: 450
Flags: MW
LayerCount: 4
Fore
SplineSet
-125 -200 m 17
 -125 -200 -88 -150 -50 -150 c 8
 -6 -150 6 -200 50 -200 c 24
 85 -200 125 -150 125 -150 c 1
 125 550 l 1
 225 650 l 1
 225 650 231 625 315 625 c 9
 385 555 l 1025
50 400 m 25
 300 400 l 1049
315 70 m 25
 385 0 l 25
 455 70 l 1049
350 590 m 9
 350 35 l 1049
EndSplineSet
LCarets2: 1 300 
Ligature2: "Ligatures-1" f l
EndChar
StartChar: f_f_i
Encoding: 64259 64259 324
Width: 650
Flags: W
HStem: -214 128<-92.5 -3.5> -64 21G<530 570> 336 128<189 261 389 480> 476 21G<485 525>
VStem: 61 128<-104.365 336 464 515> 261 128<-115 336 464 517.891> 486 128<70 330>
LayerCount: 2
Back
SplineSet
125 -150 m 1
 156 -150 218 -200 250 -200 c 0
 278 -200 325 -150 325 -150 c 1
 325 550 l 1
 425 650 l 17
 425 650 470 610 610 610 c 1
 540 540 l 1025
-125 -200 m 1
 -125 -200 -88 -150 -50 -150 c 8
 -19 -150 18 -200 50 -200 c 24
 78 -200 125 -150 125 -150 c 1
 125 550 l 1
 225 650 l 1
 225 650 281 550 325 550 c 1025
50 400 m 1
 515 400 l 25
 585 330 l 1025
550 365 m 9
 550 35 l 1025
515 70 m 25
 585 0 l 25
 655 70 l 1049
EndSplineSet
Fore
SplineSet
585 429 m 1
 614 400 l 1
 649 365 l 1
 614 330 l 1
 614 70 l 1
 620 64 l 1
 690 134 l 1
 719 105 l 1
 550 -64 l 1
 515 -29 l 1
 486 -0 l 1
 451 35 l 1
 486 70 l 1
 486 330 l 1
 480 336 l 1
 389 336 l 1
 389 -115 l 2
 389 -115 388 -116 385 -119 c 2
 286 -218 l 2
 274 -230 238 -264 215 -264 c 0
 183 -264 121 -214 90 -214 c 1
 86 -218 l 2
 74 -230 38 -264 15 -264 c 0
 -17 -264 -54 -214 -85 -214 c 0
 -100 -214 -114 -221 -127 -231 c 2
 -160 -264 l 1
 -189 -235 l 1
 -189 -235 -183 -227 -173 -217 c 2
 -74 -118 l 2
 -73 -117 l 0
 -58 -102 -37 -86 -15 -86 c 0
 8 -86 36 -116 61 -129 c 1
 61 336 l 1
 15 336 l 1
 -14 365 l 1
 61 440 l 1
 61 515 l 1
 260 714 l 1
 289 685 l 1
 289 685 307 654 329 627 c 0
 340 619 350 614 360 614 c 1
 460 714 l 1
 460 714 505 674 645 674 c 1
 674 645 l 1
 505 476 l 1
 476 505 l 1
 519 548 l 1
 423 557 390 586 390 586 c 1
 389 585 l 1
 389 464 l 1
 550 464 l 1
 585 429 l 1
189 464 m 1
 261 464 l 1
 261 498 l 1
 255 502 250 507 245 512 c 2
 216 541 l 2
 206 551 197 562 189 572 c 1
 189 464 l 1
189 336 m 1
 189 -94 l 1
 212 -104 239 -121 261 -130 c 1
 261 336 l 1
 189 336 l 1
EndSplineSet
LCarets2: 2 300 500 
Ligature2: "Ligatures-1" f f i
EndChar
StartChar: f_f_l
Encoding: 64260 64260 325
Width: 650
Flags: W
HStem: -214 128<-92.5 -3.5> -64 21G<530 570> 336 128<189 261 389 465>
VStem: 61 128<-104.365 336 464 515> 261 128<-115 336 464 517.891> 486 128<70 357 464 555>
LayerCount: 2
Back
SplineSet
125 -150 m 1
 156 -150 218 -200 250 -200 c 0
 278 -200 325 -150 325 -150 c 1
 325 550 l 1
 425 650 l 17
 425 650 431 625 515 625 c 1
 585 555 l 1025
-125 -200 m 17
 -125 -200 -88 -150 -50 -150 c 8
 -19 -150 18 -200 50 -200 c 24
 78 -200 125 -150 125 -150 c 1
 125 550 l 1
 225 650 l 1
 225 650 281 550 325 550 c 1025
50 400 m 25
 500 400 l 1049
515 70 m 25
 585 0 l 25
 655 70 l 1049
550 590 m 9
 550 35 l 1049
EndSplineSet
Fore
SplineSet
585 654 m 1
 614 625 l 1
 649 590 l 1
 614 555 l 1
 614 70 l 1
 620 64 l 1
 690 134 l 1
 719 105 l 1
 550 -64 l 1
 515 -29 l 1
 486 -0 l 1
 451 35 l 1
 486 70 l 1
 486 357 l 1
 465 336 l 1
 389 336 l 1
 389 -115 l 2
 389 -115 388 -116 385 -119 c 2
 286 -218 l 2
 274 -230 238 -264 215 -264 c 0
 183 -264 121 -214 90 -214 c 1
 86 -218 l 2
 74 -230 38 -264 15 -264 c 0
 -17 -264 -54 -214 -85 -214 c 0
 -100 -214 -114 -221 -127 -231 c 2
 -160 -264 l 1
 -189 -235 l 1
 -189 -235 -183 -227 -173 -217 c 2
 -74 -118 l 2
 -73 -117 l 0
 -58 -102 -37 -86 -15 -86 c 0
 8 -86 36 -116 61 -129 c 1
 61 336 l 1
 15 336 l 1
 -14 365 l 1
 61 440 l 1
 61 515 l 1
 260 714 l 1
 289 685 l 1
 289 685 307 654 329 627 c 0
 340 619 350 614 360 614 c 1
 460 714 l 1
 471 703 l 2
 483 696 505 689 550 689 c 1
 585 654 l 1
486 464 m 1
 486 555 l 1
 480 561 l 1
 423 561 402 572 394 580 c 2
 392 582 390 584 389 585 c 2
 389 464 l 1
 486 464 l 1
189 464 m 1
 261 464 l 1
 261 498 l 1
 255 502 250 507 245 512 c 2
 216 541 l 2
 206 551 197 562 189 572 c 1
 189 464 l 1
189 336 m 1
 189 -94 l 1
 212 -104 239 -121 261 -130 c 1
 261 336 l 1
 189 336 l 1
EndSplineSet
LCarets2: 2 300 500 
Ligature2: "Ligatures-1" f f l
EndChar
StartChar: longs_t
Encoding: 64261 64261 333
Width: 525
Flags: MW
LayerCount: 4
Fore
SplineSet
-125 -200 m 17
 -125 -200 -88 -150 -50 -150 c 8
 -19 -150 18 -200 50 -200 c 24
 78 -200 125 -150 125 -150 c 1
 125 550 l 1
 225 650 l 1
 225 650 281 550 325 550 c 1
 325 50 l 1
 375 0 l 1
 475 100 l 1025
250 400 m 25
 450 400 l 1049
EndSplineSet
LCarets2: 1 300 
Ligature2: "Ligatures-1" longs t
EndChar
StartChar: v.alt
Encoding: 65540 -1 782
Width: 400
Flags: W
HStem: 444 20G<80 120 245 285> 444 20G<80 120 245 285>
VStem: 36 128<135 330> 236 128<135 295>
AnchorPoint: "abvmark" 200 500 basechar 0
AnchorPoint: "blwmark" 200 0 basechar 0
LayerCount: 2
Back
SplineSet
230 400 m 5
 300 330 l 29
 300 100 l 1
 200 0 l 25
 100 100 l 1
 100 365 l 1049
135 330 m 25
 65 400 l 1049
EndSplineSet
Fore
SplineSet
182 349 m 1x30
 164 330 l 1
 164 135 l 1
 235 64 l 1
 236 65 l 1
 236 295 l 1
 182 349 l 1x30
164 400 m 1
 182 381 l 1
 265 464 l 1
 364 365 l 1
 364 135 l 1
 165 -64 l 1
 36 65 l 1
 36 330 l 1
 1 365 l 1
 100 464 l 1xb0
 135 429 l 1
 164 400 l 1
EndSplineSet
EndChar
